{"glyphs":{"0":{"ha":690,"x_min":0,"x_max":0,"o":"m 366 993 b 203 936 300 993 246 974 b 49 505 100 840 49 696 b 98 197 49 383 65 281 b 353 -16 155 55 241 -16 b 493 28 401 -16 448 -1 b 604 153 538 57 575 99 b 673 488 650 241 673 352 b 624 779 673 589 656 686 b 366 993 570 922 484 993 z m 348 356 b 207 528 254 405 207 463 b 265 604 207 578 227 604 b 355 571 296 604 326 593 b 431 645 359 621 385 645 b 499 555 476 645 499 615 b 348 356 499 462 449 395 z "},"1":{"ha":376,"x_min":0,"x_max":0,"o":"m 162 974 b 124 949 144 974 132 966 b 13 697 50 800 13 715 b 64 640 13 659 30 640 l 121 640 l 130 57 b 181 0 130 19 146 0 l 252 0 b 306 57 288 0 306 19 l 319 925 b 268 974 319 958 302 974 z m 220 812 b 164 880 182 832 164 854 b 187 910 164 900 172 910 b 222 897 199 910 211 906 b 252 926 224 917 234 926 b 279 891 271 926 279 915 b 220 812 279 854 260 828 z "},"2":{"ha":582,"x_min":0,"x_max":0,"o":"m 75 1 b 481 11 330 7 466 11 b 555 79 530 11 555 33 l 555 106 b 450 178 555 151 519 175 b 254 184 368 182 303 184 b 363 346 277 229 313 283 b 549 735 488 501 549 631 b 492 903 549 804 530 860 b 273 993 438 963 366 993 b 129 960 211 993 163 982 b 9 827 50 909 9 865 b 18 798 9 814 12 804 b 118 711 66 740 100 711 b 180 753 135 711 155 725 b 281 800 207 785 241 800 b 368 719 338 800 368 773 b 256 474 368 644 330 562 b 26 57 102 292 26 153 b 73 1 26 20 41 1 z m 124 777 b 64 856 84 793 64 819 b 92 891 64 880 73 891 b 121 862 110 891 119 882 b 157 875 133 871 145 875 b 180 845 172 875 180 865 b 124 777 180 819 161 797 z "},"3":{"ha":581,"x_min":0,"x_max":0,"o":"m 275 -16 b 486 71 349 -16 418 13 b 576 279 546 124 576 194 b 425 537 576 389 526 475 b 511 754 482 597 511 669 b 476 876 511 800 500 840 b 245 993 425 954 348 993 b 113 966 190 993 146 984 b 7 860 42 928 7 892 b 37 806 7 845 17 827 b 137 730 81 755 115 730 b 172 743 155 730 168 734 b 283 846 210 812 248 846 b 340 735 321 846 340 809 b 232 589 340 658 304 609 b 134 524 167 572 134 550 l 134 488 b 161 442 134 460 143 446 b 267 418 203 435 238 427 b 403 271 357 391 403 342 b 368 168 403 226 391 192 b 286 133 344 144 317 133 b 202 179 245 133 217 149 b 134 239 184 219 161 239 b 69 205 121 239 100 227 b 18 136 35 180 18 157 b 47 79 18 123 27 104 b 275 -16 96 16 172 -16 z m 123 801 b 67 869 85 821 67 843 b 90 899 67 888 75 899 b 125 886 102 899 114 895 b 155 915 127 905 137 915 b 182 880 174 915 182 903 b 123 801 182 842 163 817 z m 118 71 b 62 138 81 90 62 113 b 85 168 62 158 70 168 b 121 155 97 168 109 164 b 151 184 123 175 132 184 b 178 149 169 184 178 173 b 118 71 178 112 158 86 z "},"4":{"ha":606,"x_min":0,"x_max":0,"o":"m 483 0 b 537 113 517 0 535 38 b 547 926 540 241 543 512 b 502 974 547 958 532 974 l 396 974 b 363 960 380 974 370 969 b 145 583 342 930 269 804 b 5 312 52 416 5 326 b 57 258 5 276 22 258 l 358 258 l 358 65 b 412 0 358 22 376 0 z m 225 404 l 358 632 l 358 404 z m 427 739 b 363 815 385 761 363 786 b 389 849 363 838 372 849 b 429 834 403 849 416 844 b 463 867 431 857 443 867 b 494 827 484 867 494 854 b 427 739 494 786 471 756 z "},"5":{"ha":585,"x_min":0,"x_max":0,"o":"m 287 -16 b 509 77 368 -16 442 15 b 593 285 565 130 593 200 b 479 507 593 372 555 446 b 246 583 416 558 338 583 l 246 800 l 444 814 b 509 865 488 817 509 835 l 509 914 b 426 962 509 941 481 958 b 111 974 366 967 260 970 b 59 925 76 974 59 958 b 64 494 62 694 64 550 b 127 423 64 447 85 423 b 290 412 193 423 248 420 b 439 271 389 393 439 347 b 393 178 439 232 424 201 b 306 149 370 159 340 149 b 216 184 258 149 229 161 b 151 239 197 220 175 239 b 95 212 141 239 123 230 b 35 141 55 185 35 162 b 131 22 35 98 66 59 b 287 -16 174 -3 227 -16 z m 145 68 b 90 136 108 88 90 111 b 113 166 90 156 97 166 b 148 153 124 166 136 162 b 178 182 150 173 159 182 b 205 147 196 182 205 171 b 145 68 205 110 185 84 z "},"6":{"ha":644,"x_min":0,"x_max":0,"o":"m 384 993 b 292 982 340 993 310 989 b 53 450 132 922 53 745 l 53 426 b 88 198 53 344 64 268 b 365 -16 135 55 227 -16 b 548 71 425 -16 486 13 b 636 309 607 131 636 210 b 593 477 636 376 622 432 b 381 594 541 555 470 594 b 224 567 341 594 289 585 b 249 713 224 606 232 654 b 359 838 275 796 312 838 b 425 819 387 838 408 832 b 506 768 469 785 496 768 b 566 815 526 768 545 783 b 598 879 587 850 598 871 b 536 955 598 907 577 932 b 384 993 492 980 441 993 z m 355 177 b 244 312 281 216 244 260 b 290 371 244 351 260 371 b 360 346 314 371 337 363 b 419 404 363 385 383 404 b 473 334 455 404 473 380 b 355 177 473 260 434 208 z "},"7":{"ha":542,"x_min":0,"x_max":0,"o":"m 265 0 b 311 27 292 0 307 9 b 539 922 463 621 539 919 b 488 974 539 957 522 974 l 51 974 b 5 928 20 974 5 958 l 5 808 b 59 757 5 774 23 757 b 303 770 64 757 145 762 b 143 52 197 302 143 62 b 195 0 143 17 160 0 z m 102 806 b 46 873 64 825 46 848 b 69 903 46 893 54 903 b 104 890 81 903 93 899 b 134 920 106 910 116 920 b 161 884 153 920 161 908 b 102 806 161 847 142 821 z "},"8":{"ha":627,"x_min":0,"x_max":0,"o":"m 319 -16 b 416 -5 362 -16 395 -13 b 598 220 538 35 598 110 b 425 491 598 306 541 396 b 593 757 536 581 593 669 b 533 909 593 811 573 862 b 330 993 485 965 417 993 b 133 924 256 993 191 970 b 39 727 71 874 39 808 b 123 567 39 671 67 618 b 224 488 151 543 184 516 b 47 225 106 383 47 295 b 77 109 47 178 58 139 b 319 -16 135 25 215 -16 z m 311 682 b 230 781 257 709 230 743 b 264 824 230 810 241 824 b 315 805 281 824 298 818 b 359 848 317 833 332 848 b 398 796 385 848 398 831 b 311 682 398 743 369 704 z m 340 109 b 231 253 267 138 231 186 b 280 317 231 296 247 317 b 335 264 313 317 332 300 b 399 288 356 279 378 288 b 441 233 427 288 441 269 b 340 109 441 186 408 144 z "},"9":{"ha":629,"x_min":0,"x_max":0,"o":"m 275 -16 b 367 -5 318 -16 349 -13 b 606 526 526 54 606 231 l 606 551 b 570 779 606 633 594 709 b 294 993 524 922 431 993 b 111 906 233 993 172 964 b 22 667 52 846 22 766 b 66 499 22 601 37 545 b 277 382 118 421 189 382 b 435 410 317 382 370 391 b 410 264 435 371 427 323 b 299 138 383 180 347 138 b 234 157 272 138 250 144 b 153 209 189 192 162 209 b 93 161 133 209 113 193 b 60 98 71 127 60 105 b 123 22 60 70 81 45 b 275 -16 167 -3 218 -16 z m 288 560 b 174 700 212 600 174 646 b 221 762 174 741 189 762 b 294 734 245 762 270 753 b 355 795 297 774 318 795 b 411 722 393 795 411 770 b 288 560 411 646 370 592 z "},"\u0000":{"ha":0,"x_min":0,"x_max":0,"o":""},"\u001d":{"ha":0,"x_min":0,"x_max":0,"o":""}," ":{"ha":209,"x_min":0,"x_max":0,"o":""}," ":{"ha":209,"x_min":0,"x_max":0,"o":""},"!":{"ha":313,"x_min":0,"x_max":0,"o":"m 180 298 b 242 350 221 298 242 315 l 256 928 b 204 974 256 958 239 974 l 98 974 b 52 930 68 974 52 960 l 66 347 b 136 298 66 315 90 298 z m 151 792 b 95 860 113 812 95 834 b 118 890 95 880 102 890 b 153 877 130 890 142 886 b 183 906 155 897 165 906 b 210 871 201 906 210 895 b 151 792 210 833 191 808 z m 201 0 b 256 54 237 0 256 18 l 256 144 b 201 198 256 180 237 198 l 106 198 b 55 144 72 198 55 180 l 55 65 b 109 0 55 22 73 0 z m 153 56 b 109 110 124 72 109 90 b 127 134 109 125 115 134 b 155 123 137 134 146 130 b 178 146 157 139 164 146 b 200 119 193 146 200 137 b 153 56 200 90 184 68 z "},"\"":{"ha":279,"x_min":0,"x_max":0,"o":"m 52 697 b 105 748 81 697 98 714 b 115 947 112 782 115 848 b 65 993 115 977 98 993 l -30 993 b -77 947 -61 993 -77 977 l -77 798 b -14 697 -76 730 -55 697 z m 292 697 b 346 748 321 697 339 714 b 356 947 353 782 356 848 b 306 993 356 977 339 993 l 211 993 b 164 947 180 993 164 977 l 164 798 b 227 697 165 730 186 697 z m 17 846 b -21 892 -8 859 -21 874 b -5 913 -21 906 -16 913 b 19 904 3 913 11 910 b 39 924 20 917 27 924 b 58 899 52 924 58 916 b 17 846 58 874 44 857 z m 262 846 b 224 892 237 859 224 874 b 239 913 224 906 229 913 b 264 904 248 913 256 910 b 284 924 265 917 272 924 b 302 899 296 924 302 916 b 262 846 302 874 289 857 z "},"#":{"ha":792,"x_min":0,"x_max":0,"o":"m 505 1 b 540 31 522 1 534 11 b 600 260 553 68 572 145 l 645 260 b 767 323 726 260 767 281 l 767 357 b 645 418 767 398 726 418 l 637 418 l 662 528 b 767 591 732 532 767 552 l 767 625 b 696 683 767 656 743 675 b 749 934 731 843 749 926 b 696 974 749 960 731 974 l 617 974 b 579 952 600 974 587 966 b 511 688 576 947 553 859 l 399 688 b 451 934 434 845 451 927 b 398 974 451 960 433 974 l 319 974 b 281 952 302 974 290 966 b 214 690 278 947 256 859 l 125 690 b 29 644 61 690 29 675 l 29 572 b 117 524 29 540 58 524 l 174 525 l 149 422 l 125 422 b 29 376 61 422 29 407 l 29 304 b 109 256 29 274 56 258 b 56 34 74 112 56 38 b 109 1 56 12 74 1 l 208 1 b 242 31 224 1 236 11 b 302 258 255 68 275 144 l 407 258 b 354 34 372 113 354 38 b 406 1 354 12 372 1 z m 340 421 l 363 526 l 472 527 l 446 420 z m 286 550 b 231 618 249 570 231 592 b 254 648 231 637 238 648 b 289 635 265 648 277 644 b 319 664 291 654 300 664 b 346 629 337 664 346 652 b 286 550 346 591 326 566 z m 519 281 b 464 349 482 301 464 323 b 487 379 464 369 471 379 b 522 366 498 379 511 375 b 552 395 524 386 534 395 b 579 360 570 395 579 384 b 519 281 579 323 559 297 z "},"$":{"ha":637,"x_min":0,"x_max":0,"o":"m 470 735 b 408 822 429 753 408 783 l 408 833 b 435 865 408 847 416 858 b 467 836 448 865 458 855 b 500 846 471 836 481 839 b 530 817 515 846 526 836 b 470 735 530 783 510 756 z m 158 109 b 98 190 118 130 98 157 b 128 220 102 210 113 220 b 161 209 146 212 157 209 b 193 239 170 229 180 239 b 220 206 212 231 220 220 l 220 195 b 158 109 220 156 199 127 z m 247 986 b 118 917 199 975 156 952 b 31 724 60 866 31 802 b 180 491 31 625 80 547 b 413 247 335 405 413 323 b 342 176 413 200 389 176 b 264 214 307 176 281 189 b 212 290 258 265 240 290 l 87 288 b 22 236 44 288 22 271 b 117 54 22 170 54 109 b 280 -13 161 18 216 -5 l 280 -84 b 337 -144 280 -124 299 -144 b 391 -87 373 -144 391 -125 l 391 -12 b 552 63 452 -3 505 22 b 616 220 595 103 616 155 b 603 317 616 252 612 284 b 361 567 581 393 500 477 b 239 735 280 619 239 675 b 296 808 239 784 258 808 b 357 751 332 808 353 789 b 410 689 361 710 379 689 l 543 689 b 595 741 572 689 589 706 b 584 819 595 764 591 791 b 385 985 539 911 473 966 l 385 1061 b 334 1115 385 1097 368 1115 l 293 1115 b 247 1063 262 1115 247 1098 z "},"%":{"ha":855,"x_min":0,"x_max":0,"o":"m 172 548 b 292 597 216 548 256 564 b 361 779 338 640 361 700 b 308 937 361 848 344 901 b 172 993 271 975 225 993 b 38 933 122 993 78 973 b -21 770 -1 894 -21 840 b -2 673 -21 739 -15 707 b 172 548 30 589 87 548 z m 253 0 b 294 19 273 0 286 6 b 477 448 302 33 363 176 b 673 917 597 739 663 895 b 681 944 678 927 681 937 b 627 974 681 964 663 974 l 577 974 b 547 960 563 974 553 969 b 284 431 538 947 450 770 b 104 54 168 193 108 68 b 101 35 102 47 101 41 b 153 0 101 12 118 0 z m 170 669 b 75 789 106 703 75 743 b 114 842 75 825 87 842 b 175 819 135 842 155 835 b 226 871 178 854 195 871 b 273 808 257 871 273 850 b 170 669 273 743 239 696 z m 654 -1 b 828 124 739 -1 796 41 b 847 222 841 158 847 191 b 787 385 847 291 827 345 b 654 444 748 425 704 444 b 518 389 601 444 555 426 b 465 230 482 353 465 300 b 534 48 465 151 488 91 b 654 -1 570 16 610 -1 z m 656 120 b 553 260 587 148 553 194 b 600 323 553 302 569 323 b 651 271 631 323 648 305 b 712 294 671 286 691 294 b 751 241 739 294 751 276 b 656 120 751 195 720 155 z m 222 49 b 169 116 186 68 169 90 b 191 145 169 136 176 145 b 224 133 202 145 214 141 b 253 161 227 152 236 161 b 279 127 270 161 279 150 b 222 49 279 90 260 64 z "},"&":{"ha":766,"x_min":0,"x_max":0,"o":"m 336 993 b 152 935 269 993 207 974 b 60 762 90 892 60 835 b 174 513 60 680 98 597 b 16 241 68 428 16 338 b 85 76 16 178 39 123 b 293 -16 142 14 211 -16 b 551 41 379 -16 465 3 l 551 30 b 597 -16 551 -1 566 -16 l 675 -16 b 727 35 710 -16 727 1 b 708 179 727 85 721 134 b 760 358 743 239 760 298 b 708 412 760 394 743 412 l 624 412 b 586 388 611 412 598 404 b 450 513 529 446 484 487 b 586 751 541 602 586 681 b 519 926 586 821 564 879 b 336 993 475 970 414 993 z m 336 688 b 253 781 281 715 253 745 b 288 821 253 808 264 821 b 340 804 305 821 323 815 b 385 844 342 830 357 844 b 425 795 412 844 425 827 b 336 688 425 745 395 709 z m 319 121 b 199 281 239 153 199 206 b 254 353 199 329 217 353 b 313 294 290 353 310 333 b 385 319 337 311 361 319 b 431 259 416 319 431 299 b 319 121 431 207 394 161 z "},"'":{"ha":260,"x_min":0,"x_max":0,"o":"m 162 697 b 216 748 191 697 209 714 b 226 947 222 782 226 848 b 176 993 226 977 209 993 l 81 993 b 34 947 50 993 34 977 l 34 798 b 97 697 35 730 56 697 z m 131 840 b 86 895 101 856 86 873 b 104 919 86 911 92 919 b 133 908 114 919 123 916 b 157 932 134 924 142 932 b 179 903 172 932 179 922 b 131 840 179 874 163 853 z "},"(":{"ha":340,"x_min":0,"x_max":0,"o":"m 307 -144 b 354 -97 338 -144 354 -128 b 330 -24 354 -87 346 -62 b 236 480 267 137 236 304 b 319 949 236 664 264 820 b 357 1068 345 1008 357 1047 b 298 1115 357 1099 338 1115 b 226 1088 277 1115 252 1106 b 46 450 106 1008 46 795 b 58 307 46 418 50 370 b 307 -144 98 6 181 -144 z m 230 927 b 193 972 205 940 193 956 b 208 993 193 986 198 993 b 232 984 216 993 224 990 b 252 1004 233 997 239 1004 b 270 980 264 1004 270 996 b 230 927 270 955 256 937 z m 268 -90 b 231 -44 243 -77 231 -61 b 246 -24 231 -31 236 -24 b 270 -33 254 -24 262 -26 b 290 -13 271 -20 277 -13 b 308 -37 302 -13 308 -21 b 268 -90 308 -62 294 -79 z "},")":{"ha":342,"x_min":0,"x_max":0,"o":"m 37 -144 b 286 307 163 -144 245 6 b 298 450 294 370 298 418 b 118 1088 298 795 238 1008 b 45 1115 92 1106 67 1115 b -14 1068 6 1115 -14 1099 b 24 949 -14 1047 -1 1008 b 108 480 80 820 108 664 b 14 -24 108 304 77 137 b -10 -97 -2 -62 -10 -87 b 37 -144 -10 -128 5 -144 z m 87 961 b 54 1002 65 972 54 986 b 68 1019 54 1013 59 1019 b 89 1011 75 1019 82 1017 b 106 1029 90 1023 96 1029 b 123 1008 117 1029 123 1022 b 87 961 123 985 111 970 z m 73 -101 b 39 -60 50 -90 39 -76 b 53 -43 39 -49 44 -43 b 74 -51 60 -43 67 -45 b 92 -33 75 -39 81 -33 b 108 -54 102 -33 108 -40 b 73 -101 108 -77 96 -92 z "},"*":{"ha":121,"x_min":0,"x_max":0,"o":"m 75 697 b 105 738 95 697 105 711 b 134 724 113 728 122 724 b 168 743 141 724 152 730 b 186 776 180 752 186 763 b 170 803 186 783 181 792 b 211 833 197 803 211 813 l 211 868 b 170 895 211 886 197 895 b 191 923 184 905 191 914 b 178 943 191 927 186 934 b 133 977 159 966 144 977 b 105 960 126 977 117 971 b 78 1001 105 987 96 1001 l 40 1001 b 13 960 22 1001 13 987 b -14 977 2 971 -7 977 b -37 967 -22 977 -29 973 b -68 926 -58 950 -68 937 b -52 895 -68 913 -60 904 b -90 871 -77 895 -90 887 b -87 825 -90 860 -89 845 b -52 803 -85 810 -74 803 b -68 777 -63 797 -68 788 b -61 755 -68 768 -66 761 b -17 722 -43 732 -28 722 b 13 738 -9 722 1 727 b 43 697 13 711 23 697 z m 56 792 b 1 860 19 812 1 834 b 24 890 1 880 8 890 b 59 877 35 890 47 886 b 89 906 61 897 71 906 b 116 871 107 906 116 895 b 56 792 116 833 96 808 z "},"+":{"ha":456,"x_min":0,"x_max":0,"o":"m 245 252 b 321 309 296 252 321 271 l 321 385 l 387 385 b 449 434 428 385 449 401 l 449 515 b 381 564 449 548 427 564 l 319 564 l 319 643 b 262 697 319 679 300 697 l 194 697 b 140 643 158 697 140 679 l 140 570 l 58 570 b 7 518 24 570 7 553 l 7 439 b 64 382 7 401 26 382 l 134 382 l 134 293 b 205 252 134 266 158 252 z m 227 421 b 171 490 190 441 171 463 b 194 519 171 509 178 519 b 230 507 206 519 218 515 b 260 536 232 526 242 536 b 288 500 279 536 288 524 b 227 421 288 463 267 437 z "},",":{"ha":201,"x_min":0,"x_max":0,"o":"m 111 -119 b 156 -89 131 -119 146 -109 b 200 49 185 -28 200 18 l 200 146 b 146 198 200 181 182 198 l 56 198 b 2 146 20 198 2 181 l 2 49 b 37 5 2 31 14 17 b 24 -68 28 -28 24 -53 b 75 -119 24 -102 41 -119 z m 99 62 b 53 110 68 75 53 92 b 72 131 53 124 59 131 b 102 122 82 131 92 128 b 127 142 103 136 111 142 b 149 117 142 142 149 134 b 99 62 149 91 132 73 z "},"-":{"ha":296,"x_min":0,"x_max":0,"o":"m 35 203 b 212 206 90 203 149 204 b 296 260 268 208 296 226 l 296 334 b 272 379 296 362 288 377 b 41 393 193 389 115 393 b -4 339 11 393 -4 375 l -4 256 b 35 203 -4 221 9 203 z m 138 262 b 102 307 114 275 102 290 b 117 327 102 320 106 327 b 140 319 125 327 133 324 b 160 338 141 332 148 338 b 178 315 172 338 178 330 b 138 262 178 290 165 273 z "},"­":{"ha":296,"x_min":0,"x_max":0,"o":"m 35 203 b 212 206 90 203 149 204 b 296 260 268 208 296 226 l 296 334 b 272 379 296 362 288 377 b 41 393 193 389 115 393 b -4 339 11 393 -4 375 l -4 256 b 35 203 -4 221 9 203 z m 138 262 b 102 307 114 275 102 290 b 117 327 102 320 106 327 b 140 319 125 327 133 324 b 160 338 141 332 148 338 b 178 315 172 338 178 330 b 138 262 178 290 165 273 z "},".":{"ha":203,"x_min":0,"x_max":0,"o":"m 56 198 b 5 136 22 198 5 177 l 5 62 b 56 0 5 21 22 0 l 149 0 b 200 62 183 0 200 21 l 200 136 b 149 198 200 177 183 198 z m 103 62 b 62 104 75 74 62 88 b 79 123 62 117 67 123 b 105 115 87 123 96 121 b 127 134 106 127 114 134 b 147 111 140 134 147 126 b 103 62 147 88 132 72 z "},"/":{"ha":374,"x_min":0,"x_max":0,"o":"m 155 1 b 189 31 172 1 183 11 b 393 901 218 118 286 408 b 398 934 396 918 398 929 b 345 974 398 960 380 974 l 267 974 b 229 952 250 974 237 966 b 5 48 222 942 149 641 b 3 34 4 43 3 39 b 56 1 3 12 21 1 z m 109 43 b 63 88 79 56 63 71 b 82 108 63 101 69 108 b 111 100 92 108 102 105 b 136 119 113 113 121 119 b 158 96 151 119 158 111 b 109 43 158 71 142 54 z "},":":{"ha":265,"x_min":0,"x_max":0,"o":"m 89 198 b 37 136 54 198 37 177 l 37 62 b 89 0 37 21 54 0 l 181 0 b 233 62 216 0 233 21 l 233 136 b 181 198 233 177 216 198 z m 136 62 b 94 104 108 74 94 88 b 111 123 94 117 100 123 b 138 115 120 123 129 121 b 159 134 139 127 146 134 b 180 111 173 134 180 126 b 136 62 180 88 165 72 z m 136 486 b 94 529 108 498 94 513 b 111 548 94 542 100 548 b 138 540 120 548 129 545 b 159 558 139 552 146 558 b 180 536 173 558 180 551 b 136 486 180 513 165 496 z m 89 623 b 37 560 54 623 37 602 l 37 487 b 89 425 37 446 54 425 l 181 425 b 233 487 216 425 233 446 l 233 560 b 181 623 233 602 216 623 z "},";":{"ha":271,"x_min":0,"x_max":0,"o":"m 91 623 b 39 560 56 623 39 602 l 39 487 b 91 425 39 446 56 425 l 183 425 b 235 487 218 425 235 446 l 235 560 b 183 623 235 602 218 623 z m 138 486 b 96 529 110 498 96 513 b 113 548 96 542 102 548 b 140 540 122 548 131 545 b 161 558 141 552 149 558 b 182 536 175 558 182 551 b 138 486 182 513 167 496 z m 145 -119 b 191 -89 165 -119 180 -109 b 235 49 220 -28 235 18 l 235 146 b 180 198 235 181 216 198 l 91 198 b 37 146 55 198 37 181 l 37 49 b 72 5 37 31 48 17 b 58 -68 63 -28 58 -53 b 110 -119 58 -102 75 -119 z m 134 62 b 87 110 103 75 87 92 b 106 131 87 124 94 131 b 136 122 117 131 126 128 b 161 142 138 136 146 142 b 184 117 176 142 184 134 b 134 62 184 91 167 73 z "},";":{"ha":271,"x_min":0,"x_max":0,"o":"m 91 623 b 39 560 56 623 39 602 l 39 487 b 91 425 39 446 56 425 l 183 425 b 235 487 218 425 235 446 l 235 560 b 183 623 235 602 218 623 z m 138 486 b 96 529 110 498 96 513 b 113 548 96 542 102 548 b 140 540 122 548 131 545 b 161 558 141 552 149 558 b 182 536 175 558 182 551 b 138 486 182 513 167 496 z m 145 -119 b 191 -89 165 -119 180 -109 b 235 49 220 -28 235 18 l 235 146 b 180 198 235 181 216 198 l 91 198 b 37 146 55 198 37 181 l 37 49 b 72 5 37 31 48 17 b 58 -68 63 -28 58 -53 b 110 -119 58 -102 75 -119 z m 134 62 b 87 110 103 75 87 92 b 106 131 87 124 94 131 b 136 122 117 131 126 128 b 161 142 138 136 146 142 b 184 117 176 142 184 134 b 134 62 184 91 167 73 z "},"<":{"ha":444,"x_min":0,"x_max":0,"o":"m 362 654 b 47 464 342 654 237 591 b -31 382 -5 430 -31 403 b 44 307 -31 365 -6 340 b 183 217 81 281 127 252 b 363 114 288 149 349 114 b 414 195 397 114 414 141 l 414 228 b 382 298 414 260 404 284 b 243 382 354 319 307 347 l 362 458 b 414 522 397 479 414 501 l 414 602 b 362 654 414 637 397 654 z m 317 481 b 260 550 279 501 260 524 b 283 580 260 570 268 580 b 319 567 296 580 308 576 b 350 596 326 587 336 596 b 377 570 368 596 377 587 b 317 481 377 536 357 507 z "},"=":{"ha":429,"x_min":0,"x_max":0,"o":"m 342 507 b 404 578 383 507 404 531 l 404 616 b 342 686 404 663 383 686 l 76 690 b 27 637 43 690 27 673 l 27 556 b 72 503 27 520 42 503 z m 342 204 b 404 275 383 204 404 228 l 404 313 b 342 382 404 359 383 382 l 76 387 b 27 334 43 387 27 370 l 27 253 b 72 199 27 217 42 199 z m 202 251 b 165 296 178 264 165 279 b 180 315 165 309 170 315 b 204 307 189 315 197 313 b 224 326 205 320 212 326 b 241 303 235 326 241 319 b 202 251 241 279 229 261 z m 214 560 b 177 605 189 573 177 588 b 192 625 177 618 182 625 b 216 616 200 625 208 622 b 235 635 216 629 223 635 b 253 612 247 635 253 628 b 214 560 253 588 240 570 z "},">":{"ha":456,"x_min":0,"x_max":0,"o":"m 81 654 b 29 602 46 654 29 637 l 29 522 b 81 458 29 501 46 479 l 200 382 b 60 298 136 347 89 319 b 29 228 39 284 29 260 l 29 195 b 79 114 29 141 46 114 b 260 217 94 114 155 149 b 399 307 316 252 362 281 b 474 382 449 340 474 365 b 395 464 474 403 448 430 b 81 654 205 591 100 654 z m 128 177 b 72 245 91 197 72 219 b 95 275 72 265 79 275 b 131 262 107 275 119 271 b 161 292 137 282 147 292 b 189 266 180 292 189 283 b 128 177 189 231 168 202 z "},"?":{"ha":454,"x_min":0,"x_max":0,"o":"m 233 298 b 290 338 268 298 287 311 b 359 500 298 394 321 448 b 480 754 440 610 480 694 b 456 858 480 795 472 830 b 213 993 406 948 324 993 b 43 963 136 993 79 983 b -62 852 -27 923 -62 886 b -20 778 -62 833 -48 808 b 65 711 22 733 50 711 b 90 719 76 711 84 713 b 228 800 142 773 188 800 b 274 757 258 800 274 786 b 252 692 274 734 267 713 b 114 353 160 565 114 452 b 119 334 114 349 116 342 b 184 298 128 310 150 298 z m 154 198 b 102 136 119 198 102 177 l 102 62 b 154 0 102 21 119 0 l 246 0 b 298 62 281 0 298 21 l 298 136 b 246 198 298 177 281 198 z m 201 62 b 159 104 173 74 159 88 b 176 123 159 117 165 123 b 203 115 185 123 194 121 b 224 134 204 127 212 134 b 245 111 238 134 245 126 b 201 62 245 88 230 72 z m 73 791 b 11 872 31 807 11 834 b 39 909 11 897 20 909 b 70 878 58 909 68 899 b 106 892 81 887 94 892 b 130 861 122 892 130 882 b 73 791 130 834 111 810 z "},"@":{"ha":1077,"x_min":0,"x_max":0,"o":"m 527 194 b 408 351 448 225 408 277 b 471 422 408 398 429 422 b 522 363 501 422 519 402 b 593 389 545 380 569 389 b 639 330 623 389 639 370 b 527 194 639 278 602 233 z m 451 -186 b 578 -134 536 -186 578 -169 l 578 -91 b 541 -50 578 -64 566 -50 b 505 -56 537 -50 526 -52 b 462 -61 484 -59 469 -61 b 294 -10 401 -61 345 -44 b 158 308 203 50 158 157 b 297 607 158 427 204 526 b 557 704 370 671 456 704 b 686 680 607 704 650 696 b 915 302 839 614 915 488 b 874 121 915 231 901 171 b 772 48 848 73 813 48 b 744 90 753 48 744 62 b 762 288 744 110 750 176 b 781 483 775 401 781 466 b 772 507 781 494 779 502 b 582 576 716 553 652 576 b 425 534 517 576 465 562 b 284 279 331 469 284 384 b 351 104 284 210 307 152 b 506 42 390 63 441 42 b 580 58 528 42 553 47 b 768 -71 612 -28 675 -71 b 965 29 844 -71 910 -37 b 1048 297 1020 96 1048 185 b 914 672 1048 450 1003 574 b 570 829 819 777 705 829 b 321 779 467 829 384 812 b 25 297 123 675 25 515 b 84 52 25 201 45 119 b 451 -186 177 -106 299 -186 z "},"A":{"ha":668,"x_min":0,"x_max":0,"o":"m 620 -14 b 669 41 652 -14 669 5 b 452 903 669 56 597 343 b 408 960 443 941 428 960 l 267 960 b 216 898 243 960 226 939 b 7 38 77 334 7 47 b 56 -14 7 3 23 -14 l 118 -14 b 165 24 138 -14 154 -1 b 202 163 178 52 190 98 l 433 163 b 460 45 445 102 454 63 b 517 -14 473 6 492 -14 z m 338 300 b 221 456 260 331 221 383 b 275 525 221 502 239 525 b 334 467 304 525 323 506 b 403 493 356 484 379 493 b 448 434 433 493 448 473 b 338 300 448 383 412 338 z "},"B":{"ha":712,"x_min":0,"x_max":0,"o":"m 389 -16 b 599 66 465 -16 534 12 b 692 271 661 121 692 189 b 665 407 692 325 684 370 b 530 540 637 466 593 511 b 627 743 595 596 627 664 b 572 890 627 800 609 849 b 389 966 526 941 465 966 b 250 933 336 966 290 955 b 201 974 241 960 225 974 l 128 974 b 77 930 94 974 77 960 l 63 49 b 117 0 63 16 81 0 l 207 0 b 245 11 222 0 235 3 b 389 -16 288 -7 336 -16 z m 385 650 b 297 758 326 681 297 717 b 334 805 297 789 309 805 b 389 785 352 805 371 798 b 437 831 393 815 408 831 b 479 775 465 831 479 812 b 385 650 479 716 448 675 z m 406 162 b 286 308 326 203 286 252 b 336 372 286 351 302 372 b 412 345 361 372 387 363 b 475 407 415 386 437 407 b 534 331 514 407 534 382 b 406 162 534 252 491 195 z "},"C":{"ha":691,"x_min":0,"x_max":0,"o":"m 356 -27 b 606 87 461 -27 544 11 b 665 217 646 139 665 182 b 612 279 665 258 648 279 l 467 279 b 418 244 437 279 421 268 b 367 155 412 184 395 155 b 291 217 340 155 315 176 b 245 429 260 272 245 342 b 271 640 245 507 254 578 b 334 719 288 692 309 719 b 386 662 367 719 384 700 b 459 586 389 611 414 586 l 611 586 b 663 632 646 586 663 602 b 641 768 663 690 655 734 b 356 979 579 909 484 979 b 177 901 285 979 225 953 b 31 456 79 790 31 642 b 55 241 31 374 39 302 b 356 -27 106 62 206 -27 z m 507 640 b 425 740 452 669 425 702 b 458 784 425 769 436 784 b 511 765 476 784 494 778 b 554 808 513 793 528 808 b 594 756 581 808 594 791 b 507 640 594 702 565 663 z "},"D":{"ha":678,"x_min":0,"x_max":0,"o":"m 215 0 b 256 22 232 0 245 7 b 351 8 283 13 315 8 b 475 49 399 8 441 22 b 646 488 589 137 646 283 b 547 823 646 608 613 720 b 315 966 485 918 408 966 b 245 947 300 966 277 960 b 207 974 235 965 222 974 l 128 974 b 77 914 94 974 77 954 l 66 52 b 117 0 66 17 83 0 z m 378 350 b 235 539 283 387 235 450 b 300 624 235 595 256 624 b 379 549 343 624 370 599 b 456 585 402 573 428 585 b 512 513 494 585 512 561 b 378 350 512 451 467 397 z "},"E":{"ha":539,"x_min":0,"x_max":0,"o":"m 496 -7 b 523 13 514 -7 523 0 l 523 94 b 499 113 523 105 515 111 b 279 123 465 118 391 121 l 277 365 b 437 351 368 355 421 351 b 458 381 452 351 458 361 l 458 549 b 411 581 458 570 443 581 b 274 568 397 581 352 576 l 269 807 l 467 817 b 540 848 515 819 540 829 l 540 907 b 486 940 540 926 522 937 b 121 951 414 946 292 949 b 78 910 93 951 79 938 b 65 64 69 414 65 132 b 122 -7 65 17 84 -7 z m 182 385 b 107 475 132 411 107 441 b 138 516 107 503 117 516 b 185 498 154 516 170 510 b 226 538 188 525 201 538 b 262 490 250 538 262 522 b 182 385 262 441 235 406 z "},"F":{"ha":496,"x_min":0,"x_max":0,"o":"m 241 0 b 293 46 276 0 293 16 b 274 461 293 84 287 222 b 418 448 359 452 407 448 b 442 467 434 448 442 454 l 442 659 b 420 678 442 672 435 678 b 266 665 412 678 360 673 l 258 827 l 477 838 b 524 871 508 839 524 850 l 524 930 b 490 959 524 947 512 957 b 127 974 438 965 317 970 b 76 922 93 974 76 957 l 62 49 b 117 0 62 16 81 0 z m 204 491 b 124 597 151 512 124 547 b 161 644 124 629 136 644 b 201 605 184 644 198 631 b 248 623 216 616 232 623 b 279 582 269 623 279 609 b 204 491 279 547 254 517 z "},"G":{"ha":706,"x_min":0,"x_max":0,"o":"m 574 -103 b 615 -61 599 -103 613 -89 b 656 451 643 264 656 435 b 639 469 656 463 650 469 l 378 472 b 349 429 359 472 349 458 l 349 369 b 376 326 349 340 357 326 b 441 328 401 326 422 326 l 457 159 b 384 106 457 123 433 106 b 264 199 337 106 297 137 b 221 420 235 253 221 327 b 256 625 221 500 233 569 b 346 719 281 688 311 719 b 389 646 375 719 389 694 b 460 586 389 606 413 586 l 612 586 b 663 654 646 586 663 608 b 643 759 663 691 656 726 b 357 979 583 906 488 979 b 118 817 262 979 182 925 b 31 449 60 721 31 598 b 73 187 31 349 45 262 b 349 -27 125 44 218 -27 b 481 3 397 -27 441 -17 b 530 -103 487 -68 503 -103 z m 500 661 b 430 747 454 686 430 714 b 459 785 430 772 439 785 b 504 768 474 785 489 779 b 542 806 506 793 519 806 b 576 761 564 806 576 791 b 500 661 576 714 551 681 z m 545 275 b 470 374 495 294 470 328 b 505 419 470 404 481 419 b 542 382 527 419 540 407 b 587 398 557 393 572 398 b 616 361 606 398 616 386 b 545 275 616 328 592 299 z "},"H":{"ha":713,"x_min":0,"x_max":0,"o":"m 572 0 b 623 38 604 0 621 13 l 665 932 b 615 974 665 960 648 974 l 458 974 b 410 932 426 974 410 960 l 422 578 l 260 583 l 255 930 b 203 974 254 960 237 974 l 130 974 b 77 928 95 974 78 958 l 65 47 b 119 0 65 16 83 0 l 216 0 b 267 47 250 0 267 16 l 262 439 l 431 445 l 446 92 b 501 0 448 31 467 0 z m 541 774 b 465 873 490 793 465 827 b 500 918 465 903 477 918 b 537 881 522 918 535 906 b 582 897 552 892 567 897 b 611 860 602 897 611 885 b 541 774 611 827 587 798 z m 160 43 b 109 106 126 61 109 82 b 130 133 109 124 116 133 b 163 121 141 133 152 129 b 190 148 164 139 173 148 b 215 115 207 148 215 137 b 160 43 215 81 197 58 z "},"I":{"ha":356,"x_min":0,"x_max":0,"o":"m 253 -14 b 307 36 289 -14 307 3 l 267 895 b 215 960 264 939 247 960 l 136 960 b 92 904 109 960 94 941 l 50 33 b 101 -14 50 2 66 -14 z m 178 29 b 107 115 131 54 107 82 b 136 153 107 140 117 153 b 181 136 151 153 166 147 b 219 174 183 161 196 174 b 253 129 241 174 253 159 b 178 29 253 82 228 49 z "},"J":{"ha":537,"x_min":0,"x_max":0,"o":"m 228 -5 b 423 123 313 -5 378 37 b 462 270 444 163 457 212 b 490 914 470 377 479 592 l 490 917 b 437 966 490 949 472 966 l 328 966 b 176 947 293 966 242 960 b 54 890 95 930 54 911 l 54 830 b 120 793 54 809 76 797 b 277 789 156 791 208 789 l 286 271 b 237 174 286 206 270 174 b 190 198 217 174 201 182 b 109 269 158 245 131 269 b 73 255 92 269 80 264 b 0 127 24 189 0 146 b 32 77 0 113 11 96 b 228 -5 92 22 158 -5 z m 378 822 b 323 894 341 836 323 860 b 348 926 323 916 331 926 b 375 899 364 926 373 918 b 408 911 385 907 396 911 b 429 884 422 911 429 903 b 378 822 429 861 412 840 z m 114 76 b 63 138 80 94 63 115 b 84 165 63 157 70 165 b 117 153 95 165 106 161 b 144 180 118 172 127 180 b 169 148 161 180 169 170 b 114 76 169 114 151 90 z "},"K":{"ha":688,"x_min":0,"x_max":0,"o":"m 654 -14 b 708 35 690 -14 708 3 b 655 135 708 44 690 77 b 396 526 607 209 521 339 b 665 933 575 787 665 923 b 640 960 665 951 656 960 l 518 960 b 498 944 512 960 505 955 b 260 564 462 892 383 766 b 255 906 257 734 255 848 b 203 960 255 942 238 960 l 130 960 b 79 917 96 960 79 946 b 65 35 70 390 65 96 b 125 -14 65 3 85 -14 l 214 -14 b 269 33 250 -14 269 2 l 263 334 l 282 355 b 401 68 349 189 389 93 b 477 -14 429 14 455 -14 z m 538 10 b 468 96 492 35 468 63 b 497 134 468 121 477 134 b 542 117 512 134 527 128 b 580 155 544 142 557 155 b 614 110 602 155 614 140 b 538 10 614 63 589 30 z "},"L":{"ha":446,"x_min":0,"x_max":0,"o":"m 167 0 b 388 11 218 0 292 3 b 454 41 432 14 454 24 l 454 103 b 405 136 454 122 438 133 b 259 146 374 139 326 143 b 319 928 299 635 319 896 b 270 974 319 958 302 974 l 113 974 b 61 920 78 974 61 956 l 75 71 b 129 0 75 24 93 0 z m 194 774 b 119 874 144 794 119 827 b 153 919 119 904 130 919 b 191 882 176 919 189 907 b 235 898 205 892 220 898 b 264 861 255 898 264 886 b 194 774 264 827 241 799 z "},"M":{"ha":1023,"x_min":0,"x_max":0,"o":"m 933 -14 b 955 22 947 -14 955 -2 b 958 654 957 269 958 479 b 933 792 958 699 949 745 b 757 930 901 884 843 930 b 567 760 682 930 618 873 b 385 930 532 873 471 930 b 252 836 331 930 287 899 l 250 898 b 198 960 248 939 230 960 l 119 960 b 79 933 92 960 79 951 l 60 35 b 111 -14 60 3 77 -14 l 209 -14 b 263 35 245 -14 263 3 l 255 559 b 334 662 279 627 306 662 b 407 490 375 662 399 605 b 420 33 413 395 418 242 l 420 22 b 442 -14 420 -2 428 -14 l 559 -14 b 578 30 572 -14 578 1 b 581 456 578 161 578 303 b 677 559 607 524 640 559 b 798 304 758 559 798 474 l 798 30 b 827 -14 798 1 808 -14 z m 768 669 b 697 755 721 693 697 722 b 726 792 697 780 707 792 b 771 776 741 792 756 787 b 809 813 773 801 786 813 b 843 768 831 813 843 798 b 768 669 843 722 818 688 z "},"N":{"ha":701,"x_min":0,"x_max":0,"o":"m 608 0 b 628 55 621 0 628 18 b 635 651 630 159 632 357 b 597 842 635 726 623 789 b 435 944 562 910 508 944 b 258 811 369 944 310 900 l 253 895 b 201 974 250 947 232 974 l 128 974 b 77 930 94 974 77 960 l 63 43 b 123 0 63 14 83 0 l 239 0 b 294 44 275 0 294 15 l 269 553 b 361 651 294 618 326 651 b 462 427 421 651 454 576 b 473 33 467 336 471 204 b 500 0 473 11 481 0 z m 439 723 b 368 809 392 747 368 776 b 397 846 368 834 378 846 b 442 830 412 846 427 841 b 480 867 444 855 457 867 b 514 823 503 867 514 852 b 439 723 514 776 489 743 z "},"O":{"ha":846,"x_min":0,"x_max":0,"o":"m 395 -15 b 619 39 496 -15 571 3 b 817 498 751 141 817 294 b 805 614 817 543 812 582 b 414 991 747 865 616 991 b 124 833 305 991 209 939 b 24 485 57 748 24 632 b 119 142 24 356 56 241 b 395 -15 189 37 280 -15 z m 413 298 b 213 532 279 366 213 444 b 296 635 213 601 241 635 b 422 591 338 635 381 621 b 530 692 429 659 465 692 b 627 570 595 692 627 651 b 413 298 627 443 556 352 z "},"P":{"ha":689,"x_min":0,"x_max":0,"o":"m 198 0 b 252 60 234 0 252 20 b 255 396 254 237 255 349 b 377 372 296 380 336 372 b 595 456 460 372 532 400 b 692 673 660 513 692 585 b 595 896 692 763 660 838 b 396 963 545 941 478 963 b 247 941 348 963 298 956 b 222 958 238 952 230 958 l 114 958 b 60 906 78 958 60 941 b 73 79 68 448 73 172 b 130 0 73 26 92 0 z m 355 542 b 233 691 274 585 233 634 b 284 756 233 734 250 756 b 361 728 310 756 336 747 b 427 792 365 770 387 792 b 486 715 467 792 486 766 b 355 542 486 634 443 576 z "},"Q":{"ha":744,"x_min":0,"x_max":0,"o":"m 357 315 b 184 526 242 375 184 445 b 256 618 184 587 208 618 b 366 578 293 618 330 605 b 458 669 372 639 402 669 b 543 559 515 669 543 633 b 357 315 543 445 481 363 z m 538 83 b 707 495 650 175 707 313 b 696 600 707 535 703 570 b 358 939 646 825 533 939 b 107 797 264 939 180 891 b 20 483 50 720 20 615 b 102 174 20 367 47 264 b 341 33 163 79 242 33 b 380 34 355 33 368 33 b 443 -73 389 18 410 -18 b 527 -193 490 -153 517 -193 b 569 -163 531 -193 545 -183 b 663 -68 631 -115 663 -83 b 538 83 663 -60 621 -9 z "},"R":{"ha":708,"x_min":0,"x_max":0,"o":"m 612 -27 b 664 16 647 -27 664 -13 b 640 93 664 32 656 58 b 512 372 616 149 573 241 b 691 656 631 435 691 530 b 585 878 691 745 656 819 b 398 936 536 917 474 936 b 249 914 349 936 298 928 b 205 930 238 925 224 930 l 113 930 b 62 882 79 930 62 914 l 73 57 b 135 -27 73 1 94 -27 l 197 -27 b 252 33 233 -27 252 -7 b 257 369 252 114 254 226 l 333 347 l 447 76 b 524 -27 475 7 501 -27 z m 366 502 b 235 675 279 536 235 594 b 295 752 235 726 255 752 b 360 688 335 752 357 730 b 437 716 386 707 412 716 b 488 651 471 716 488 694 b 366 502 488 594 448 545 z "},"S":{"ha":644,"x_min":0,"x_max":0,"o":"m 344 -16 b 559 63 427 -16 499 10 b 623 220 602 103 623 155 b 610 317 623 252 618 284 b 368 567 587 393 507 477 b 246 735 287 619 246 675 b 303 808 246 784 265 808 b 364 751 339 808 359 789 b 417 689 368 710 386 689 l 550 689 b 602 741 579 689 596 706 b 591 819 602 764 598 791 b 319 993 534 935 444 993 b 125 917 244 993 179 968 b 37 724 66 866 37 802 b 186 491 37 625 87 547 b 420 247 342 405 420 323 b 349 176 420 200 396 176 b 271 214 314 176 288 189 b 219 290 264 265 247 290 l 94 288 b 29 236 51 288 29 271 b 123 54 29 170 60 109 b 344 -16 180 7 254 -16 z m 477 735 b 414 822 435 753 414 783 l 414 833 b 441 865 414 847 423 858 b 474 836 454 865 465 855 b 507 846 477 836 488 839 b 536 817 522 846 532 836 b 477 735 536 783 517 756 z m 165 109 b 105 190 125 130 105 157 b 135 220 109 210 119 220 b 168 209 153 212 164 209 b 200 239 176 229 187 239 b 227 206 218 231 227 220 l 227 195 b 165 109 227 156 206 127 z "},"T":{"ha":559,"x_min":0,"x_max":0,"o":"m 374 -14 b 426 27 409 -14 426 0 b 407 745 426 82 420 321 b 526 750 432 745 472 747 b 597 799 573 754 597 770 l 597 887 b 570 928 597 913 588 927 b 323 945 550 929 468 935 b 68 960 179 955 94 960 b 19 901 35 960 19 941 l 19 777 b 73 723 19 741 37 723 b 222 734 97 723 147 726 l 222 65 b 277 -14 222 13 241 -14 z m 302 760 b 233 845 256 785 233 813 b 261 882 233 870 242 882 b 305 866 276 882 291 877 b 342 903 307 890 320 903 b 376 859 365 903 376 888 b 302 760 376 812 351 780 z "},"U":{"ha":709,"x_min":0,"x_max":0,"o":"m 570 0 b 625 46 606 0 625 16 l 638 928 b 592 974 638 958 623 974 l 459 974 b 408 925 425 974 408 958 l 432 420 b 342 323 405 355 375 323 b 247 449 291 323 259 365 b 226 922 237 531 229 688 b 207 947 226 939 220 947 l 90 947 b 71 930 77 947 71 941 b 60 300 64 532 60 322 b 267 30 60 120 129 30 b 440 165 334 30 392 75 l 443 165 l 448 79 b 503 0 450 26 469 0 z m 241 118 b 166 218 191 138 166 171 b 201 262 166 248 178 262 b 238 225 223 262 236 250 b 283 241 253 236 268 241 b 312 204 302 241 312 229 b 241 118 312 171 288 142 z "},"V":{"ha":723,"x_min":0,"x_max":0,"o":"m 425 -14 b 482 16 457 -14 476 -3 b 756 903 665 581 756 876 b 691 960 756 941 734 960 l 652 960 b 589 933 616 960 595 951 b 417 366 581 907 523 718 l 276 925 b 200 963 266 950 241 963 l 73 963 b 2 909 26 963 2 945 b 303 38 2 898 102 608 b 360 -14 315 3 334 -14 z m 161 765 b 90 851 114 789 90 818 b 119 888 90 876 100 888 b 164 872 134 888 149 883 b 202 909 166 897 179 909 b 236 865 224 909 236 895 b 161 765 236 818 211 785 z "},"W":{"ha":925,"x_min":0,"x_max":0,"o":"m 673 0 b 741 78 705 0 727 26 b 949 920 770 190 840 471 b 951 936 951 926 951 931 b 898 974 951 961 934 974 l 787 974 b 749 949 770 974 757 966 b 570 363 741 935 682 740 b 458 532 526 475 489 532 b 391 461 434 532 412 508 b 347 363 379 436 365 404 b 274 879 304 678 279 850 b 209 974 262 942 240 974 l 60 974 b 8 928 25 974 8 958 b 25 848 8 913 14 886 b 239 95 57 730 128 479 b 307 0 256 32 279 0 l 372 0 b 427 32 401 0 419 11 b 458 182 435 57 446 106 l 461 182 l 480 71 b 540 0 489 24 509 0 z m 145 770 b 70 870 95 790 70 823 b 104 915 70 900 81 915 b 142 878 127 915 140 903 b 186 894 157 888 172 894 b 216 857 206 894 216 882 b 145 770 216 823 192 795 z m 633 68 b 558 168 583 88 558 121 b 593 213 558 198 570 213 b 630 176 615 213 628 201 b 675 192 645 186 660 192 b 704 155 694 192 704 180 b 633 68 704 121 680 93 z "},"X":{"ha":709,"x_min":0,"x_max":0,"o":"m 642 -14 b 696 35 677 -14 696 3 b 495 496 696 50 629 204 b 696 848 602 677 669 795 b 723 920 714 880 723 904 b 671 960 723 947 706 960 l 552 960 b 519 944 536 960 526 955 l 392 719 l 321 876 b 254 960 296 932 273 960 l 56 960 b 9 926 24 960 9 949 b 30 850 9 902 16 877 b 254 467 65 785 140 657 b 31 43 105 197 31 56 b 85 -14 31 5 50 -14 l 167 -14 b 219 26 185 -14 203 -1 b 362 271 244 66 292 147 l 473 87 b 560 -14 514 20 543 -14 z m 186 749 b 115 835 139 773 115 802 b 144 872 115 860 125 872 b 189 856 159 872 174 867 b 227 893 191 881 204 893 b 261 848 250 893 261 878 b 186 749 261 802 236 768 z "},"Y":{"ha":684,"x_min":0,"x_max":0,"o":"m 371 -16 b 470 11 399 -16 433 -7 b 612 323 565 56 612 161 b 625 928 612 351 616 553 b 579 974 625 958 610 974 l 446 974 b 395 925 412 974 395 958 l 419 594 b 330 528 392 550 362 528 b 235 614 278 528 247 556 b 212 922 221 682 214 785 b 193 947 212 939 205 947 l 76 947 b 57 930 63 947 57 941 b 51 745 56 895 54 833 b 47 552 48 656 47 592 b 233 326 47 401 109 326 b 427 419 314 326 378 357 b 429 357 428 397 429 376 b 368 160 429 226 408 160 b 310 185 351 160 331 168 b 227 233 269 217 241 233 b 188 214 211 233 198 227 b 135 119 153 167 135 135 b 182 52 135 100 151 77 b 371 -16 237 7 300 -16 z m 512 793 b 441 880 465 818 441 846 b 471 917 441 905 451 917 b 515 901 486 917 500 911 b 553 938 517 926 530 938 b 587 893 576 938 587 923 b 512 793 587 846 562 813 z m 201 387 b 126 487 151 407 126 440 b 161 532 126 517 138 532 b 198 494 183 532 196 519 b 243 511 213 505 228 511 b 272 473 262 511 272 498 b 201 387 272 440 248 412 z "},"Z":{"ha":626,"x_min":0,"x_max":0,"o":"m 70 0 b 574 3 154 0 322 1 b 602 38 593 3 602 14 l 602 144 b 580 179 602 168 594 179 b 281 127 572 179 472 162 l 490 613 b 618 922 575 805 618 908 b 569 974 618 957 602 974 l 54 974 b 35 955 41 974 35 968 l 35 833 b 64 811 35 819 45 811 b 314 833 81 811 164 819 l 89 244 b 21 49 43 130 21 64 b 70 0 21 16 37 0 z m 456 804 b 395 878 416 825 395 849 b 420 910 395 899 404 910 b 459 896 433 910 446 905 b 491 928 461 917 471 928 b 521 889 511 928 521 915 b 456 804 521 849 499 821 z "},"[":{"ha":366,"x_min":0,"x_max":0,"o":"m 85 1115 b 34 1069 51 1115 34 1099 l 47 -90 b 102 -144 47 -125 66 -144 l 278 -144 b 332 -90 314 -144 332 -125 l 332 -35 b 267 16 332 -1 311 16 l 227 16 l 237 958 l 264 958 b 316 1012 299 958 316 976 l 316 1061 b 264 1115 316 1097 299 1115 z m 153 962 b 94 1040 114 978 94 1004 b 121 1074 94 1063 103 1074 b 150 1046 138 1074 148 1065 b 184 1058 161 1054 173 1058 b 208 1029 200 1058 208 1048 b 153 962 208 1004 189 981 z "},"\\":{"ha":463,"x_min":0,"x_max":0,"o":"m 323 43 b 274 96 290 54 274 71 b 296 119 274 111 281 119 b 321 100 311 119 319 113 b 350 108 330 105 340 108 b 369 88 363 108 369 101 b 323 43 369 71 353 56 z m 376 1 b 429 34 411 1 429 12 b 427 48 429 39 428 43 b 203 952 283 641 210 942 b 165 974 195 966 182 974 l 87 974 b 34 934 52 974 34 960 b 39 901 34 929 36 918 b 243 31 146 408 214 118 b 277 1 249 11 260 1 z "},"]":{"ha":366,"x_min":0,"x_max":0,"o":"m 102 1115 b 50 1061 67 1115 50 1097 l 50 1012 b 102 958 50 976 67 958 l 129 958 l 140 16 l 99 16 b 34 -35 56 16 34 -1 l 34 -90 b 88 -144 34 -125 52 -144 l 264 -144 b 319 -90 300 -144 319 -125 l 332 1069 b 281 1115 332 1099 315 1115 z m 222 970 b 165 1045 184 985 165 1010 b 191 1079 165 1067 174 1079 b 219 1051 208 1079 218 1069 b 253 1063 231 1059 241 1063 b 275 1035 268 1063 275 1054 b 222 970 275 1010 258 988 z "},"^":{"ha":486,"x_min":0,"x_max":0,"o":"m 384 624 b 452 675 429 624 452 641 b 406 772 452 693 437 725 b 333 892 389 798 365 838 b 248 974 302 947 273 974 l 235 974 b 155 894 215 974 189 947 b 72 760 122 840 94 796 b 34 665 47 720 34 688 b 104 624 34 637 58 624 l 137 624 b 202 643 173 624 195 630 l 245 713 l 270 665 b 349 624 283 637 309 624 z m 245 810 b 203 860 217 824 203 841 b 220 882 203 875 209 882 b 247 873 229 882 238 879 b 269 895 248 887 256 895 b 289 868 282 895 289 886 b 245 810 289 840 274 821 z "},"_":{"ha":445,"x_min":0,"x_max":0,"o":"m 351 41 b 80 46 317 41 227 43 b 34 -24 50 46 34 22 l 34 -81 b 85 -144 34 -123 51 -144 b 199 -141 102 -144 140 -143 b 338 -138 259 -139 305 -138 b 411 -76 387 -138 411 -117 l 411 -14 b 351 41 411 22 391 41 z m 124 -100 b 77 -42 92 -83 77 -64 b 96 -17 77 -25 83 -17 b 127 -28 106 -17 117 -20 b 152 -3 128 -11 136 -3 b 176 -33 168 -3 176 -13 b 124 -100 176 -65 159 -87 z "},"`":{"ha":263,"x_min":0,"x_max":0,"o":"m 69 810 b 34 780 45 810 34 800 b 111 661 34 770 60 730 b 138 644 119 650 127 644 l 202 644 b 229 671 220 644 229 653 b 148 799 229 680 202 723 b 121 810 142 806 134 810 z m 104 736 b 77 769 85 745 77 756 b 88 784 77 779 81 784 b 105 778 94 784 100 782 b 120 792 106 787 111 792 b 134 774 129 792 134 786 b 104 736 134 756 123 743 z "},"a":{"ha":594,"x_min":0,"x_max":0,"o":"m 488 3 b 540 49 523 3 540 18 b 531 548 534 322 531 489 b 468 605 531 586 510 605 l 423 605 b 361 583 393 605 372 597 b 271 602 323 596 293 602 b 98 505 205 602 147 570 b 24 279 49 439 24 364 b 77 91 24 206 42 143 b 217 11 111 37 157 11 b 336 68 261 11 301 30 b 391 3 340 24 358 3 z m 237 191 b 132 330 167 218 132 264 b 180 391 132 371 148 391 b 232 340 212 391 229 374 b 294 363 253 355 273 363 b 334 310 321 363 334 345 b 237 191 334 264 302 225 z "},"b":{"ha":615,"x_min":0,"x_max":0,"o":"m 214 -14 b 258 14 233 -14 248 -5 b 358 -3 288 3 322 -3 b 519 96 414 -3 468 30 b 589 312 566 157 589 229 b 547 495 589 386 574 447 b 388 589 512 557 459 589 b 260 505 340 589 297 561 b 255 871 257 648 255 770 b 206 960 255 930 239 960 l 127 960 b 76 898 93 960 76 939 b 65 38 68 355 65 68 b 117 -14 65 3 82 -14 z m 369 202 b 276 315 307 234 276 272 b 315 366 276 349 289 366 b 374 344 334 366 354 358 b 423 393 377 376 393 393 b 469 334 454 393 469 373 b 369 202 469 272 435 228 z "},"c":{"ha":569,"x_min":0,"x_max":0,"o":"m 281 -3 b 479 87 374 -3 439 27 b 542 244 521 149 542 201 b 504 296 542 272 529 289 b 393 307 480 302 444 306 b 347 269 362 307 347 294 b 281 163 347 198 325 163 b 203 300 229 163 203 208 b 287 458 203 406 231 458 b 321 405 309 458 321 441 b 363 382 321 390 335 382 l 479 382 b 534 437 515 382 534 401 b 468 581 534 490 512 538 b 300 643 422 623 367 643 b 100 528 224 643 157 604 b 26 293 51 460 26 382 b 43 182 27 260 33 223 b 281 -3 74 59 153 -3 z m 417 422 b 363 493 381 437 363 460 b 388 525 363 514 372 525 b 414 498 404 525 413 516 b 446 510 425 506 435 510 b 467 484 460 510 467 501 b 417 422 467 460 450 439 z "},"d":{"ha":615,"x_min":0,"x_max":0,"o":"m 497 -14 b 551 33 533 -14 551 2 b 538 906 543 576 538 867 b 486 960 538 942 521 960 l 413 960 b 361 917 378 960 361 946 b 356 570 358 730 356 614 b 275 589 324 583 297 589 b 114 511 215 589 161 563 b 25 258 55 446 25 361 b 84 66 25 184 45 119 b 234 -3 118 20 168 -3 b 348 71 273 -3 311 22 l 348 35 b 408 -14 348 3 368 -14 z m 244 195 b 153 316 183 219 153 260 b 194 370 153 352 166 370 b 240 326 222 370 237 355 b 294 345 258 338 276 345 b 330 299 318 345 330 330 b 244 195 330 260 301 225 z "},"e":{"ha":556,"x_min":0,"x_max":0,"o":"m 277 0 b 478 66 361 0 428 22 b 556 214 530 111 556 161 b 483 266 556 249 532 266 l 418 266 b 358 220 378 266 358 250 b 296 174 358 189 337 174 b 233 203 269 174 249 184 b 269 217 237 203 249 208 b 488 453 415 286 488 364 b 420 576 488 501 466 543 b 274 616 384 603 335 616 b 103 527 210 616 153 586 b 24 290 51 465 24 386 b 86 96 24 216 45 151 b 277 0 133 32 196 0 z m 255 345 b 184 431 208 369 184 397 b 214 468 184 456 194 468 b 258 452 229 468 243 463 b 296 489 260 477 273 489 b 330 444 319 489 330 474 b 255 345 330 397 305 364 z "},"f":{"ha":385,"x_min":0,"x_max":0,"o":"m 234 -14 b 288 33 270 -14 288 2 l 277 439 l 340 439 b 359 467 353 439 359 448 l 359 559 b 329 589 359 578 349 589 b 277 586 319 589 302 588 b 317 777 277 713 291 777 b 332 763 327 777 332 772 b 374 730 332 741 346 730 l 473 730 b 524 776 507 730 524 745 b 460 920 524 829 503 877 b 296 974 422 956 368 974 b 172 911 254 974 212 953 b 96 575 121 858 96 746 l 44 575 b 1 532 15 575 1 561 l 1 483 b 60 450 1 461 20 450 l 87 450 b 85 41 85 253 85 117 b 139 -14 85 5 103 -14 z m 176 441 b 113 519 134 464 113 490 b 140 553 113 541 122 553 b 180 538 153 553 167 548 b 214 571 182 560 193 571 b 245 531 235 571 245 557 b 176 441 245 489 222 459 z "},"g":{"ha":616,"x_min":0,"x_max":0,"o":"m 307 -296 b 406 -269 336 -296 369 -287 b 549 43 501 -223 549 -119 l 549 583 b 484 632 549 616 527 632 l 410 632 b 351 600 381 632 361 621 b 275 616 323 610 298 616 b 92 509 197 616 136 581 b 25 293 47 439 25 367 b 41 182 25 252 31 215 b 223 24 75 77 136 24 b 356 109 272 24 316 52 b 359 16 358 63 359 33 b 304 -119 359 -74 340 -119 b 246 -94 287 -119 267 -111 b 163 -46 205 -62 178 -46 b 124 -66 147 -46 134 -53 b 71 -160 89 -113 71 -144 b 118 -227 71 -180 87 -202 b 307 -296 173 -273 236 -296 z m 237 237 b 149 353 178 260 149 298 b 189 405 149 387 162 405 b 233 361 215 405 230 391 b 284 380 250 374 267 380 b 318 337 307 380 318 366 b 237 237 318 298 291 265 z "},"h":{"ha":631,"x_min":0,"x_max":0,"o":"m 214 0 b 265 52 248 0 265 17 b 262 244 265 144 264 208 b 336 334 288 304 313 334 b 382 296 351 334 366 321 b 425 98 411 249 425 183 b 455 41 425 60 435 41 l 553 41 b 588 76 576 41 588 52 l 588 266 b 385 602 588 490 520 602 b 260 518 338 602 297 574 l 252 920 b 205 974 252 956 236 974 l 127 974 b 75 917 92 974 75 955 b 62 54 72 588 67 300 b 116 0 62 18 80 0 z m 401 393 b 338 471 359 416 338 441 b 364 505 338 493 347 505 b 404 490 378 505 391 500 b 438 524 406 513 418 524 b 469 484 459 524 469 510 b 401 393 469 441 446 412 z "},"i":{"ha":308,"x_min":0,"x_max":0,"o":"m 202 3 l 104 3 b 52 41 69 3 52 16 l 64 410 b 134 459 65 443 89 459 l 178 459 b 244 393 221 459 243 437 l 253 34 b 202 3 253 13 236 3 z m 161 61 b 214 126 197 79 214 101 b 193 155 214 145 207 155 b 159 142 181 155 170 151 b 130 170 157 161 147 170 b 104 136 113 170 104 159 b 161 61 104 101 123 76 z m 161 501 b 259 621 227 535 259 575 b 218 673 259 656 245 673 b 156 651 197 673 177 666 b 104 703 153 686 136 703 b 56 640 72 703 56 682 b 161 501 56 575 91 529 z "},"j":{"ha":331,"x_min":0,"x_max":0,"o":"m 131 618 l 204 618 b 269 567 248 618 269 602 b 248 -47 266 254 258 49 b 177 -235 241 -124 217 -186 b 31 -309 135 -284 86 -309 b -121 -270 -25 -309 -75 -296 b -208 -171 -179 -233 -208 -200 b -180 -106 -208 -158 -199 -136 b -116 -60 -161 -75 -140 -60 b -26 -114 -96 -60 -66 -78 b 28 -133 -12 -127 5 -133 b 79 -8 62 -133 79 -92 l 66 570 b 131 618 66 602 87 618 z m -107 -220 b -61 -159 -77 -208 -61 -188 b -82 -132 -61 -141 -68 -132 b -105 -155 -96 -132 -104 -139 b -133 -144 -114 -148 -123 -144 b -151 -168 -144 -144 -151 -152 b -107 -220 -151 -188 -136 -205 z m 160 664 b 247 779 218 686 247 725 b 208 829 247 812 234 829 b 164 787 181 829 167 815 b 113 806 147 800 130 806 b 79 763 90 806 79 792 b 160 664 79 725 106 692 z "},"k":{"ha":625,"x_min":0,"x_max":0,"o":"m 601 -20 b 655 20 637 -20 655 -7 b 627 93 655 39 646 63 b 387 444 589 151 509 268 l 433 506 b 543 653 489 578 526 627 b 555 680 551 665 555 673 b 530 704 555 696 547 704 l 434 704 b 395 680 421 704 408 696 b 259 495 370 649 324 587 b 254 910 259 606 257 744 b 202 954 254 939 237 954 l 129 954 b 77 902 94 954 77 937 b 64 26 77 861 73 569 b 118 -20 64 -5 82 -20 l 208 -20 b 267 26 248 -20 267 -5 b 264 281 267 58 267 143 l 343 83 b 411 -20 370 14 392 -20 z m 481 19 b 417 98 439 41 417 68 b 444 132 417 121 426 132 b 485 117 458 132 471 127 b 519 151 487 140 498 151 b 551 111 541 151 551 138 b 481 19 551 68 528 37 z "},"l":{"ha":407,"x_min":0,"x_max":0,"o":"m 107 974 b 56 922 73 974 56 957 b 69 62 56 902 60 615 b 123 0 69 21 87 0 b 278 5 184 0 235 2 b 406 46 363 12 406 25 l 406 117 b 254 144 406 135 355 144 b 313 925 294 644 313 904 b 267 974 313 958 298 974 z m 180 791 b 121 863 140 812 121 836 b 145 895 121 884 129 895 b 182 881 158 895 170 890 b 214 912 184 902 195 912 b 243 875 233 912 243 900 b 180 791 243 836 222 808 z "},"m":{"ha":906,"x_min":0,"x_max":0,"o":"m 635 629 b 496 540 578 629 532 600 b 358 602 465 581 418 602 b 250 540 321 602 284 581 b 184 618 250 592 228 618 l 138 618 b 71 559 93 618 71 599 l 60 123 l 60 54 b 111 3 60 20 77 3 l 209 3 b 260 49 243 3 260 18 b 255 285 260 117 258 196 b 309 334 277 317 295 334 b 355 298 323 334 339 321 b 399 81 384 252 399 180 l 399 71 b 429 27 399 41 409 27 l 526 27 b 553 57 545 27 553 37 b 558 266 555 168 556 237 b 586 309 560 295 570 309 b 648 52 621 309 641 223 b 700 0 650 17 667 0 l 803 0 b 854 50 831 0 848 16 b 863 266 860 88 863 160 b 635 629 863 508 787 629 z m 673 393 b 597 492 623 412 597 446 b 632 537 597 522 609 537 b 669 500 654 537 667 525 b 714 516 684 511 699 516 b 743 479 734 516 743 504 b 673 393 743 446 720 417 z "},"n":{"ha":652,"x_min":0,"x_max":0,"o":"m 207 16 b 258 71 241 16 258 35 l 258 198 b 356 347 290 298 323 347 b 446 76 416 347 446 257 b 475 41 446 52 456 41 l 573 41 b 603 79 593 41 603 54 b 608 277 603 96 605 162 l 608 300 b 405 616 608 511 541 616 b 250 475 345 616 293 569 b 248 567 248 502 248 532 b 182 632 248 610 226 632 l 136 632 b 71 554 93 632 71 606 b 58 65 71 475 62 303 b 109 16 58 33 75 16 z m 420 424 b 359 497 380 445 359 469 b 385 530 359 519 368 530 b 422 515 397 530 410 525 b 455 547 425 536 435 547 b 484 509 475 547 484 534 b 420 424 484 469 463 441 z "},"o":{"ha":626,"x_min":0,"x_max":0,"o":"m 322 621 b 96 518 235 621 159 587 b 22 315 47 463 22 395 b 86 113 22 241 43 174 b 307 -8 144 32 217 -8 b 537 109 398 -8 475 31 b 604 304 581 164 604 229 b 551 486 604 371 586 432 b 322 621 492 576 416 621 z m 315 192 b 211 319 245 228 211 271 b 254 375 211 356 225 375 b 320 351 277 375 298 367 b 376 406 323 387 342 406 b 427 339 410 406 427 383 b 315 192 427 270 390 221 z "},"p":{"ha":616,"x_min":0,"x_max":0,"o":"m 218 -316 b 264 -273 249 -316 264 -302 b 259 72 264 -212 262 -97 b 338 56 292 61 319 56 b 509 146 403 56 460 85 b 587 380 562 209 587 287 b 571 492 587 423 582 460 b 389 647 537 595 477 647 b 251 552 337 647 291 615 l 251 604 b 197 658 251 640 233 658 l 129 658 b 75 612 93 658 75 642 l 61 -270 b 113 -316 61 -300 78 -316 z m 358 256 b 266 368 296 288 266 326 b 304 418 266 401 279 418 b 362 397 323 418 343 411 b 412 445 366 429 382 445 b 456 387 441 445 456 425 b 358 256 456 326 424 282 z "},"q":{"ha":606,"x_min":0,"x_max":0,"o":"m 416 624 b 367 591 395 624 379 613 b 283 613 333 606 305 613 b 76 485 198 613 129 570 b 25 288 42 429 25 363 b 71 112 25 222 41 164 b 226 22 106 52 158 22 b 353 103 273 22 316 49 b 348 -304 353 32 351 -104 b 399 -350 348 -334 365 -350 l 505 -350 b 551 -307 536 -350 551 -336 b 538 578 551 -262 547 32 b 484 624 538 608 519 624 z m 252 235 b 155 362 187 260 155 302 b 199 419 155 400 170 419 b 247 372 228 419 244 404 b 304 393 266 386 285 393 b 341 345 329 393 341 376 b 252 235 341 303 311 267 z "},"r":{"ha":608,"x_min":0,"x_max":0,"o":"m 208 0 b 262 46 243 0 262 16 l 256 258 b 346 505 286 422 315 505 b 370 464 362 505 370 491 b 392 420 370 435 378 420 l 566 420 b 593 448 584 420 593 429 b 566 608 593 508 584 561 b 400 711 541 676 486 711 b 245 582 336 711 285 668 b 183 618 241 606 220 618 l 137 618 b 73 548 97 618 76 595 b 58 49 68 476 63 310 b 118 0 58 16 78 0 z m 473 460 b 420 526 437 479 420 500 b 442 554 420 545 427 554 b 475 542 454 554 465 550 b 504 570 477 560 487 570 b 530 536 522 570 530 558 b 473 460 530 500 511 475 z "},"s":{"ha":584,"x_min":0,"x_max":0,"o":"m 283 -16 b 470 31 355 -16 417 -1 b 552 168 525 64 552 111 b 452 304 552 231 519 276 b 270 437 330 353 270 398 b 302 480 270 466 281 480 b 330 423 321 480 330 461 b 406 385 330 398 355 385 l 471 385 b 552 442 525 385 552 404 b 490 563 552 484 531 524 b 283 629 439 607 370 629 b 120 576 228 629 174 612 b 42 434 68 540 42 492 b 159 285 42 369 81 319 b 327 174 271 235 327 199 b 303 146 327 155 319 146 b 229 184 270 146 245 159 b 170 231 210 215 191 231 l 80 231 b 26 157 44 231 26 206 b 75 68 26 132 42 102 b 283 -16 130 12 200 -16 z m 439 429 b 390 488 406 446 390 465 b 410 514 390 505 397 514 b 441 503 420 514 431 510 b 467 528 443 519 452 528 b 491 497 483 528 491 518 b 439 429 491 465 473 442 z m 133 98 b 84 157 100 115 84 135 b 104 184 84 175 91 184 b 135 172 115 184 125 180 b 161 198 137 189 146 198 b 185 167 177 198 185 188 b 133 98 185 135 168 112 z "},"t":{"ha":505,"x_min":0,"x_max":0,"o":"m 292 0 b 347 76 324 0 342 25 b 370 448 353 138 360 262 l 461 446 b 479 477 473 446 479 456 l 479 559 b 450 593 479 582 469 593 l 378 591 l 388 787 b 321 849 388 828 366 849 l 194 849 b 136 806 155 849 136 835 l 145 583 l 64 581 b 20 551 35 581 20 570 l 20 491 b 64 456 20 469 35 458 b 151 453 93 456 121 454 l 168 98 b 224 0 172 33 190 0 z m 256 658 b 186 744 210 682 186 711 b 215 781 186 769 195 781 b 260 765 230 781 245 776 b 298 802 262 790 275 802 b 332 758 320 802 332 787 b 256 658 332 711 307 677 z "},"u":{"ha":654,"x_min":0,"x_max":0,"o":"m 525 3 b 585 75 562 3 582 27 b 598 570 589 149 593 314 b 536 618 598 602 577 618 l 460 618 b 397 564 418 618 397 600 b 389 442 397 509 395 469 b 300 288 366 339 336 288 b 240 353 276 288 256 309 b 210 559 220 403 210 471 b 175 594 210 583 199 594 l 96 594 b 53 559 67 594 53 583 b 50 460 53 545 52 511 b 47 345 47 408 47 370 b 53 247 47 307 49 274 b 240 19 76 95 138 19 b 406 160 309 19 364 66 b 408 65 408 130 408 98 b 463 3 408 24 427 3 z m 216 88 b 155 163 175 109 155 134 b 180 196 155 185 163 196 b 219 182 193 196 206 191 b 252 214 221 203 233 214 b 282 175 272 214 282 201 b 216 88 282 134 260 105 z "},"v":{"ha":634,"x_min":0,"x_max":0,"o":"m 62 618 b 0 564 21 618 0 600 b 247 54 0 553 82 383 b 320 -11 269 11 294 -11 l 385 -11 b 441 39 408 -11 427 5 b 540 307 460 85 493 174 b 629 564 600 463 629 549 b 567 618 629 600 608 618 l 491 618 b 429 586 457 618 436 608 l 347 369 l 274 581 b 209 618 264 606 243 618 z m 172 393 b 94 489 119 420 94 452 b 126 530 94 517 104 530 b 176 513 143 530 159 524 b 218 553 178 540 193 553 b 256 504 243 553 256 537 b 172 393 256 452 228 415 z "},"w":{"ha":818,"x_min":0,"x_max":0,"o":"m 618 0 b 673 27 648 0 667 9 b 787 506 682 54 720 214 b 805 589 799 555 805 583 b 738 629 805 616 783 629 l 662 629 b 600 600 627 629 607 619 l 513 361 l 467 471 b 404 532 452 511 431 532 b 340 469 380 532 359 511 b 293 363 327 443 311 408 l 271 545 b 201 629 264 602 241 629 l 57 629 b 5 578 22 629 5 612 b 198 41 5 566 70 387 b 258 0 209 14 229 0 l 317 0 b 376 47 347 0 367 16 b 404 184 385 76 394 121 l 423 98 b 491 0 439 33 461 0 z m 154 459 b 98 528 117 479 98 501 b 121 558 98 548 105 558 b 157 545 133 558 145 553 b 186 574 159 564 168 574 b 214 538 205 574 214 562 b 154 459 214 501 194 475 z "},"x":{"ha":659,"x_min":0,"x_max":0,"o":"m 62 602 b -1 553 20 602 -1 586 b 37 481 -1 536 12 513 b 219 247 73 434 134 356 b 67 18 118 116 67 40 b 121 -27 67 -12 85 -27 l 196 -27 b 251 3 214 -27 233 -17 b 330 106 271 25 298 59 b 460 -27 394 17 437 -27 l 542 -27 b 596 24 578 -27 596 -10 b 463 271 596 43 552 125 l 583 423 b 667 548 639 492 667 534 b 602 602 667 584 645 602 l 526 602 b 472 574 507 602 489 593 b 368 442 444 544 410 500 l 303 551 b 235 602 283 585 260 602 z m 196 406 b 121 506 146 426 121 459 b 155 551 121 536 132 551 b 193 513 178 551 191 538 b 237 530 208 524 222 530 b 267 492 257 530 267 517 b 196 406 267 459 243 431 z "},"y":{"ha":636,"x_min":0,"x_max":0,"o":"m 313 -309 b 435 -279 355 -309 396 -299 b 561 -41 511 -241 553 -161 b 575 568 567 57 572 260 b 511 618 575 602 553 618 l 437 618 b 372 570 394 618 372 602 b 378 393 372 521 378 451 b 296 296 378 328 351 296 b 228 347 262 296 239 313 b 212 545 218 382 212 448 b 177 602 212 583 201 602 l 90 602 b 50 578 63 602 50 594 l 50 347 b 220 27 50 134 106 27 b 383 122 292 27 347 59 l 385 -7 b 334 -133 385 -91 368 -133 b 241 -81 320 -133 289 -115 b 199 -60 221 -66 208 -60 b 134 -95 172 -60 151 -71 b 98 -171 110 -130 98 -155 b 145 -242 98 -196 117 -218 b 313 -309 197 -287 253 -309 z m 469 472 b 417 534 434 490 417 511 b 438 562 417 553 424 562 b 471 550 450 562 460 558 b 498 577 473 568 481 577 b 524 545 515 577 524 566 b 469 472 524 511 505 486 z m 216 88 b 155 163 175 109 155 134 b 180 196 155 185 163 196 b 219 182 193 196 206 191 b 252 214 221 203 233 214 b 282 175 272 214 282 201 b 216 88 282 134 260 105 z "},"z":{"ha":618,"x_min":0,"x_max":0,"o":"m 544 -20 b 563 -1 557 -20 563 -14 l 563 115 b 536 142 563 134 554 142 b 286 121 383 128 300 121 l 530 435 b 623 582 592 511 623 559 b 557 623 623 609 601 623 l 66 623 b 37 587 47 623 37 611 l 37 495 b 58 460 37 471 43 460 l 262 479 b 23 44 102 207 23 62 b 92 -6 23 11 46 -6 b 544 -20 159 -11 310 -16 z m 414 428 b 343 514 367 452 343 481 b 372 551 343 539 353 551 b 417 535 387 551 402 546 b 455 572 419 560 432 572 b 489 528 477 572 489 557 b 414 428 489 481 464 448 z "},"{":{"ha":437,"x_min":0,"x_max":0,"o":"m 346 -144 b 403 -96 384 -144 403 -128 l 403 -33 b 338 16 403 0 381 16 b 294 46 309 16 294 26 b 312 181 294 71 300 116 b 330 317 323 247 330 292 b 273 483 330 386 311 441 l 273 486 b 330 654 311 535 330 591 b 313 787 330 668 324 713 b 294 928 300 864 294 911 b 321 955 294 946 303 955 b 403 1028 376 955 403 979 l 403 1047 b 351 1115 403 1093 386 1115 b 227 1099 294 1115 252 1109 b 96 892 140 1062 96 994 b 106 807 96 876 100 847 b 134 608 125 682 134 616 b 121 567 134 581 130 567 b 34 494 63 567 34 543 l 34 475 b 99 410 34 431 56 410 b 134 373 123 410 134 397 b 124 289 134 352 131 324 b 96 76 106 204 96 133 b 113 -14 96 47 102 17 b 346 -144 146 -100 223 -144 z m 204 27 b 153 95 170 41 153 63 b 176 125 153 115 161 125 b 202 100 192 125 201 117 b 233 111 212 108 222 111 b 252 85 245 111 252 102 b 204 27 252 63 236 44 z m 196 847 b 149 905 164 864 149 883 b 168 931 149 922 155 931 b 199 920 178 931 189 928 b 224 945 200 937 209 945 b 248 915 240 945 248 935 b 196 847 248 883 231 861 z "},"|":{"ha":271,"x_min":0,"x_max":0,"o":"m 80 1115 b 34 1072 50 1115 34 1101 b 47 -98 34 988 39 598 b 102 -144 47 -128 66 -144 l 170 -144 b 224 -92 205 -144 224 -127 l 237 1069 b 186 1115 237 1099 220 1115 z m 127 953 b 76 1021 93 966 76 989 b 99 1050 76 1040 83 1050 b 125 1026 115 1050 123 1042 b 155 1037 135 1034 145 1037 b 175 1011 168 1037 175 1028 b 127 953 175 989 159 970 z "},"}":{"ha":437,"x_min":0,"x_max":0,"o":"m 91 -144 b 324 -14 214 -144 291 -100 b 340 76 335 17 340 47 b 313 289 340 133 331 204 b 302 373 306 324 302 352 b 338 410 302 397 314 410 b 403 475 381 410 403 431 l 403 494 b 316 567 403 543 374 567 b 302 608 307 567 302 581 b 330 807 302 616 312 682 b 340 892 337 847 340 876 b 210 1099 340 994 297 1062 b 85 1115 185 1109 143 1115 b 34 1047 51 1115 34 1093 l 34 1028 b 115 955 34 979 61 955 b 142 928 134 955 142 946 b 123 787 142 911 136 864 b 107 654 113 713 107 668 b 164 486 107 591 126 535 l 164 483 b 107 317 126 441 107 386 b 125 181 107 292 113 247 b 142 46 136 116 142 71 b 99 16 142 26 128 16 b 34 -33 56 16 34 0 l 34 -96 b 91 -144 34 -128 53 -144 z m 243 836 b 195 901 211 849 195 870 b 217 929 195 920 202 929 b 241 905 231 929 239 921 b 270 916 251 913 260 916 b 289 892 283 916 289 908 b 243 836 289 871 274 852 z m 231 63 b 186 119 201 79 186 98 b 205 143 186 135 192 143 b 233 132 214 143 224 140 b 258 156 235 148 243 156 b 280 127 273 156 280 146 b 231 63 280 97 264 76 z "},"~":{"ha":525,"x_min":0,"x_max":0,"o":"m 434 643 b 382 621 399 643 382 635 b 350 532 382 562 372 532 b 285 579 344 532 317 555 b 176 632 238 614 202 632 b 92 610 144 632 116 625 b 34 484 54 586 34 544 b 38 391 34 460 35 429 b 84 334 41 353 57 334 l 103 334 b 141 358 123 334 136 342 b 190 434 157 409 173 434 b 257 392 212 434 238 409 b 372 331 301 351 340 331 b 491 501 451 331 491 388 l 491 564 b 434 643 491 616 472 643 z m 382 387 b 347 435 359 397 347 412 b 363 456 347 449 352 456 b 381 439 374 456 380 450 b 402 446 388 444 395 446 b 416 429 411 446 416 440 b 382 387 416 413 405 399 z "},"¡":{"ha":271,"x_min":0,"x_max":0,"o":"m 139 -277 b 79 -198 99 -261 79 -235 b 106 -163 79 -174 88 -163 b 136 -192 125 -163 134 -172 b 172 -179 148 -183 160 -179 b 195 -209 187 -179 195 -189 b 139 -277 195 -235 176 -257 z m 136 483 b 90 545 105 495 90 516 b 111 573 90 564 97 573 b 134 550 125 573 133 566 b 162 560 143 557 153 560 b 180 536 174 560 180 552 b 136 483 180 516 165 498 z m 110 331 b 47 279 68 331 47 314 l 34 -298 b 85 -345 34 -329 51 -345 l 191 -345 b 237 -301 222 -345 237 -330 l 224 282 b 153 331 224 315 200 331 z m 88 629 b 34 575 52 629 34 611 l 34 486 b 88 431 34 450 52 431 l 183 431 b 235 486 218 431 235 450 l 235 564 b 180 629 235 608 216 629 z "},"¢":{"ha":690,"x_min":0,"x_max":0,"o":"m 539 422 b 486 493 503 437 486 460 b 510 525 486 514 494 525 b 536 498 526 525 535 516 b 568 510 547 506 557 510 b 589 484 583 510 589 501 b 539 422 589 460 572 439 z m 315 71 b 269 116 284 84 269 99 b 288 136 269 129 275 136 b 317 127 298 136 307 133 b 341 146 318 140 326 146 b 363 123 356 146 363 139 b 315 71 363 99 347 81 z m 330 237 b 325 300 327 255 325 276 b 409 458 325 406 353 458 b 431 450 418 458 425 456 b 330 237 402 389 369 319 z m 393 163 b 494 382 422 224 456 298 l 602 382 b 656 437 637 382 656 401 b 590 581 656 490 634 538 b 586 585 589 582 587 583 b 612 642 595 604 604 623 b 627 688 622 663 627 679 b 611 710 627 699 621 707 b 572 722 586 718 573 722 b 555 709 566 722 560 718 b 515 627 553 707 539 680 b 422 643 487 637 456 643 b 222 528 347 643 279 604 b 149 293 173 460 149 382 b 165 182 149 260 155 223 b 242 48 180 123 205 79 b 213 -14 233 28 223 7 b 206 -38 208 -24 206 -32 b 222 -60 206 -49 212 -56 l 269 -75 b 290 -54 275 -75 282 -68 b 320 7 297 -40 307 -20 b 404 -3 345 1 373 -3 b 602 87 496 -3 562 27 b 664 244 643 149 664 201 b 626 296 664 272 651 289 b 515 307 602 302 566 306 b 469 269 484 307 469 294 b 404 163 469 198 447 163 b 393 163 400 163 397 163 z "},"£":{"ha":651,"x_min":0,"x_max":0,"o":"m 85 -14 b 503 14 201 -14 341 -5 b 617 73 579 22 617 41 l 617 136 b 563 190 617 172 599 190 b 479 179 539 190 511 186 b 378 168 448 172 414 168 b 259 174 340 168 300 170 b 321 315 284 245 305 292 l 392 315 b 460 388 437 315 460 339 l 460 454 b 392 489 460 473 437 485 l 335 494 b 259 735 284 574 259 655 b 311 803 259 781 276 803 b 397 760 349 803 378 789 b 460 708 421 725 442 708 b 500 724 475 708 488 713 b 579 822 553 770 579 802 b 557 875 579 837 572 854 b 319 993 498 954 419 993 b 142 937 254 993 195 974 b 53 760 83 894 53 835 b 123 499 53 675 77 589 l 110 499 b 56 439 74 499 56 479 l 56 369 b 113 309 56 329 75 309 b 34 41 60 203 34 114 b 85 -14 34 5 51 -14 z m 240 358 b 181 435 201 374 181 399 b 208 470 181 458 190 470 b 237 441 226 470 235 460 b 272 454 249 450 260 454 b 294 425 287 454 294 445 b 240 358 294 399 276 377 z "},"¥":{"ha":727,"x_min":0,"x_max":0,"o":"m 395 0 b 454 52 431 0 450 17 b 457 152 456 68 457 102 b 541 155 485 153 513 154 b 582 222 568 155 582 178 l 582 258 b 528 328 582 304 564 328 l 479 328 l 465 331 l 465 366 l 526 366 b 582 437 564 366 582 390 l 582 472 b 533 543 582 519 566 543 b 693 920 640 781 693 907 b 642 974 693 956 676 974 l 530 974 b 492 949 512 974 500 966 l 362 659 l 281 841 b 194 974 243 930 215 974 l 80 974 b 34 922 50 974 34 957 b 194 551 34 907 87 783 b 151 496 165 537 151 519 l 151 418 b 202 361 151 380 168 361 l 267 361 l 267 334 l 208 334 b 151 282 170 334 151 317 l 151 198 b 197 146 151 163 166 146 l 275 146 l 275 84 b 338 0 275 28 296 0 z m 364 407 b 305 484 325 422 305 448 b 332 519 305 507 314 519 b 361 490 350 519 359 509 b 396 503 373 499 385 503 b 418 474 411 503 418 494 b 364 407 418 448 400 426 z "},"¦":{"ha":271,"x_min":0,"x_max":0,"o":"m 80 974 b 34 955 50 974 34 968 b 47 452 34 919 39 751 b 102 433 47 439 66 433 l 170 433 b 224 455 205 433 224 440 l 237 954 b 186 974 237 967 220 974 z m 127 904 b 76 933 93 910 76 920 b 99 946 76 942 83 946 b 125 936 115 946 123 943 b 155 940 135 939 145 940 b 175 929 168 940 175 937 b 127 904 175 920 159 911 z m 80 191 b 34 172 50 191 34 185 b 47 -330 34 136 39 -31 b 102 -350 47 -343 66 -350 l 170 -350 b 224 -328 205 -350 224 -342 l 237 172 b 186 191 237 184 220 191 z m 127 121 b 76 151 93 127 76 137 b 99 163 76 159 83 163 b 125 153 115 163 123 160 b 155 157 135 156 145 157 b 175 146 168 157 175 154 b 127 121 175 137 159 129 z "},"§":{"ha":586,"x_min":0,"x_max":0,"o":"m 191 296 b 330 171 283 239 330 198 b 294 146 330 155 318 146 b 245 183 270 146 254 159 b 228 240 238 208 232 227 b 134 290 216 273 185 290 b 34 233 67 290 34 271 b 98 77 34 180 55 127 b 319 -16 150 15 223 -16 b 470 31 368 -16 418 -1 b 552 155 525 65 552 106 b 460 328 552 223 522 281 b 552 461 522 370 552 414 b 433 656 552 548 512 613 b 273 800 326 713 273 761 b 313 836 273 824 286 836 b 370 789 347 836 366 820 b 427 716 378 741 397 716 l 487 716 b 538 768 522 716 538 733 b 480 913 538 820 519 869 b 289 987 434 962 370 987 b 126 941 229 987 174 972 b 45 795 72 907 45 858 b 134 640 45 737 75 686 b 45 483 75 593 45 541 b 191 296 45 416 94 353 z m 254 491 b 292 529 254 516 267 529 b 332 491 319 529 332 516 b 292 453 332 466 319 453 b 254 491 267 453 254 466 z m 168 760 b 119 819 136 777 119 797 b 139 845 119 836 126 845 b 170 833 149 845 159 841 b 195 859 172 850 180 859 b 219 829 211 859 219 848 b 168 760 219 797 202 774 z m 446 106 b 394 174 411 119 394 142 b 418 204 394 194 402 204 b 444 179 433 204 441 196 b 474 191 454 186 464 191 b 494 165 487 191 494 182 b 446 106 494 142 477 123 z "},"¨":{"ha":467,"x_min":0,"x_max":0,"o":"m 117 696 b 82 733 94 707 82 719 b 97 749 82 744 87 749 b 119 742 104 749 111 747 b 138 758 120 752 126 758 b 155 739 149 758 155 751 b 117 696 155 720 142 705 z m 77 812 b 34 760 48 812 34 795 l 34 697 b 77 644 34 662 48 644 l 156 644 b 199 697 185 644 199 662 l 199 760 b 156 812 199 795 185 812 z m 311 812 b 267 760 281 812 267 795 l 267 697 b 311 644 267 662 281 644 l 389 644 b 433 697 418 644 433 662 l 433 760 b 389 812 433 795 418 812 z m 351 696 b 315 733 327 707 315 719 b 330 749 315 744 320 749 b 352 742 338 749 345 747 b 371 758 353 752 359 758 b 388 739 382 758 388 751 b 351 696 388 720 376 705 z "},"©":{"ha":921,"x_min":0,"x_max":0,"o":"m 461 1 b 770 144 582 1 685 49 b 898 488 855 239 898 354 b 770 833 898 623 855 738 b 461 975 685 928 582 975 b 152 833 340 975 237 928 b 24 488 66 738 24 623 b 152 144 24 354 66 239 b 461 1 237 49 340 1 z m 460 56 b 190 182 355 56 264 98 b 79 489 116 267 79 369 b 190 794 79 608 116 710 b 460 921 264 879 355 921 b 729 794 565 921 655 879 b 840 489 803 710 840 608 b 729 182 840 369 803 267 b 460 56 655 98 565 56 z m 454 264 b 567 315 501 264 539 281 b 594 374 585 339 594 359 b 570 403 594 393 586 403 l 504 403 b 482 387 490 403 483 397 b 458 347 479 360 471 347 b 424 374 446 347 435 356 b 404 471 410 399 404 432 b 415 566 404 507 408 538 b 444 602 422 590 432 602 b 467 576 458 602 467 593 b 500 542 469 553 479 542 l 570 542 b 593 563 585 542 593 549 b 583 625 593 589 589 609 b 454 720 555 688 512 720 b 372 684 422 720 395 708 b 306 483 328 634 306 567 b 317 386 306 446 310 414 b 454 264 340 304 386 264 z m 523 571 b 493 608 503 581 493 593 b 506 623 493 618 497 623 b 525 616 512 623 519 621 b 541 632 526 627 531 632 b 555 613 551 632 555 626 b 523 571 555 593 545 580 z "},"«":{"ha":537,"x_min":0,"x_max":0,"o":"m 172 540 b 123 521 147 540 131 534 b 34 347 64 420 34 362 b 77 243 34 336 48 301 b 159 157 106 186 134 157 l 235 157 b 283 195 267 157 283 170 b 267 257 283 214 278 235 b 218 350 256 279 240 311 b 266 435 239 386 255 414 b 283 491 277 458 283 477 b 229 540 283 524 265 540 z m 183 178 b 139 224 154 191 139 207 b 157 244 139 237 145 244 b 184 235 166 244 176 241 b 208 254 186 248 194 254 b 229 231 222 254 229 247 b 183 178 229 207 214 189 z m 392 540 b 343 521 367 540 351 534 b 254 347 283 420 254 362 b 297 243 254 336 268 301 b 378 157 326 186 353 157 l 454 157 b 503 195 487 157 503 170 b 487 257 503 214 498 235 b 438 350 476 279 460 311 b 486 435 459 386 475 414 b 503 491 497 458 503 477 b 449 540 503 524 485 540 z m 403 178 b 359 224 374 191 359 207 b 377 244 359 237 365 244 b 404 235 386 244 395 241 b 428 254 406 248 414 254 b 449 231 442 254 449 247 b 403 178 449 207 433 189 z "},"¬":{"ha":510,"x_min":0,"x_max":0,"o":"m 359 421 b 302 490 321 441 302 463 b 326 519 302 509 310 519 b 361 507 338 519 350 515 b 392 536 363 526 374 536 b 419 500 410 536 419 524 b 359 421 419 463 399 437 z m 400 252 b 476 309 451 252 476 271 l 476 515 b 408 564 476 548 454 564 b 167 570 367 564 286 566 l 85 570 b 34 518 51 570 34 553 l 34 439 b 91 382 34 401 53 382 l 289 384 l 289 293 b 359 252 289 266 313 252 z "},"®":{"ha":942,"x_min":0,"x_max":0,"o":"m 471 1 b 780 144 592 1 695 49 b 908 488 865 239 908 354 b 780 833 908 623 865 738 b 471 975 695 928 592 975 b 162 833 351 975 248 928 b 34 488 77 738 34 623 b 162 144 34 354 77 239 b 471 1 248 49 351 1 z m 470 56 b 200 182 365 56 275 98 b 89 489 126 267 89 369 b 200 794 89 608 126 710 b 470 921 275 879 365 921 b 739 794 575 921 665 879 b 850 489 813 710 850 608 b 739 182 850 369 813 267 b 470 56 665 98 575 56 z m 602 264 b 625 283 617 264 625 271 b 614 318 625 291 622 302 b 556 445 603 343 584 386 b 637 574 610 473 637 516 b 589 675 637 614 621 648 b 505 701 567 692 539 701 b 437 691 482 701 459 697 b 417 698 432 696 425 698 l 375 698 b 352 676 359 698 352 690 l 357 302 b 385 264 357 277 366 264 l 414 264 b 438 291 430 264 438 273 b 441 444 438 328 439 379 l 475 433 l 527 311 b 562 264 540 279 551 264 z m 504 512 b 449 580 467 532 449 554 b 472 609 449 600 456 609 b 507 597 484 609 495 605 b 536 625 509 616 518 625 b 564 591 555 625 564 614 b 504 512 564 553 544 528 z "},"¯":{"ha":296,"x_min":0,"x_max":0,"o":"m 35 738 b 212 741 90 738 149 739 b 296 795 268 743 296 760 l 296 868 b 272 913 296 897 288 911 b 41 928 193 923 115 928 b -4 873 11 928 -4 909 l -4 790 b 35 738 -4 755 9 738 z m 138 797 b 102 842 114 810 102 825 b 117 861 102 854 106 861 b 140 853 125 861 133 859 b 160 872 141 866 148 872 b 178 849 172 872 178 865 b 138 797 178 825 165 807 z "},"°":{"ha":450,"x_min":0,"x_max":0,"o":"m 227 548 b 347 597 271 548 311 564 b 416 779 393 640 416 700 b 363 938 416 848 399 902 b 227 993 326 975 280 993 b 93 934 177 993 133 973 b 34 770 54 894 34 840 b 53 673 34 739 40 707 b 227 548 85 589 142 548 z m 225 669 b 130 789 161 703 130 743 b 169 842 130 825 142 842 b 230 819 190 842 210 835 b 281 871 233 854 250 871 b 328 808 312 871 328 850 b 225 669 328 743 294 696 z "},"±":{"ha":456,"x_min":0,"x_max":0,"o":"m 245 252 b 321 309 296 252 321 271 l 321 385 l 387 385 b 449 434 428 385 449 401 l 449 515 b 381 564 449 548 427 564 l 319 564 l 319 643 b 262 697 319 679 300 697 l 194 697 b 140 643 158 697 140 679 l 140 570 l 58 570 b 7 518 24 570 7 553 l 7 439 b 64 382 7 401 26 382 l 134 382 l 134 293 b 205 252 134 266 158 252 z m 227 421 b 171 490 190 441 171 463 b 194 519 171 509 178 519 b 230 507 206 519 218 515 b 260 536 232 526 242 536 b 288 500 279 536 288 524 b 227 421 288 463 267 437 z m 134 0 b 387 3 259 2 343 3 b 449 52 428 3 449 19 l 449 133 b 381 182 449 165 427 182 l 58 187 b 7 136 24 187 7 170 l 7 57 b 64 0 7 19 26 0 z m 227 39 b 171 107 190 58 171 81 b 194 137 171 127 178 137 b 230 124 206 137 218 133 b 260 153 232 144 242 153 b 288 118 279 153 288 142 b 227 39 288 81 267 54 z "},"´":{"ha":263,"x_min":0,"x_max":0,"o":"m 142 810 b 115 799 130 810 121 806 b 34 671 61 723 34 680 b 61 644 34 653 43 644 l 125 644 b 153 661 136 644 144 650 b 229 780 203 730 229 770 b 194 810 229 800 218 810 z m 161 745 b 136 779 144 752 136 763 b 148 793 136 789 140 793 b 160 781 155 793 159 789 b 176 787 165 785 170 787 b 185 774 182 787 185 783 b 161 745 185 763 177 753 z "},"¶":{"ha":768,"x_min":0,"x_max":0,"o":"m 457 993 b 178 928 332 993 239 971 b 34 662 82 861 34 772 b 145 442 34 572 71 498 b 313 372 201 402 258 378 l 313 65 b 365 0 313 22 330 0 b 425 52 405 0 425 17 l 425 825 l 538 825 l 536 57 b 590 0 536 19 554 0 l 625 0 b 677 52 660 0 677 17 l 677 825 b 734 879 715 825 734 843 l 734 936 b 655 993 734 974 707 993 l 457 993 z "},"·":{"ha":233,"x_min":0,"x_max":0,"o":"m 53 571 b 9 518 24 571 9 553 l 9 456 b 53 403 9 420 24 403 l 131 403 b 175 456 160 403 175 420 l 175 518 b 131 571 175 553 160 571 z m 92 455 b 57 492 68 465 57 477 b 72 508 57 503 62 508 b 94 500 79 508 87 505 b 113 516 95 511 101 516 b 130 497 124 516 130 510 b 92 455 130 477 117 464 z "},"∙":{"ha":233,"x_min":0,"x_max":0,"o":"m 53 571 b 9 518 24 571 9 553 l 9 456 b 53 403 9 420 24 403 l 131 403 b 175 456 160 403 175 420 l 175 518 b 131 571 175 553 160 571 z m 92 455 b 57 492 68 465 57 477 b 72 508 57 503 62 508 b 94 500 79 508 87 505 b 113 516 95 511 101 516 b 130 497 124 516 130 510 b 92 455 130 477 117 464 z "},"¸":{"ha":312,"x_min":0,"x_max":0,"o":"m 88 -289 b 161 -276 115 -289 140 -285 b 278 -132 239 -244 277 -196 b 212 -26 278 -83 256 -48 b 138 5 174 -5 149 5 b 110 -9 127 5 119 0 b 69 -70 83 -38 69 -58 b 83 -99 69 -90 74 -99 b 151 -125 128 -99 151 -108 b 99 -157 151 -146 134 -157 b 34 -215 56 -157 34 -176 b 88 -289 34 -264 52 -289 z m 96 -252 b 68 -208 77 -243 68 -229 b 81 -188 68 -195 72 -188 b 95 -205 90 -188 94 -193 b 112 -197 100 -200 106 -197 b 123 -214 119 -197 123 -203 b 96 -252 123 -229 114 -241 z "},"»":{"ha":537,"x_min":0,"x_max":0,"o":"m 88 540 b 34 491 52 540 34 524 b 52 435 34 477 40 458 b 99 350 62 414 78 386 b 50 257 77 311 61 279 b 34 195 39 235 34 214 b 83 157 34 170 50 157 l 159 157 b 239 243 184 157 210 186 b 283 347 269 301 283 336 b 194 521 283 362 254 420 b 145 540 186 534 170 540 z m 134 182 b 87 235 103 193 87 210 b 109 258 87 250 94 258 b 132 238 123 258 130 251 b 159 248 141 244 151 248 b 178 227 172 248 178 241 b 134 182 178 210 163 195 z m 308 540 b 254 491 272 540 254 524 b 271 435 254 477 260 458 b 319 350 282 414 298 386 b 270 257 297 311 281 279 b 254 195 259 235 254 214 b 302 157 254 170 270 157 l 378 157 b 459 243 404 157 430 186 b 503 347 488 301 503 336 b 414 521 503 362 473 420 b 365 540 406 534 390 540 z m 353 182 b 307 235 323 193 307 210 b 328 258 307 250 314 258 b 352 238 342 258 350 251 b 379 248 361 244 370 248 b 397 227 391 248 397 241 b 353 182 397 210 382 195 z "},"¼":{"ha":971,"x_min":0,"x_max":0,"o":"m 169 974 b 127 950 149 974 136 966 b 54 794 79 859 54 807 b 105 747 54 762 71 747 l 125 747 l 130 410 b 181 362 130 378 147 362 l 227 362 b 280 410 262 362 280 378 l 289 931 b 237 974 289 960 272 974 z m 204 838 b 161 890 175 852 161 870 b 179 913 161 906 167 913 b 206 903 188 913 197 910 b 230 926 208 919 216 926 b 251 899 244 926 251 917 b 204 838 251 869 235 849 z m 292 0 b 332 19 311 0 325 6 b 515 448 341 33 402 176 b 712 917 636 739 702 895 b 720 944 717 927 720 937 b 666 974 720 964 702 974 l 616 974 b 586 960 602 974 592 969 b 323 431 577 947 490 770 b 142 54 207 193 146 68 b 140 35 140 47 140 41 b 191 0 140 12 157 0 z m 261 49 b 208 116 225 68 208 90 b 230 145 208 136 215 145 b 263 133 241 145 252 141 b 292 161 265 152 275 161 b 318 127 309 161 318 150 b 261 49 318 90 299 64 z m 858 0 b 911 81 891 0 909 27 b 917 569 912 158 914 321 b 870 612 917 597 901 612 l 801 612 b 765 597 785 612 772 607 b 622 369 751 578 703 503 b 530 201 560 267 530 211 b 581 155 530 170 547 155 l 759 155 l 759 53 b 812 0 759 18 777 0 z m 691 270 l 759 393 l 759 270 z m 821 454 b 770 515 787 471 770 492 b 791 543 770 534 777 543 b 823 531 802 543 812 538 b 850 557 825 549 833 557 b 875 526 867 557 875 547 b 821 454 875 492 857 468 z "},"½":{"ha":1015,"x_min":0,"x_max":0,"o":"m 169 974 b 127 950 149 974 136 966 b 54 794 79 859 54 807 b 105 747 54 762 71 747 l 125 747 l 130 410 b 181 362 130 378 147 362 l 227 362 b 280 410 262 362 280 378 l 289 931 b 237 974 289 960 272 974 z m 204 838 b 161 890 175 852 161 870 b 179 913 161 906 167 913 b 206 903 188 913 197 910 b 230 926 208 919 216 926 b 251 899 244 926 251 917 b 204 838 251 869 235 849 z m 292 0 b 332 19 311 0 325 6 b 515 448 341 33 402 176 b 712 917 636 739 702 895 b 720 944 717 927 720 937 b 666 974 720 964 702 974 l 616 974 b 586 960 602 974 592 969 b 323 431 577 947 490 770 b 142 54 207 193 146 68 b 140 35 140 47 140 41 b 191 0 140 12 157 0 z m 261 49 b 208 116 225 68 208 90 b 230 145 208 136 215 145 b 263 133 241 145 252 141 b 292 161 265 152 275 161 b 318 127 309 161 318 150 b 261 49 318 90 299 64 z m 631 0 b 895 5 797 3 884 5 b 960 60 939 5 960 24 l 960 76 b 875 133 960 111 932 130 b 773 137 822 136 788 137 b 833 213 781 151 801 176 b 956 454 915 309 956 389 b 916 562 956 498 943 534 b 759 622 877 602 825 622 b 655 600 715 622 680 614 b 570 509 599 566 570 536 b 579 484 570 498 573 490 b 659 425 614 445 640 425 b 713 457 675 425 694 436 b 764 479 727 472 744 479 b 803 444 790 479 803 468 b 734 304 803 401 780 355 b 581 47 632 193 581 107 b 629 0 581 16 597 0 z m 667 481 b 627 534 640 492 627 509 b 645 558 627 550 633 558 b 665 538 657 558 664 551 b 689 547 673 545 681 547 b 705 527 699 547 705 541 b 667 481 705 509 692 494 z "},"¾":{"ha":1142,"x_min":0,"x_max":0,"o":"m 246 360 b 396 416 298 360 349 379 b 460 551 439 452 460 496 b 368 709 460 622 429 674 b 418 836 401 739 418 782 b 393 916 418 865 410 892 b 227 993 355 967 300 993 b 132 975 188 993 156 987 b 54 899 80 949 54 924 b 77 859 54 888 62 874 b 157 808 110 825 136 808 b 195 824 176 808 189 813 b 252 878 216 860 235 878 b 271 825 264 878 271 860 b 213 749 271 785 252 760 b 137 698 162 737 137 720 l 137 677 b 169 635 137 653 148 639 b 235 621 195 631 217 627 b 312 547 286 608 312 583 b 254 477 312 498 283 477 b 215 496 235 477 222 483 b 155 541 201 526 180 541 b 101 517 142 541 125 532 b 61 465 75 498 61 481 b 83 424 61 454 68 441 b 246 360 119 381 173 360 z m 145 858 b 103 909 117 872 103 889 b 121 931 103 924 109 931 b 147 922 130 931 138 928 b 170 943 149 936 156 943 b 190 917 183 943 190 935 b 145 858 190 889 175 869 z m 146 426 b 108 472 121 439 108 454 b 123 492 108 486 113 492 b 147 484 132 492 140 490 b 168 503 149 496 155 503 b 186 479 180 503 186 495 b 146 426 186 454 172 436 z m 463 0 b 503 19 482 0 496 6 b 686 448 512 33 573 176 b 883 917 807 739 873 895 b 890 944 888 927 890 937 b 837 974 890 964 873 974 l 787 974 b 757 960 772 974 763 969 b 494 431 748 947 661 770 b 313 54 378 193 317 68 b 311 35 311 47 311 41 b 362 0 311 12 328 0 z m 432 49 b 378 116 396 68 378 90 b 401 145 378 136 386 145 b 434 133 412 145 423 141 b 463 161 436 152 446 161 b 489 127 480 161 489 150 b 432 49 489 90 470 64 z m 1029 0 b 1082 81 1062 0 1080 27 b 1088 569 1083 158 1085 321 b 1041 612 1088 597 1072 612 l 972 612 b 936 597 956 612 943 607 b 793 369 922 578 874 503 b 701 201 731 267 701 211 b 751 155 701 170 718 155 l 930 155 l 930 53 b 983 0 930 18 947 0 z m 862 270 l 930 393 l 930 270 z m 991 454 b 941 515 958 471 941 492 b 962 543 941 534 947 543 b 994 531 972 543 983 538 b 1021 557 996 549 1004 557 b 1046 526 1038 557 1046 547 b 991 454 1046 492 1027 468 z "},"¿":{"ha":454,"x_min":0,"x_max":0,"o":"m 184 304 b 127 264 150 304 131 291 b 58 102 120 208 97 154 b -62 -152 -22 -7 -62 -92 b -39 -256 -62 -193 -54 -228 b 205 -391 12 -346 94 -391 b 374 -361 282 -391 338 -380 b 480 -250 445 -321 480 -284 b 437 -176 480 -231 466 -206 b 353 -109 396 -131 368 -109 b 328 -117 342 -109 334 -111 b 190 -198 276 -171 230 -198 b 144 -155 159 -198 144 -184 b 166 -90 144 -132 151 -111 b 304 250 258 37 304 151 b 298 269 304 253 302 260 b 233 304 290 292 268 304 z m 264 404 b 315 467 298 404 315 425 l 315 540 b 264 602 315 581 298 602 l 172 602 b 120 540 137 602 120 581 l 120 467 b 172 404 120 425 137 404 z m 217 541 b 258 498 245 528 258 514 b 241 479 258 485 253 479 b 215 487 233 479 224 481 b 193 469 214 475 206 469 b 173 491 180 469 173 476 b 217 541 173 514 188 530 z m 345 -189 b 407 -270 387 -205 407 -232 b 379 -307 407 -294 397 -307 b 348 -276 360 -307 350 -296 b 311 -290 336 -285 324 -290 b 288 -258 296 -290 288 -279 b 345 -189 288 -232 307 -208 z "},"À":{"ha":668,"x_min":0,"x_max":0,"o":"m 620 -14 b 669 41 652 -14 669 5 b 452 903 669 56 597 343 b 408 960 443 941 428 960 l 267 960 b 216 898 243 960 226 939 b 7 38 77 334 7 47 b 56 -14 7 3 23 -14 l 118 -14 b 165 24 138 -14 154 -1 b 202 163 178 52 190 98 l 433 163 b 460 45 445 102 454 63 b 517 -14 473 6 492 -14 z m 338 300 b 221 456 260 331 221 383 b 275 525 221 502 239 525 b 334 467 304 525 323 506 b 403 493 356 484 379 493 b 448 434 433 493 448 473 b 338 300 448 383 412 338 z m 243 1181 b 208 1152 219 1181 208 1171 b 284 1033 208 1141 233 1102 b 311 1016 292 1021 301 1016 l 376 1016 b 403 1043 394 1016 403 1025 b 321 1171 403 1052 376 1095 b 294 1181 316 1178 307 1181 z m 277 1107 b 250 1141 259 1117 250 1128 b 262 1156 250 1151 254 1156 b 279 1149 268 1156 273 1154 b 294 1164 279 1159 285 1164 b 307 1146 302 1164 307 1158 b 277 1107 307 1128 297 1115 z "},"Á":{"ha":668,"x_min":0,"x_max":0,"o":"m 620 -14 b 669 41 652 -14 669 5 b 452 903 669 56 597 343 b 408 960 443 941 428 960 l 267 960 b 216 898 243 960 226 939 b 7 38 77 334 7 47 b 56 -14 7 3 23 -14 l 118 -14 b 165 24 138 -14 154 -1 b 202 163 178 52 190 98 l 433 163 b 460 45 445 102 454 63 b 517 -14 473 6 492 -14 z m 338 300 b 221 456 260 331 221 383 b 275 525 221 502 239 525 b 334 467 304 525 323 506 b 403 493 356 484 379 493 b 448 434 433 493 448 473 b 338 300 448 383 412 338 z m 381 1181 b 354 1171 368 1181 359 1178 b 273 1043 300 1095 273 1052 b 300 1016 273 1025 281 1016 l 364 1016 b 391 1033 374 1016 383 1021 b 468 1152 442 1102 468 1141 b 433 1181 468 1171 456 1181 z m 400 1117 b 375 1150 383 1124 375 1135 b 387 1165 375 1160 379 1165 b 399 1153 394 1165 398 1161 b 414 1158 404 1156 409 1158 b 424 1146 420 1158 424 1154 b 400 1117 424 1135 416 1125 z "},"Â":{"ha":668,"x_min":0,"x_max":0,"o":"m 620 -14 b 669 41 652 -14 669 5 b 452 903 669 56 597 343 b 408 960 443 941 428 960 l 267 960 b 216 898 243 960 226 939 b 7 38 77 334 7 47 b 56 -14 7 3 23 -14 l 118 -14 b 165 24 138 -14 154 -1 b 202 163 178 52 190 98 l 433 163 b 460 45 445 102 454 63 b 517 -14 473 6 492 -14 z m 338 300 b 221 456 260 331 221 383 b 275 525 221 502 239 525 b 334 467 304 525 323 506 b 403 493 356 484 379 493 b 448 434 433 493 448 473 b 338 300 448 383 412 338 z m 446 1016 b 465 1043 459 1016 465 1025 b 394 1158 465 1053 441 1091 b 357 1181 384 1174 371 1181 l 326 1181 b 283 1157 309 1181 295 1173 b 210 1043 235 1090 210 1053 b 229 1016 210 1025 216 1016 l 308 1016 b 336 1043 321 1016 330 1025 b 370 1016 350 1025 361 1016 z m 343 1095 b 314 1134 323 1102 314 1116 b 328 1151 314 1145 319 1151 b 342 1137 336 1151 342 1146 b 359 1143 348 1141 353 1143 b 371 1128 367 1143 371 1139 b 343 1095 371 1116 361 1104 z "},"Ã":{"ha":668,"x_min":0,"x_max":0,"o":"m 620 -14 b 669 41 652 -14 669 5 b 452 903 669 56 597 343 b 408 960 443 941 428 960 l 267 960 b 216 898 243 960 226 939 b 7 38 77 334 7 47 b 56 -14 7 3 23 -14 l 118 -14 b 165 24 138 -14 154 -1 b 202 163 178 52 190 98 l 433 163 b 460 45 445 102 454 63 b 517 -14 473 6 492 -14 z m 338 300 b 221 456 260 331 221 383 b 275 525 221 502 239 525 b 334 467 304 525 323 506 b 403 493 356 484 379 493 b 448 434 433 493 448 473 b 338 300 448 383 412 338 z m 426 1181 b 391 1143 402 1181 391 1168 b 282 1179 338 1167 302 1179 b 214 1146 256 1179 233 1168 b 179 1046 191 1120 179 1086 b 206 1016 179 1026 188 1016 l 266 1016 b 285 1043 279 1016 285 1025 l 285 1054 b 407 1019 351 1030 392 1019 b 473 1055 435 1019 457 1031 b 496 1152 488 1077 496 1109 b 461 1181 496 1171 485 1181 z m 418 1060 b 387 1097 397 1071 387 1083 b 400 1114 387 1108 391 1114 b 419 1107 406 1114 413 1112 b 435 1122 420 1117 425 1122 b 450 1103 446 1122 450 1116 b 418 1060 450 1083 439 1069 z "},"Ä":{"ha":668,"x_min":0,"x_max":0,"o":"m 620 -14 b 669 41 652 -14 669 5 b 452 903 669 56 597 343 b 408 960 443 941 428 960 l 267 960 b 216 898 243 960 226 939 b 7 38 77 334 7 47 b 56 -14 7 3 23 -14 l 118 -14 b 165 24 138 -14 154 -1 b 202 163 178 52 190 98 l 433 163 b 460 45 445 102 454 63 b 517 -14 473 6 492 -14 z m 338 300 b 221 456 260 331 221 383 b 275 525 221 502 239 525 b 334 467 304 525 323 506 b 403 493 356 484 379 493 b 448 434 433 493 448 473 b 338 300 448 383 412 338 z m 222 1068 b 186 1105 198 1078 186 1090 b 201 1121 186 1116 191 1121 b 223 1114 209 1121 216 1118 b 242 1129 224 1124 231 1129 b 259 1111 254 1129 259 1123 b 222 1068 259 1091 247 1077 z m 182 1184 b 138 1131 153 1184 138 1166 l 138 1069 b 182 1016 138 1034 153 1016 l 260 1016 b 304 1069 290 1016 304 1034 l 304 1131 b 260 1184 304 1166 290 1184 z m 415 1184 b 372 1131 386 1184 372 1166 l 372 1069 b 415 1016 372 1034 386 1016 l 494 1016 b 537 1069 523 1016 537 1034 l 537 1131 b 494 1184 537 1166 523 1184 z m 455 1068 b 420 1105 431 1078 420 1090 b 435 1121 420 1116 425 1121 b 456 1114 442 1121 449 1118 b 475 1129 458 1124 464 1129 b 492 1111 487 1129 492 1123 b 455 1068 492 1091 480 1077 z "},"Å":{"ha":668,"x_min":0,"x_max":0,"o":"m 620 -14 b 669 41 652 -14 669 5 b 452 903 669 56 597 343 b 408 960 443 941 428 960 l 267 960 b 216 898 243 960 226 939 b 7 38 77 334 7 47 b 56 -14 7 3 23 -14 l 118 -14 b 165 24 138 -14 154 -1 b 202 163 178 52 190 98 l 433 163 b 460 45 445 102 454 63 b 517 -14 473 6 492 -14 z m 338 300 b 221 456 260 331 221 383 b 275 525 221 502 239 525 b 334 467 304 525 323 506 b 403 493 356 484 379 493 b 448 434 433 493 448 473 b 338 300 448 383 412 338 z m 338 996 b 414 1028 368 996 393 1006 b 446 1106 435 1050 446 1076 b 414 1183 446 1137 435 1162 b 338 1216 393 1205 368 1216 b 261 1183 308 1216 282 1205 b 229 1106 240 1162 229 1137 b 261 1028 229 1076 240 1050 b 338 996 282 1006 308 996 z m 340 1060 b 292 1124 308 1073 292 1094 b 313 1152 292 1143 299 1152 b 338 1128 328 1152 336 1144 b 366 1139 347 1135 356 1139 b 385 1115 378 1139 385 1131 b 340 1060 385 1094 370 1076 z "},"Æ":{"ha":905,"x_min":0,"x_max":0,"o":"m 351 163 b 351 64 351 115 351 82 b 408 -7 351 17 370 -7 l 782 -7 b 808 13 800 -7 808 0 l 808 94 b 785 113 808 105 800 111 b 565 123 750 118 677 121 l 562 365 b 723 351 653 355 707 351 b 744 381 737 351 744 361 l 744 549 b 696 581 744 570 728 581 b 559 568 683 581 637 576 l 554 807 l 752 817 b 825 848 801 819 825 829 l 825 907 b 772 940 825 926 808 937 b 515 954 699 946 614 951 b 267 960 416 958 333 960 b 216 898 243 960 226 939 b 7 38 77 334 7 47 b 56 -14 7 3 23 -14 l 118 -14 b 165 24 138 -14 154 -1 b 202 163 178 52 190 98 z m 348 335 b 231 490 270 366 231 418 b 284 559 231 536 248 559 b 343 502 313 559 333 541 b 412 528 366 519 389 528 b 458 469 443 528 458 508 b 348 335 458 418 421 373 z "},"Ç":{"ha":691,"x_min":0,"x_max":0,"o":"m 507 640 b 425 740 452 669 425 702 b 458 784 425 769 436 784 b 511 765 476 784 494 778 b 554 808 513 793 528 808 b 594 756 581 808 594 791 b 507 640 594 702 565 663 z m 288 -252 b 260 -208 269 -243 260 -229 b 273 -188 260 -195 264 -188 b 287 -205 281 -188 286 -193 b 304 -197 292 -200 298 -197 b 315 -214 311 -197 315 -203 b 288 -252 315 -229 306 -241 z m 291 -21 b 261 -70 271 -44 261 -60 b 275 -99 261 -90 266 -99 b 342 -125 320 -99 342 -108 b 291 -157 342 -146 326 -157 b 226 -215 248 -157 226 -176 b 280 -289 226 -264 244 -289 b 353 -276 307 -289 332 -285 b 470 -132 431 -244 469 -196 b 404 -26 470 -83 448 -48 b 402 -24 404 -25 403 -25 b 606 87 486 -15 553 22 b 665 217 646 139 665 182 b 612 279 665 258 648 279 l 467 279 b 418 244 437 279 421 268 b 367 155 412 184 395 155 b 291 217 340 155 315 176 b 245 429 260 272 245 342 b 271 640 245 507 254 578 b 334 719 288 692 309 719 b 386 662 367 719 384 700 b 459 586 389 611 414 586 l 611 586 b 663 632 646 586 663 602 b 641 768 663 690 655 734 b 356 979 579 909 484 979 b 177 901 285 979 225 953 b 31 456 79 790 31 642 b 55 241 31 374 39 302 b 291 -21 98 90 177 2 z "},"È":{"ha":539,"x_min":0,"x_max":0,"o":"m 496 -7 b 523 13 514 -7 523 0 l 523 94 b 499 113 523 105 515 111 b 279 123 465 118 391 121 l 277 365 b 437 351 368 355 421 351 b 458 381 452 351 458 361 l 458 549 b 411 581 458 570 443 581 b 274 568 397 581 352 576 l 269 807 l 467 817 b 540 848 515 819 540 829 l 540 907 b 486 940 540 926 522 937 b 121 951 414 946 292 949 b 78 910 93 951 79 938 b 65 64 69 414 65 132 b 122 -7 65 17 84 -7 z m 182 385 b 107 475 132 411 107 441 b 138 516 107 503 117 516 b 185 498 154 516 170 510 b 226 538 188 525 201 538 b 262 490 250 538 262 522 b 182 385 262 441 235 406 z m 208 1181 b 172 1152 184 1181 172 1171 b 249 1033 172 1141 198 1102 b 276 1016 257 1021 266 1016 l 340 1016 b 368 1043 359 1016 368 1025 b 286 1171 368 1052 340 1095 b 259 1181 281 1178 272 1181 z m 242 1107 b 215 1141 224 1117 215 1128 b 227 1156 215 1151 219 1156 b 243 1149 233 1156 238 1154 b 258 1164 244 1159 250 1164 b 272 1146 267 1164 272 1158 b 242 1107 272 1128 262 1115 z "},"É":{"ha":539,"x_min":0,"x_max":0,"o":"m 496 -7 b 523 13 514 -7 523 0 l 523 94 b 499 113 523 105 515 111 b 279 123 465 118 391 121 l 277 365 b 437 351 368 355 421 351 b 458 381 452 351 458 361 l 458 549 b 411 581 458 570 443 581 b 274 568 397 581 352 576 l 269 807 l 467 817 b 540 848 515 819 540 829 l 540 907 b 486 940 540 926 522 937 b 121 951 414 946 292 949 b 78 910 93 951 79 938 b 65 64 69 414 65 132 b 122 -7 65 17 84 -7 z m 182 385 b 107 475 132 411 107 441 b 138 516 107 503 117 516 b 185 498 154 516 170 510 b 226 538 188 525 201 538 b 262 490 250 538 262 522 b 182 385 262 441 235 406 z m 346 1181 b 319 1171 333 1181 324 1178 b 237 1043 264 1095 237 1052 b 264 1016 237 1025 246 1016 l 329 1016 b 356 1033 339 1016 348 1021 b 433 1152 407 1102 433 1141 b 397 1181 433 1171 421 1181 z m 365 1117 b 340 1150 348 1124 340 1135 b 351 1165 340 1160 344 1165 b 363 1153 359 1165 363 1161 b 379 1158 368 1156 374 1158 b 389 1146 385 1158 389 1154 b 365 1117 389 1135 380 1125 z "},"Ê":{"ha":539,"x_min":0,"x_max":0,"o":"m 496 -7 b 523 13 514 -7 523 0 l 523 94 b 499 113 523 105 515 111 b 279 123 465 118 391 121 l 277 365 b 437 351 368 355 421 351 b 458 381 452 351 458 361 l 458 549 b 411 581 458 570 443 581 b 274 568 397 581 352 576 l 269 807 l 467 817 b 540 848 515 819 540 829 l 540 907 b 486 940 540 926 522 937 b 121 951 414 946 292 949 b 78 910 93 951 79 938 b 65 64 69 414 65 132 b 122 -7 65 17 84 -7 z m 182 385 b 107 475 132 411 107 441 b 138 516 107 503 117 516 b 185 498 154 516 170 510 b 226 538 188 525 201 538 b 262 490 250 538 262 522 b 182 385 262 441 235 406 z m 411 1016 b 430 1043 424 1016 430 1025 b 359 1158 430 1053 406 1091 b 321 1181 349 1174 336 1181 l 290 1181 b 248 1157 274 1181 260 1173 b 175 1043 199 1090 175 1053 b 194 1016 175 1025 181 1016 l 273 1016 b 301 1043 286 1016 295 1025 b 335 1016 315 1025 326 1016 z m 308 1095 b 279 1134 288 1102 279 1116 b 292 1151 279 1145 283 1151 b 307 1137 301 1151 307 1146 b 324 1143 313 1141 318 1143 b 336 1128 332 1143 336 1139 b 308 1095 336 1116 326 1104 z "},"Ë":{"ha":539,"x_min":0,"x_max":0,"o":"m 496 -7 b 523 13 514 -7 523 0 l 523 94 b 499 113 523 105 515 111 b 279 123 465 118 391 121 l 277 365 b 437 351 368 355 421 351 b 458 381 452 351 458 361 l 458 549 b 411 581 458 570 443 581 b 274 568 397 581 352 576 l 269 807 l 467 817 b 540 848 515 819 540 829 l 540 907 b 486 940 540 926 522 937 b 121 951 414 946 292 949 b 78 910 93 951 79 938 b 65 64 69 414 65 132 b 122 -7 65 17 84 -7 z m 182 385 b 107 475 132 411 107 441 b 138 516 107 503 117 516 b 185 498 154 516 170 510 b 226 538 188 525 201 538 b 262 490 250 538 262 522 b 182 385 262 441 235 406 z m 169 1068 b 134 1105 145 1078 134 1090 b 149 1121 134 1116 138 1121 b 170 1114 156 1121 163 1118 b 189 1129 172 1124 178 1129 b 206 1111 201 1129 206 1123 b 169 1068 206 1091 194 1077 z m 129 1184 b 85 1131 100 1184 85 1166 l 85 1069 b 129 1016 85 1034 100 1016 l 208 1016 b 251 1069 237 1016 251 1034 l 251 1131 b 208 1184 251 1166 237 1184 z m 362 1184 b 319 1131 333 1184 319 1166 l 319 1069 b 362 1016 319 1034 333 1016 l 441 1016 b 484 1069 470 1016 484 1034 l 484 1131 b 441 1184 484 1166 470 1184 z m 402 1068 b 367 1105 378 1078 367 1090 b 382 1121 367 1116 372 1121 b 404 1114 389 1121 396 1118 b 422 1129 405 1124 411 1129 b 439 1111 434 1129 439 1123 b 402 1068 439 1091 427 1077 z "},"Ì":{"ha":356,"x_min":0,"x_max":0,"o":"m 253 -14 b 307 36 289 -14 307 3 l 267 895 b 215 960 264 939 247 960 l 136 960 b 92 904 109 960 94 941 l 50 33 b 101 -14 50 2 66 -14 z m 178 29 b 107 115 131 54 107 82 b 136 153 107 140 117 153 b 181 136 151 153 166 147 b 219 174 183 161 196 174 b 253 129 241 174 253 159 b 178 29 253 82 228 49 z m 83 1181 b 48 1152 60 1181 48 1171 b 125 1033 48 1141 74 1102 b 152 1016 133 1021 142 1016 l 216 1016 b 243 1043 235 1016 243 1025 b 162 1171 243 1052 216 1095 b 135 1181 157 1178 148 1181 z m 118 1107 b 91 1141 100 1117 91 1128 b 102 1156 91 1151 95 1156 b 119 1149 109 1156 114 1154 b 134 1164 120 1159 125 1164 b 148 1146 143 1164 148 1158 b 118 1107 148 1128 138 1115 z "},"Í":{"ha":356,"x_min":0,"x_max":0,"o":"m 253 -14 b 307 36 289 -14 307 3 l 267 895 b 215 960 264 939 247 960 l 136 960 b 92 904 109 960 94 941 l 50 33 b 101 -14 50 2 66 -14 z m 178 29 b 107 115 131 54 107 82 b 136 153 107 140 117 153 b 181 136 151 153 166 147 b 219 174 183 161 196 174 b 253 129 241 174 253 159 b 178 29 253 82 228 49 z m 222 1181 b 195 1171 209 1181 200 1178 b 113 1043 140 1095 113 1052 b 140 1016 113 1025 122 1016 l 205 1016 b 232 1033 215 1016 224 1021 b 309 1152 283 1102 309 1141 b 273 1181 309 1171 297 1181 z m 241 1117 b 216 1150 224 1124 216 1135 b 227 1165 216 1160 220 1165 b 239 1153 235 1165 239 1161 b 255 1158 244 1156 250 1158 b 264 1146 261 1158 264 1154 b 241 1117 264 1135 256 1125 z "},"Î":{"ha":356,"x_min":0,"x_max":0,"o":"m 253 -14 b 307 36 289 -14 307 3 l 267 895 b 215 960 264 939 247 960 l 136 960 b 92 904 109 960 94 941 l 50 33 b 101 -14 50 2 66 -14 z m 178 29 b 107 115 131 54 107 82 b 136 153 107 140 117 153 b 181 136 151 153 166 147 b 219 174 183 161 196 174 b 253 129 241 174 253 159 b 178 29 253 82 228 49 z m 287 1016 b 306 1043 300 1016 306 1025 b 235 1158 306 1053 282 1091 b 197 1181 224 1174 212 1181 l 166 1181 b 124 1157 150 1181 136 1173 b 51 1043 75 1090 51 1053 b 70 1016 51 1025 57 1016 l 149 1016 b 177 1043 161 1016 171 1025 b 211 1016 191 1025 202 1016 z m 184 1095 b 155 1134 164 1102 155 1116 b 168 1151 155 1145 159 1151 b 183 1137 177 1151 182 1146 b 200 1143 189 1141 194 1143 b 212 1128 208 1143 212 1139 b 184 1095 212 1116 202 1104 z "},"Ï":{"ha":356,"x_min":0,"x_max":0,"o":"m 253 -14 b 307 36 289 -14 307 3 l 267 895 b 215 960 264 939 247 960 l 136 960 b 92 904 109 960 94 941 l 50 33 b 101 -14 50 2 66 -14 z m 178 29 b 107 115 131 54 107 82 b 136 153 107 140 117 153 b 181 136 151 153 166 147 b 219 174 183 161 196 174 b 253 129 241 174 253 159 b 178 29 253 82 228 49 z m 45 1068 b 9 1105 21 1078 9 1090 b 24 1121 9 1116 14 1121 b 46 1114 32 1121 39 1118 b 65 1129 47 1124 54 1129 b 82 1111 77 1129 82 1123 b 45 1068 82 1091 70 1077 z m 5 1184 b -39 1131 -24 1184 -39 1166 l -39 1069 b 5 1016 -39 1034 -24 1016 l 83 1016 b 127 1069 113 1016 127 1034 l 127 1131 b 83 1184 127 1166 113 1184 z m 238 1184 b 195 1131 209 1184 195 1166 l 195 1069 b 238 1016 195 1034 209 1016 l 317 1016 b 360 1069 346 1016 360 1034 l 360 1131 b 317 1184 360 1166 346 1184 z m 278 1068 b 243 1105 254 1078 243 1090 b 258 1121 243 1116 248 1121 b 279 1114 265 1121 272 1118 b 298 1129 281 1124 287 1129 b 315 1111 310 1129 315 1123 b 278 1068 315 1091 303 1077 z "},"Ð":{"ha":678,"x_min":0,"x_max":0,"o":"m 378 350 b 235 539 283 387 235 450 b 300 624 235 595 256 624 b 379 549 343 624 370 599 b 456 585 402 573 428 585 b 512 513 494 585 512 561 b 378 350 512 451 467 397 z m 215 0 b 256 22 232 0 245 7 b 351 8 283 13 315 8 b 475 49 399 8 441 22 b 646 488 589 137 646 283 b 547 823 646 608 613 720 b 315 966 485 918 408 966 b 245 947 300 966 277 960 b 207 974 235 965 222 974 l 128 974 b 77 914 94 974 77 954 l 73 580 l 29 582 b -17 511 -1 582 -17 558 l -17 454 b 35 392 -17 413 0 392 l 70 393 l 66 52 b 117 0 66 17 83 0 z "},"Ñ":{"ha":701,"x_min":0,"x_max":0,"o":"m 608 0 b 628 55 621 0 628 18 b 635 651 630 159 632 357 b 597 842 635 726 623 789 b 435 944 562 910 508 944 b 258 811 369 944 310 900 l 253 895 b 201 974 250 947 232 974 l 128 974 b 77 930 94 974 77 960 l 63 43 b 123 0 63 14 83 0 l 239 0 b 294 44 275 0 294 15 l 269 553 b 361 651 294 618 326 651 b 462 427 421 651 454 576 b 473 33 467 336 471 204 b 500 0 473 11 481 0 z m 439 723 b 368 809 392 747 368 776 b 397 846 368 834 378 846 b 442 830 412 846 427 841 b 480 867 444 855 457 867 b 514 823 503 867 514 852 b 439 723 514 776 489 743 z m 437 1181 b 402 1143 414 1181 402 1168 b 294 1179 349 1167 313 1179 b 225 1146 267 1179 244 1168 b 191 1046 202 1120 191 1086 b 218 1016 191 1026 199 1016 l 277 1016 b 296 1043 290 1016 296 1025 l 296 1054 b 418 1019 363 1030 404 1019 b 484 1055 446 1019 469 1031 b 508 1152 500 1077 508 1109 b 473 1181 508 1171 496 1181 z m 429 1060 b 399 1097 409 1071 399 1083 b 412 1114 399 1108 403 1114 b 431 1107 418 1114 425 1112 b 447 1122 431 1117 437 1122 b 462 1103 457 1122 462 1116 b 429 1060 462 1083 451 1069 z "},"Ò":{"ha":846,"x_min":0,"x_max":0,"o":"m 395 -15 b 619 39 496 -15 571 3 b 817 498 751 141 817 294 b 805 614 817 543 812 582 b 414 991 747 865 616 991 b 124 833 305 991 209 939 b 24 485 57 748 24 632 b 119 142 24 356 56 241 b 395 -15 189 37 280 -15 z m 413 298 b 213 532 279 366 213 444 b 296 635 213 601 241 635 b 422 591 338 635 381 621 b 530 692 429 659 465 692 b 627 570 595 692 627 651 b 413 298 627 443 556 352 z m 326 1181 b 290 1152 302 1181 290 1171 b 367 1033 290 1141 316 1102 b 394 1016 375 1021 384 1016 l 458 1016 b 486 1043 477 1016 486 1025 b 404 1171 486 1052 458 1095 b 377 1181 399 1178 390 1181 z m 360 1107 b 333 1141 342 1117 333 1128 b 345 1156 333 1151 337 1156 b 361 1149 351 1156 356 1154 b 376 1164 362 1159 368 1164 b 390 1146 385 1164 390 1158 b 360 1107 390 1128 380 1115 z "},"Ó":{"ha":846,"x_min":0,"x_max":0,"o":"m 395 -15 b 619 39 496 -15 571 3 b 817 498 751 141 817 294 b 805 614 817 543 812 582 b 414 991 747 865 616 991 b 124 833 305 991 209 939 b 24 485 57 748 24 632 b 119 142 24 356 56 241 b 395 -15 189 37 280 -15 z m 413 298 b 213 532 279 366 213 444 b 296 635 213 601 241 635 b 422 591 338 635 381 621 b 530 692 429 659 465 692 b 627 570 595 692 627 651 b 413 298 627 443 556 352 z m 464 1181 b 437 1171 451 1181 442 1178 b 355 1043 382 1095 355 1052 b 382 1016 355 1025 364 1016 l 447 1016 b 474 1033 457 1016 466 1021 b 551 1152 525 1102 551 1141 b 515 1181 551 1171 539 1181 z m 483 1117 b 458 1150 466 1124 458 1135 b 469 1165 458 1160 462 1165 b 481 1153 477 1165 481 1161 b 497 1158 486 1156 492 1158 b 507 1146 503 1158 507 1154 b 483 1117 507 1135 498 1125 z "},"Ô":{"ha":846,"x_min":0,"x_max":0,"o":"m 395 -15 b 619 39 496 -15 571 3 b 817 498 751 141 817 294 b 805 614 817 543 812 582 b 414 991 747 865 616 991 b 124 833 305 991 209 939 b 24 485 57 748 24 632 b 119 142 24 356 56 241 b 395 -15 189 37 280 -15 z m 413 298 b 213 532 279 366 213 444 b 296 635 213 601 241 635 b 422 591 338 635 381 621 b 530 692 429 659 465 692 b 627 570 595 692 627 651 b 413 298 627 443 556 352 z m 529 1016 b 548 1043 542 1016 548 1025 b 477 1158 548 1053 524 1091 b 439 1181 467 1174 454 1181 l 408 1181 b 366 1157 392 1181 378 1173 b 293 1043 317 1090 293 1053 b 312 1016 293 1025 299 1016 l 391 1016 b 419 1043 404 1016 413 1025 b 453 1016 433 1025 444 1016 z m 426 1095 b 397 1134 406 1102 397 1116 b 410 1151 397 1145 401 1151 b 425 1137 419 1151 425 1146 b 442 1143 431 1141 436 1143 b 454 1128 450 1143 454 1139 b 426 1095 454 1116 444 1104 z "},"Õ":{"ha":846,"x_min":0,"x_max":0,"o":"m 395 -15 b 619 39 496 -15 571 3 b 817 498 751 141 817 294 b 805 614 817 543 812 582 b 414 991 747 865 616 991 b 124 833 305 991 209 939 b 24 485 57 748 24 632 b 119 142 24 356 56 241 b 395 -15 189 37 280 -15 z m 413 298 b 213 532 279 366 213 444 b 296 635 213 601 241 635 b 422 591 338 635 381 621 b 530 692 429 659 465 692 b 627 570 595 692 627 651 b 413 298 627 443 556 352 z m 509 1181 b 473 1143 485 1181 473 1168 b 365 1179 420 1167 385 1179 b 296 1146 338 1179 315 1168 b 262 1046 273 1120 262 1086 b 289 1016 262 1026 271 1016 l 349 1016 b 368 1043 361 1016 368 1025 l 368 1054 b 490 1019 434 1030 475 1019 b 555 1055 517 1019 540 1031 b 579 1152 571 1077 579 1109 b 544 1181 579 1171 568 1181 z m 500 1060 b 470 1097 480 1071 470 1083 b 483 1114 470 1108 474 1114 b 502 1107 489 1114 496 1112 b 518 1122 503 1117 508 1122 b 533 1103 528 1122 533 1116 b 500 1060 533 1083 522 1069 z "},"Ö":{"ha":846,"x_min":0,"x_max":0,"o":"m 395 -15 b 619 39 496 -15 571 3 b 817 498 751 141 817 294 b 805 614 817 543 812 582 b 414 991 747 865 616 991 b 124 833 305 991 209 939 b 24 485 57 748 24 632 b 119 142 24 356 56 241 b 395 -15 189 37 280 -15 z m 413 298 b 213 532 279 366 213 444 b 296 635 213 601 241 635 b 422 591 338 635 381 621 b 530 692 429 659 465 692 b 627 570 595 692 627 651 b 413 298 627 443 556 352 z m 287 1068 b 252 1105 263 1078 252 1090 b 267 1121 252 1116 256 1121 b 288 1114 274 1121 281 1118 b 307 1129 290 1124 296 1129 b 324 1111 319 1129 324 1123 b 287 1068 324 1091 312 1077 z m 247 1184 b 203 1131 218 1184 203 1166 l 203 1069 b 247 1016 203 1034 218 1016 l 326 1016 b 369 1069 355 1016 369 1034 l 369 1131 b 326 1184 369 1166 355 1184 z m 480 1184 b 437 1131 451 1184 437 1166 l 437 1069 b 480 1016 437 1034 451 1016 l 559 1016 b 602 1069 588 1016 602 1034 l 602 1131 b 559 1184 602 1166 588 1184 z m 520 1068 b 485 1105 496 1078 485 1090 b 500 1121 485 1116 490 1121 b 522 1114 507 1121 514 1118 b 541 1129 523 1124 529 1129 b 557 1111 552 1129 557 1123 b 520 1068 557 1091 545 1077 z "},"×":{"ha":456,"x_min":0,"x_max":0,"o":"m 314 269 b 369 301 330 269 348 280 l 397 330 b 429 387 418 351 429 370 b 411 424 429 400 422 412 l 357 477 l 404 524 b 428 570 420 540 428 555 b 413 602 428 581 423 592 l 355 660 b 324 674 346 669 336 674 b 273 646 309 674 291 665 l 229 602 l 173 658 b 135 677 161 671 148 677 b 94 656 122 677 109 670 l 47 608 b 28 570 34 595 28 583 b 47 531 28 557 34 544 l 98 479 l 41 422 b 22 385 28 410 22 397 b 41 349 22 374 28 361 l 96 294 b 137 273 110 280 123 273 b 177 294 151 273 164 280 l 227 343 l 290 280 b 314 269 297 273 305 269 z m 227 421 b 171 490 190 441 171 463 b 194 519 171 509 178 519 b 230 507 206 519 218 515 b 260 536 232 526 242 536 b 288 500 279 536 288 524 b 227 421 288 463 267 437 z "},"Ø":{"ha":846,"x_min":0,"x_max":0,"o":"m 413 298 b 213 532 279 366 213 444 b 296 635 213 601 241 635 b 422 591 338 635 381 621 b 530 692 429 659 465 692 b 627 570 595 692 627 651 b 413 298 627 443 556 352 z m 710 843 b 762 942 727 875 744 908 b 783 995 776 968 783 986 b 741 1023 783 1013 769 1023 l 663 1023 b 617 999 646 1023 630 1015 b 589 951 615 997 606 981 b 414 991 538 977 480 991 b 124 833 305 991 209 939 b 24 485 57 748 24 632 b 119 142 24 356 56 241 l 131 124 b 65 4 110 85 87 45 b 56 -23 59 -7 56 -16 b 98 -47 56 -39 70 -47 l 197 -47 b 242 -15 214 -47 229 -37 b 260 14 247 -7 253 3 b 395 -15 300 -5 345 -15 b 619 39 496 -15 571 3 b 817 498 751 141 817 294 b 805 614 817 543 812 582 b 710 843 783 708 751 784 z m 241 106 b 176 183 198 128 176 154 b 203 216 176 205 185 216 b 245 202 218 216 231 212 b 279 235 247 224 258 235 b 311 195 300 235 311 222 b 241 106 311 154 288 124 z "},"Ù":{"ha":709,"x_min":0,"x_max":0,"o":"m 570 0 b 625 46 606 0 625 16 l 638 928 b 592 974 638 958 623 974 l 459 974 b 408 925 425 974 408 958 l 432 420 b 342 323 405 355 375 323 b 247 449 291 323 259 365 b 226 922 237 531 229 688 b 207 947 226 939 220 947 l 90 947 b 71 930 77 947 71 941 b 60 300 64 532 60 322 b 267 30 60 120 129 30 b 440 165 334 30 392 75 l 443 165 l 448 79 b 503 0 450 26 469 0 z m 241 118 b 166 218 191 138 166 171 b 201 262 166 248 178 262 b 238 225 223 262 236 250 b 283 241 253 236 268 241 b 312 204 302 241 312 229 b 241 118 312 171 288 142 z m 254 1181 b 219 1152 231 1181 219 1171 b 296 1033 219 1141 245 1102 b 323 1016 304 1021 313 1016 l 387 1016 b 414 1043 406 1016 414 1025 b 333 1171 414 1052 387 1095 b 306 1181 328 1178 319 1181 z m 289 1107 b 262 1141 271 1117 262 1128 b 273 1156 262 1151 266 1156 b 290 1149 279 1156 285 1154 b 305 1164 291 1159 296 1164 b 319 1146 314 1164 319 1158 b 289 1107 319 1128 309 1115 z "},"Ú":{"ha":709,"x_min":0,"x_max":0,"o":"m 570 0 b 625 46 606 0 625 16 l 638 928 b 592 974 638 958 623 974 l 459 974 b 408 925 425 974 408 958 l 432 420 b 342 323 405 355 375 323 b 247 449 291 323 259 365 b 226 922 237 531 229 688 b 207 947 226 939 220 947 l 90 947 b 71 930 77 947 71 941 b 60 300 64 532 60 322 b 267 30 60 120 129 30 b 440 165 334 30 392 75 l 443 165 l 448 79 b 503 0 450 26 469 0 z m 241 118 b 166 218 191 138 166 171 b 201 262 166 248 178 262 b 238 225 223 262 236 250 b 283 241 253 236 268 241 b 312 204 302 241 312 229 b 241 118 312 171 288 142 z m 393 1181 b 366 1171 380 1181 371 1178 b 284 1043 311 1095 284 1052 b 311 1016 284 1025 293 1016 l 376 1016 b 403 1033 386 1016 395 1021 b 479 1152 454 1102 479 1141 b 444 1181 479 1171 468 1181 z m 412 1117 b 387 1150 395 1124 387 1135 b 398 1165 387 1160 391 1165 b 410 1153 406 1165 410 1161 b 426 1158 415 1156 420 1158 b 435 1146 432 1158 435 1154 b 412 1117 435 1135 427 1125 z "},"Û":{"ha":709,"x_min":0,"x_max":0,"o":"m 570 0 b 625 46 606 0 625 16 l 638 928 b 592 974 638 958 623 974 l 459 974 b 408 925 425 974 408 958 l 432 420 b 342 323 405 355 375 323 b 247 449 291 323 259 365 b 226 922 237 531 229 688 b 207 947 226 939 220 947 l 90 947 b 71 930 77 947 71 941 b 60 300 64 532 60 322 b 267 30 60 120 129 30 b 440 165 334 30 392 75 l 443 165 l 448 79 b 503 0 450 26 469 0 z m 241 118 b 166 218 191 138 166 171 b 201 262 166 248 178 262 b 238 225 223 262 236 250 b 283 241 253 236 268 241 b 312 204 302 241 312 229 b 241 118 312 171 288 142 z m 458 1016 b 477 1043 471 1016 477 1025 b 406 1158 477 1053 453 1091 b 368 1181 395 1174 382 1181 l 337 1181 b 295 1157 321 1181 307 1173 b 222 1043 246 1090 222 1053 b 241 1016 222 1025 228 1016 l 319 1016 b 348 1043 332 1016 342 1025 b 382 1016 361 1025 373 1016 z m 355 1095 b 326 1134 335 1102 326 1116 b 339 1151 326 1145 330 1151 b 354 1137 348 1151 353 1146 b 371 1143 359 1141 365 1143 b 382 1128 378 1143 382 1139 b 355 1095 382 1116 373 1104 z "},"Ü":{"ha":709,"x_min":0,"x_max":0,"o":"m 570 0 b 625 46 606 0 625 16 l 638 928 b 592 974 638 958 623 974 l 459 974 b 408 925 425 974 408 958 l 432 420 b 342 323 405 355 375 323 b 247 449 291 323 259 365 b 226 922 237 531 229 688 b 207 947 226 939 220 947 l 90 947 b 71 930 77 947 71 941 b 60 300 64 532 60 322 b 267 30 60 120 129 30 b 440 165 334 30 392 75 l 443 165 l 448 79 b 503 0 450 26 469 0 z m 241 118 b 166 218 191 138 166 171 b 201 262 166 248 178 262 b 238 225 223 262 236 250 b 283 241 253 236 268 241 b 312 204 302 241 312 229 b 241 118 312 171 288 142 z m 216 1068 b 180 1105 192 1078 180 1090 b 195 1121 180 1116 185 1121 b 217 1114 203 1121 210 1118 b 236 1129 218 1124 224 1129 b 253 1111 248 1129 253 1123 b 216 1068 253 1091 241 1077 z m 176 1184 b 132 1131 146 1184 132 1166 l 132 1069 b 176 1016 132 1034 146 1016 l 254 1016 b 298 1069 283 1016 298 1034 l 298 1131 b 254 1184 298 1166 283 1184 z m 409 1184 b 366 1131 380 1184 366 1166 l 366 1069 b 409 1016 366 1034 380 1016 l 488 1016 b 531 1069 517 1016 531 1034 l 531 1131 b 488 1184 531 1166 517 1184 z m 449 1068 b 414 1105 425 1078 414 1090 b 429 1121 414 1116 418 1121 b 450 1114 436 1121 443 1118 b 469 1129 452 1124 458 1129 b 486 1111 481 1129 486 1123 b 449 1068 486 1091 474 1077 z "},"Ý":{"ha":684,"x_min":0,"x_max":0,"o":"m 371 -16 b 470 11 399 -16 433 -7 b 612 323 565 56 612 161 b 625 928 612 351 616 553 b 579 974 625 958 610 974 l 446 974 b 395 925 412 974 395 958 l 419 594 b 330 528 392 550 362 528 b 235 614 278 528 247 556 b 212 922 221 682 214 785 b 193 947 212 939 205 947 l 76 947 b 57 930 63 947 57 941 b 51 745 56 895 54 833 b 47 552 48 656 47 592 b 233 326 47 401 109 326 b 427 419 314 326 378 357 b 429 357 428 397 429 376 b 368 160 429 226 408 160 b 310 185 351 160 331 168 b 227 233 269 217 241 233 b 188 214 211 233 198 227 b 135 119 153 167 135 135 b 182 52 135 100 151 77 b 371 -16 237 7 300 -16 z m 512 793 b 441 880 465 818 441 846 b 471 917 441 905 451 917 b 515 901 486 917 500 911 b 553 938 517 926 530 938 b 587 893 576 938 587 923 b 512 793 587 846 562 813 z m 201 387 b 126 487 151 407 126 440 b 161 532 126 517 138 532 b 198 494 183 532 196 519 b 243 511 213 505 228 511 b 272 473 262 511 272 498 b 201 387 272 440 248 412 z m 380 1181 b 353 1171 367 1181 358 1178 b 271 1043 298 1095 271 1052 b 298 1016 271 1025 280 1016 l 363 1016 b 390 1033 373 1016 382 1021 b 467 1152 441 1102 467 1141 b 431 1181 467 1171 455 1181 z m 399 1117 b 374 1150 382 1124 374 1135 b 385 1165 374 1160 378 1165 b 397 1153 393 1165 397 1161 b 413 1158 402 1156 408 1158 b 422 1146 419 1158 422 1154 b 399 1117 422 1135 414 1125 z "},"Þ":{"ha":689,"x_min":0,"x_max":0,"o":"m 355 406 b 233 555 274 449 233 498 b 284 621 233 599 250 621 b 361 592 310 621 336 611 b 427 656 365 635 387 656 b 486 579 467 656 486 631 b 355 406 486 498 443 441 z m 269 911 b 224 960 269 944 254 960 l 96 960 b 53 914 67 960 53 945 b 73 -57 66 358 73 35 b 130 -136 73 -109 92 -136 l 198 -136 b 252 -76 234 -136 252 -116 b 255 260 254 101 255 213 b 377 236 296 244 336 236 b 595 321 460 236 532 264 b 692 537 660 378 692 450 b 595 760 692 627 660 702 b 396 827 545 805 478 827 b 265 810 353 827 310 822 z "},"ß":{"ha":720,"x_min":0,"x_max":0,"o":"m 448 -16 b 605 22 511 -16 564 -3 b 709 231 674 65 709 134 b 614 407 709 306 677 364 b 462 562 513 475 462 527 b 481 663 462 583 468 616 b 505 792 497 724 505 767 b 492 863 505 819 500 842 b 310 993 452 949 391 993 b 75 725 167 993 88 903 b 58 49 69 627 64 402 b 112 0 58 16 76 0 l 210 0 b 261 62 244 0 261 21 b 448 -16 315 10 377 -16 z m 470 168 b 412 203 431 168 412 180 b 366 293 412 263 397 293 l 256 288 b 250 675 252 510 250 640 b 299 817 250 770 267 817 b 313 797 308 817 313 810 b 307 753 313 789 311 775 b 280 556 289 658 280 592 b 386 369 280 498 315 436 b 527 212 480 281 527 229 b 470 168 527 182 508 168 z m 310 151 b 265 210 280 163 265 182 b 286 236 265 227 272 236 b 308 214 299 236 307 229 b 334 224 317 221 325 224 b 351 202 345 224 351 217 b 310 151 351 182 338 165 z "},"à":{"ha":594,"x_min":0,"x_max":0,"o":"m 488 3 b 540 49 523 3 540 18 b 531 548 534 322 531 489 b 468 605 531 586 510 605 l 423 605 b 361 583 393 605 372 597 b 271 602 323 596 293 602 b 98 505 205 602 147 570 b 24 279 49 439 24 364 b 77 91 24 206 42 143 b 217 11 111 37 157 11 b 336 68 261 11 301 30 b 391 3 340 24 358 3 z m 237 191 b 132 330 167 218 132 264 b 180 391 132 371 148 391 b 232 340 212 391 229 374 b 294 363 253 355 273 363 b 334 310 321 363 334 345 b 237 191 334 264 302 225 z m 187 810 b 152 780 163 810 152 800 b 229 661 152 770 178 730 b 256 644 237 650 245 644 l 320 644 b 347 671 338 644 347 653 b 266 799 347 680 320 723 b 239 810 260 806 252 810 z m 222 736 b 195 769 203 745 195 756 b 206 784 195 779 199 784 b 223 778 212 784 218 782 b 238 792 224 787 229 792 b 252 774 247 792 252 786 b 222 736 252 756 241 743 z "},"á":{"ha":594,"x_min":0,"x_max":0,"o":"m 488 3 b 540 49 523 3 540 18 b 531 548 534 322 531 489 b 468 605 531 586 510 605 l 423 605 b 361 583 393 605 372 597 b 271 602 323 596 293 602 b 98 505 205 602 147 570 b 24 279 49 439 24 364 b 77 91 24 206 42 143 b 217 11 111 37 157 11 b 336 68 261 11 301 30 b 391 3 340 24 358 3 z m 237 191 b 132 330 167 218 132 264 b 180 391 132 371 148 391 b 232 340 212 391 229 374 b 294 363 253 355 273 363 b 334 310 321 363 334 345 b 237 191 334 264 302 225 z m 326 810 b 298 799 313 810 304 806 b 217 671 244 723 217 680 b 244 644 217 653 226 644 l 309 644 b 336 661 319 644 328 650 b 412 780 387 730 412 770 b 377 810 412 800 401 810 z m 345 745 b 319 779 328 752 319 763 b 331 793 319 789 323 793 b 343 781 338 793 342 789 b 359 787 348 785 353 787 b 368 774 365 787 368 783 b 345 745 368 763 360 753 z "},"â":{"ha":594,"x_min":0,"x_max":0,"o":"m 488 3 b 540 49 523 3 540 18 b 531 548 534 322 531 489 b 468 605 531 586 510 605 l 423 605 b 361 583 393 605 372 597 b 271 602 323 596 293 602 b 98 505 205 602 147 570 b 24 279 49 439 24 364 b 77 91 24 206 42 143 b 217 11 111 37 157 11 b 336 68 261 11 301 30 b 391 3 340 24 358 3 z m 237 191 b 132 330 167 218 132 264 b 180 391 132 371 148 391 b 232 340 212 391 229 374 b 294 363 253 355 273 363 b 334 310 321 363 334 345 b 237 191 334 264 302 225 z m 391 644 b 410 671 404 644 410 653 b 338 787 410 681 386 720 b 301 810 328 802 315 810 l 270 810 b 228 785 254 810 239 802 b 155 671 179 719 155 681 b 174 644 155 653 161 644 l 252 644 b 281 671 265 644 275 653 b 315 644 294 653 306 644 z m 288 723 b 258 762 268 730 258 744 b 272 779 258 774 263 779 b 287 765 281 779 286 774 b 304 772 292 770 298 772 b 315 757 311 772 315 767 b 288 723 315 744 306 732 z "},"ã":{"ha":594,"x_min":0,"x_max":0,"o":"m 488 3 b 540 49 523 3 540 18 b 531 548 534 322 531 489 b 468 605 531 586 510 605 l 423 605 b 361 583 393 605 372 597 b 271 602 323 596 293 602 b 98 505 205 602 147 570 b 24 279 49 439 24 364 b 77 91 24 206 42 143 b 217 11 111 37 157 11 b 336 68 261 11 301 30 b 391 3 340 24 358 3 z m 237 191 b 132 330 167 218 132 264 b 180 391 132 371 148 391 b 232 340 212 391 229 374 b 294 363 253 355 273 363 b 334 310 321 363 334 345 b 237 191 334 264 302 225 z m 370 810 b 335 772 347 810 335 797 b 227 807 282 795 246 807 b 158 774 200 807 177 796 b 123 674 135 748 123 715 b 151 644 123 654 132 644 l 210 644 b 229 671 223 644 229 653 l 229 682 b 351 647 296 659 336 647 b 417 683 379 647 401 659 b 441 780 433 705 441 738 b 406 810 441 800 429 810 z m 362 688 b 332 726 342 699 332 711 b 345 742 332 736 336 742 b 363 735 351 742 357 740 b 380 751 364 745 370 751 b 395 732 390 751 395 745 b 362 688 395 711 384 697 z "},"ä":{"ha":594,"x_min":0,"x_max":0,"o":"m 488 3 b 540 49 523 3 540 18 b 531 548 534 322 531 489 b 468 605 531 586 510 605 l 423 605 b 361 583 393 605 372 597 b 271 602 323 596 293 602 b 98 505 205 602 147 570 b 24 279 49 439 24 364 b 77 91 24 206 42 143 b 217 11 111 37 157 11 b 336 68 261 11 301 30 b 391 3 340 24 358 3 z m 237 191 b 132 330 167 218 132 264 b 180 391 132 371 148 391 b 232 340 212 391 229 374 b 294 363 253 355 273 363 b 334 310 321 363 334 345 b 237 191 334 264 302 225 z m 166 696 b 131 733 142 707 131 719 b 146 749 131 744 136 749 b 168 742 153 749 160 747 b 186 758 169 752 175 758 b 203 739 198 758 203 751 b 166 696 203 720 191 705 z m 126 812 b 83 760 97 812 83 795 l 83 697 b 126 644 83 662 97 644 l 205 644 b 248 697 234 644 248 662 l 248 760 b 205 812 248 795 234 812 z m 359 812 b 316 760 330 812 316 795 l 316 697 b 359 644 316 662 330 644 l 438 644 b 481 697 467 644 481 662 l 481 760 b 438 812 481 795 467 812 z m 399 696 b 364 733 376 707 364 719 b 379 749 364 744 369 749 b 401 742 387 749 393 747 b 420 758 402 752 408 758 b 437 739 431 758 437 751 b 399 696 437 720 425 705 z "},"å":{"ha":594,"x_min":0,"x_max":0,"o":"m 488 3 b 540 49 523 3 540 18 b 531 548 534 322 531 489 b 468 605 531 586 510 605 l 423 605 b 361 583 393 605 372 597 b 271 602 323 596 293 602 b 98 505 205 602 147 570 b 24 279 49 439 24 364 b 77 91 24 206 42 143 b 217 11 111 37 157 11 b 336 68 261 11 301 30 b 391 3 340 24 358 3 z m 237 191 b 132 330 167 218 132 264 b 180 391 132 371 148 391 b 232 340 212 391 229 374 b 294 363 253 355 273 363 b 334 310 321 363 334 345 b 237 191 334 264 302 225 z m 282 624 b 359 656 313 624 338 635 b 391 734 380 678 391 704 b 359 812 391 765 380 791 b 282 844 338 833 313 844 b 205 812 252 844 227 833 b 174 734 184 791 174 765 b 205 656 174 704 184 678 b 282 624 227 635 252 624 z m 284 688 b 236 752 252 701 236 722 b 258 781 236 771 243 781 b 282 757 272 781 280 772 b 311 767 291 764 300 767 b 329 743 323 767 329 759 b 284 688 329 722 314 704 z "},"æ":{"ha":922,"x_min":0,"x_max":0,"o":"m 620 345 b 550 431 573 369 550 397 b 579 468 550 456 559 468 b 624 452 594 468 609 463 b 661 489 626 477 639 489 b 696 444 684 489 696 474 b 620 345 696 397 671 364 z m 301 111 b 225 210 250 130 225 163 b 260 255 225 240 237 255 b 298 218 283 255 296 243 b 342 235 312 229 327 235 b 372 197 362 235 372 222 b 301 111 372 163 348 135 z m 460 517 b 279 600 414 572 354 600 b 78 534 195 600 127 578 b 0 385 26 488 0 439 b 73 334 0 351 24 334 l 138 334 b 198 380 178 334 198 349 b 260 426 198 410 219 426 b 323 396 287 426 307 416 b 288 382 318 396 307 391 b 68 146 141 314 68 235 b 135 23 68 98 90 57 b 282 -16 172 -3 220 -16 b 453 73 346 -16 403 14 l 461 83 b 642 0 507 28 567 0 b 843 66 726 0 793 22 b 922 214 895 111 922 161 b 848 266 922 249 897 266 l 783 266 b 724 220 743 266 724 250 b 661 174 724 189 703 174 b 599 203 635 174 614 184 b 634 217 603 203 614 208 b 854 453 781 286 854 364 b 786 576 854 501 831 543 b 640 616 749 603 701 616 b 468 527 575 616 518 586 z "},"ç":{"ha":569,"x_min":0,"x_max":0,"o":"m 417 422 b 363 493 381 437 363 460 b 388 525 363 514 372 525 b 414 498 404 525 413 516 b 446 510 425 506 435 510 b 467 484 460 510 467 501 b 417 422 467 460 450 439 z m 224 -231 b 196 -186 205 -222 196 -208 b 209 -166 196 -173 200 -166 b 223 -183 218 -166 222 -172 b 240 -176 229 -178 234 -176 b 251 -193 248 -176 251 -181 b 224 -231 251 -207 242 -220 z m 228 1 b 197 -48 208 -22 197 -38 b 211 -77 197 -68 202 -77 b 279 -103 256 -77 279 -86 b 227 -135 279 -124 262 -135 b 162 -193 184 -135 162 -155 b 216 -267 162 -243 180 -267 b 290 -254 243 -267 268 -263 b 406 -110 367 -222 406 -174 b 340 -4 406 -62 385 -26 b 332 1 337 -2 334 -1 b 479 87 398 9 448 39 b 542 244 521 149 542 201 b 504 296 542 272 529 289 b 393 307 480 302 444 306 b 347 269 362 307 347 294 b 281 163 347 198 325 163 b 203 300 229 163 203 208 b 287 458 203 406 231 458 b 321 405 309 458 321 441 b 363 382 321 390 335 382 l 479 382 b 534 437 515 382 534 401 b 468 581 534 490 512 538 b 300 643 422 623 367 643 b 100 528 224 643 157 604 b 26 293 51 460 26 382 b 43 182 27 260 33 223 b 228 1 69 77 131 17 z "},"è":{"ha":556,"x_min":0,"x_max":0,"o":"m 277 0 b 478 66 361 0 428 22 b 556 214 530 111 556 161 b 483 266 556 249 532 266 l 418 266 b 358 220 378 266 358 250 b 296 174 358 189 337 174 b 233 203 269 174 249 184 b 269 217 237 203 249 208 b 488 453 415 286 488 364 b 420 576 488 501 466 543 b 274 616 384 603 335 616 b 103 527 210 616 153 586 b 24 290 51 465 24 386 b 86 96 24 216 45 151 b 277 0 133 32 196 0 z m 255 345 b 184 431 208 369 184 397 b 214 468 184 456 194 468 b 258 452 229 468 243 463 b 296 489 260 477 273 489 b 330 444 319 489 330 474 b 255 345 330 397 305 364 z m 195 810 b 160 780 172 810 160 800 b 237 661 160 770 186 730 b 264 644 245 650 254 644 l 328 644 b 355 671 347 644 355 653 b 274 799 355 680 328 723 b 247 810 269 806 260 810 z m 230 736 b 203 769 212 745 203 756 b 214 784 203 779 207 784 b 231 778 220 784 226 782 b 246 792 232 787 237 792 b 260 774 255 792 260 786 b 230 736 260 756 250 743 z "},"é":{"ha":556,"x_min":0,"x_max":0,"o":"m 277 0 b 478 66 361 0 428 22 b 556 214 530 111 556 161 b 483 266 556 249 532 266 l 418 266 b 358 220 378 266 358 250 b 296 174 358 189 337 174 b 233 203 269 174 249 184 b 269 217 237 203 249 208 b 488 453 415 286 488 364 b 420 576 488 501 466 543 b 274 616 384 603 335 616 b 103 527 210 616 153 586 b 24 290 51 465 24 386 b 86 96 24 216 45 151 b 277 0 133 32 196 0 z m 255 345 b 184 431 208 369 184 397 b 214 468 184 456 194 468 b 258 452 229 468 243 463 b 296 489 260 477 273 489 b 330 444 319 489 330 474 b 255 345 330 397 305 364 z m 334 810 b 307 799 321 810 312 806 b 225 671 252 723 225 680 b 252 644 225 653 234 644 l 317 644 b 344 661 327 644 336 650 b 420 780 395 730 420 770 b 385 810 420 800 409 810 z m 353 745 b 328 779 336 752 328 763 b 339 793 328 789 332 793 b 351 781 347 793 351 789 b 367 787 356 785 361 787 b 376 774 373 787 376 783 b 353 745 376 763 368 753 z "},"ê":{"ha":556,"x_min":0,"x_max":0,"o":"m 277 0 b 478 66 361 0 428 22 b 556 214 530 111 556 161 b 483 266 556 249 532 266 l 418 266 b 358 220 378 266 358 250 b 296 174 358 189 337 174 b 233 203 269 174 249 184 b 269 217 237 203 249 208 b 488 453 415 286 488 364 b 420 576 488 501 466 543 b 274 616 384 603 335 616 b 103 527 210 616 153 586 b 24 290 51 465 24 386 b 86 96 24 216 45 151 b 277 0 133 32 196 0 z m 255 345 b 184 431 208 369 184 397 b 214 468 184 456 194 468 b 258 452 229 468 243 463 b 296 489 260 477 273 489 b 330 444 319 489 330 474 b 255 345 330 397 305 364 z m 399 644 b 418 671 412 644 418 653 b 347 787 418 681 394 720 b 309 810 336 802 323 810 l 278 810 b 236 785 262 810 248 802 b 163 671 187 719 163 681 b 182 644 163 653 169 644 l 260 644 b 289 671 273 644 283 653 b 323 644 302 653 314 644 z m 296 723 b 267 762 276 730 267 744 b 280 779 267 774 271 779 b 295 765 289 779 294 774 b 312 772 300 770 306 772 b 323 757 319 772 323 767 b 296 723 323 744 314 732 z "},"ë":{"ha":556,"x_min":0,"x_max":0,"o":"m 277 0 b 478 66 361 0 428 22 b 556 214 530 111 556 161 b 483 266 556 249 532 266 l 418 266 b 358 220 378 266 358 250 b 296 174 358 189 337 174 b 233 203 269 174 249 184 b 269 217 237 203 249 208 b 488 453 415 286 488 364 b 420 576 488 501 466 543 b 274 616 384 603 335 616 b 103 527 210 616 153 586 b 24 290 51 465 24 386 b 86 96 24 216 45 151 b 277 0 133 32 196 0 z m 255 345 b 184 431 208 369 184 397 b 214 468 184 456 194 468 b 258 452 229 468 243 463 b 296 489 260 477 273 489 b 330 444 319 489 330 474 b 255 345 330 397 305 364 z m 174 696 b 139 733 151 707 139 719 b 154 749 139 744 144 749 b 176 742 161 749 168 747 b 195 758 177 752 183 758 b 212 739 206 758 212 751 b 174 696 212 720 199 705 z m 134 812 b 91 760 105 812 91 795 l 91 697 b 134 644 91 662 105 644 l 213 644 b 256 697 242 644 256 662 l 256 760 b 213 812 256 795 242 812 z m 368 812 b 324 760 338 812 324 795 l 324 697 b 368 644 324 662 338 644 l 446 644 b 490 697 475 644 490 662 l 490 760 b 446 812 490 795 475 812 z m 408 696 b 372 733 384 707 372 719 b 387 749 372 744 377 749 b 409 742 395 749 401 747 b 428 758 410 752 416 758 b 445 739 439 758 445 751 b 408 696 445 720 433 705 z "},"ì":{"ha":308,"x_min":0,"x_max":0,"o":"m 202 3 b 253 34 236 3 253 13 l 244 536 b 178 602 243 581 221 602 l 134 602 b 64 553 89 602 65 586 l 52 41 b 104 3 52 16 69 3 z m 161 61 b 104 136 123 76 104 101 b 130 170 104 159 113 170 b 159 142 147 170 157 161 b 193 155 170 151 181 155 b 214 126 207 155 214 145 b 161 61 214 101 197 79 z m 57 810 b 22 780 33 810 22 800 b 98 661 22 770 47 730 b 125 644 106 650 115 644 l 190 644 b 217 671 208 644 217 653 b 136 799 217 680 190 723 b 109 810 130 806 121 810 z m 92 736 b 64 769 73 745 64 756 b 76 784 64 779 68 784 b 93 778 82 784 87 782 b 108 792 94 787 99 792 b 121 774 117 792 121 786 b 92 736 121 756 111 743 z "},"í":{"ha":308,"x_min":0,"x_max":0,"o":"m 202 3 b 253 34 236 3 253 13 l 244 536 b 178 602 243 581 221 602 l 134 602 b 64 553 89 602 65 586 l 52 41 b 104 3 52 16 69 3 z m 161 61 b 104 136 123 76 104 101 b 130 170 104 159 113 170 b 159 142 147 170 157 161 b 193 155 170 151 181 155 b 214 126 207 155 214 145 b 161 61 214 101 197 79 z m 195 810 b 168 799 182 810 174 806 b 87 671 114 723 87 680 b 114 644 87 653 96 644 l 178 644 b 205 661 189 644 197 650 b 282 780 256 730 282 770 b 247 810 282 800 271 810 z m 214 745 b 189 779 197 752 189 763 b 201 793 189 789 193 793 b 213 781 208 793 212 789 b 229 787 218 785 223 787 b 238 774 235 787 238 783 b 214 745 238 763 230 753 z "},"î":{"ha":308,"x_min":0,"x_max":0,"o":"m 202 3 b 253 34 236 3 253 13 l 244 536 b 178 602 243 581 221 602 l 134 602 b 64 553 89 602 65 586 l 52 41 b 104 3 52 16 69 3 z m 161 61 b 104 136 123 76 104 101 b 130 170 104 159 113 170 b 159 142 147 170 157 161 b 193 155 170 151 181 155 b 214 126 207 155 214 145 b 161 61 214 101 197 79 z m 260 644 b 279 671 273 644 279 653 b 208 787 279 681 256 720 b 171 810 198 802 185 810 l 140 810 b 98 785 123 810 109 802 b 24 671 49 719 24 681 b 43 644 24 653 31 644 l 122 644 b 151 671 135 644 144 653 b 184 644 164 653 176 644 z m 157 723 b 128 762 138 730 128 744 b 142 779 128 774 133 779 b 157 765 151 779 156 774 b 174 772 162 770 168 772 b 185 757 181 772 185 767 b 157 723 185 744 176 732 z "},"ï":{"ha":308,"x_min":0,"x_max":0,"o":"m 202 3 b 253 34 236 3 253 13 l 244 536 b 178 602 243 581 221 602 l 134 602 b 64 553 89 602 65 586 l 52 41 b 104 3 52 16 69 3 z m 161 61 b 104 136 123 76 104 101 b 130 170 104 159 113 170 b 159 142 147 170 157 161 b 193 155 170 151 181 155 b 214 126 207 155 214 145 b 161 61 214 101 197 79 z m 36 696 b 1 733 12 707 1 719 b 16 749 1 744 5 749 b 37 742 23 749 30 747 b 56 758 39 752 45 758 b 73 739 68 758 73 751 b 36 696 73 720 61 705 z m -4 812 b -47 760 -33 812 -47 795 l -47 697 b -4 644 -47 662 -33 644 l 75 644 b 118 697 104 644 118 662 l 118 760 b 75 812 118 795 104 812 z m 229 812 b 186 760 200 812 186 795 l 186 697 b 229 644 186 662 200 644 l 308 644 b 351 697 337 644 351 662 l 351 760 b 308 812 351 795 337 812 z m 269 696 b 234 733 245 707 234 719 b 249 749 234 744 239 749 b 271 742 256 749 263 747 b 290 758 272 752 278 758 b 307 739 301 758 307 751 b 269 696 307 720 294 705 z "},"ð":{"ha":615,"x_min":0,"x_max":0,"o":"m 244 195 b 153 316 183 219 153 260 b 194 370 153 352 166 370 b 240 326 222 370 237 355 b 294 345 258 338 276 345 b 330 299 318 345 330 330 b 244 195 330 260 301 225 z m 429 724 b 372 793 391 744 372 766 b 395 823 372 812 380 823 b 431 810 408 823 420 819 b 462 839 433 829 444 839 b 489 804 480 839 489 827 b 429 724 489 766 469 740 z m 588 688 b 650 737 629 688 650 705 l 650 819 b 583 867 650 851 628 867 l 538 868 b 538 906 538 887 538 900 b 486 960 538 942 521 960 l 413 960 b 361 917 378 960 361 946 b 361 871 361 901 361 886 l 260 873 b 208 821 225 873 208 856 l 208 743 b 265 686 208 705 227 686 l 357 686 b 356 570 357 630 356 591 b 275 589 324 583 297 589 b 114 511 215 589 161 563 b 25 258 55 446 25 361 b 84 66 25 184 45 119 b 234 -3 118 20 168 -3 b 348 71 273 -3 311 22 l 348 35 b 408 -14 348 3 368 -14 l 497 -14 b 551 33 533 -14 551 2 b 541 688 547 323 543 542 z "},"ñ":{"ha":652,"x_min":0,"x_max":0,"o":"m 207 16 b 258 71 241 16 258 35 l 258 198 b 356 347 290 298 323 347 b 446 76 416 347 446 257 b 475 41 446 52 456 41 l 573 41 b 603 79 593 41 603 54 b 608 277 603 96 605 162 l 608 300 b 405 616 608 511 541 616 b 250 475 345 616 293 569 b 248 567 248 502 248 532 b 182 632 248 610 226 632 l 136 632 b 71 554 93 632 71 606 b 58 65 71 475 62 303 b 109 16 58 33 75 16 z m 420 424 b 359 497 380 445 359 469 b 385 530 359 519 368 530 b 422 515 397 530 410 525 b 455 547 425 536 435 547 b 484 509 475 547 484 534 b 420 424 484 469 463 441 z m 421 810 b 386 772 397 810 386 797 b 277 807 333 795 297 807 b 209 774 251 807 228 796 b 174 674 186 748 174 715 b 201 644 174 654 183 644 l 261 644 b 280 671 274 644 280 653 l 280 682 b 402 647 347 659 387 647 b 468 683 430 647 452 659 b 492 780 484 705 492 738 b 456 810 492 800 480 810 z m 413 688 b 382 726 393 699 382 711 b 395 742 382 736 387 742 b 414 735 401 742 408 740 b 431 751 415 745 420 751 b 446 732 441 751 446 745 b 413 688 446 711 435 697 z "},"ò":{"ha":626,"x_min":0,"x_max":0,"o":"m 322 621 b 96 518 235 621 159 587 b 22 315 47 463 22 395 b 86 113 22 241 43 174 b 307 -8 144 32 217 -8 b 537 109 398 -8 475 31 b 604 304 581 164 604 229 b 551 486 604 371 586 432 b 322 621 492 576 416 621 z m 315 192 b 211 319 245 228 211 271 b 254 375 211 356 225 375 b 320 351 277 375 298 367 b 376 406 323 387 342 406 b 427 339 410 406 427 383 b 315 192 427 270 390 221 z m 218 810 b 182 780 194 810 182 800 b 259 661 182 770 208 730 b 286 644 267 650 276 644 l 351 644 b 378 671 369 644 378 653 b 296 799 378 680 351 723 b 269 810 291 806 282 810 z m 252 736 b 225 769 234 745 225 756 b 237 784 225 779 229 784 b 254 778 243 784 248 782 b 269 792 254 787 260 792 b 282 774 277 792 282 786 b 252 736 282 756 272 743 z "},"ó":{"ha":626,"x_min":0,"x_max":0,"o":"m 322 621 b 96 518 235 621 159 587 b 22 315 47 463 22 395 b 86 113 22 241 43 174 b 307 -8 144 32 217 -8 b 537 109 398 -8 475 31 b 604 304 581 164 604 229 b 551 486 604 371 586 432 b 322 621 492 576 416 621 z m 315 192 b 211 319 245 228 211 271 b 254 375 211 356 225 375 b 320 351 277 375 298 367 b 376 406 323 387 342 406 b 427 339 410 406 427 383 b 315 192 427 270 390 221 z m 356 810 b 329 799 343 810 334 806 b 248 671 275 723 248 680 b 275 644 248 653 256 644 l 339 644 b 366 661 349 644 358 650 b 443 780 417 730 443 770 b 408 810 443 800 431 810 z m 375 745 b 350 779 358 752 350 763 b 361 793 350 789 354 793 b 374 781 369 793 373 789 b 389 787 378 785 384 787 b 399 774 395 787 399 783 b 375 745 399 763 391 753 z "},"ô":{"ha":626,"x_min":0,"x_max":0,"o":"m 322 621 b 96 518 235 621 159 587 b 22 315 47 463 22 395 b 86 113 22 241 43 174 b 307 -8 144 32 217 -8 b 537 109 398 -8 475 31 b 604 304 581 164 604 229 b 551 486 604 371 586 432 b 322 621 492 576 416 621 z m 315 192 b 211 319 245 228 211 271 b 254 375 211 356 225 375 b 320 351 277 375 298 367 b 376 406 323 387 342 406 b 427 339 410 406 427 383 b 315 192 427 270 390 221 z m 421 644 b 440 671 434 644 440 653 b 369 787 440 681 416 720 b 332 810 359 802 346 810 l 300 810 b 258 785 284 810 270 802 b 185 671 210 719 185 681 b 204 644 185 653 191 644 l 283 644 b 311 671 296 644 305 653 b 345 644 325 653 336 644 z m 318 723 b 289 762 298 730 289 744 b 302 779 289 774 294 779 b 317 765 311 779 317 774 b 334 772 323 770 328 772 b 346 757 342 772 346 767 b 318 723 346 744 336 732 z "},"õ":{"ha":626,"x_min":0,"x_max":0,"o":"m 322 621 b 96 518 235 621 159 587 b 22 315 47 463 22 395 b 86 113 22 241 43 174 b 307 -8 144 32 217 -8 b 537 109 398 -8 475 31 b 604 304 581 164 604 229 b 551 486 604 371 586 432 b 322 621 492 576 416 621 z m 315 192 b 211 319 245 228 211 271 b 254 375 211 356 225 375 b 320 351 277 375 298 367 b 376 406 323 387 342 406 b 427 339 410 406 427 383 b 315 192 427 270 390 221 z m 401 810 b 366 772 377 810 366 797 b 257 807 313 795 277 807 b 189 774 231 807 208 796 b 154 674 165 748 154 715 b 181 644 154 654 163 644 l 241 644 b 260 671 254 644 260 653 l 260 682 b 382 647 326 659 367 647 b 448 683 410 647 432 659 b 471 780 463 705 471 738 b 436 810 471 800 460 810 z m 393 688 b 362 726 372 699 362 711 b 375 742 362 736 366 742 b 394 735 381 742 388 740 b 410 751 395 745 400 751 b 425 732 420 751 425 745 b 393 688 425 711 414 697 z "},"ö":{"ha":626,"x_min":0,"x_max":0,"o":"m 322 621 b 96 518 235 621 159 587 b 22 315 47 463 22 395 b 86 113 22 241 43 174 b 307 -8 144 32 217 -8 b 537 109 398 -8 475 31 b 604 304 581 164 604 229 b 551 486 604 371 586 432 b 322 621 492 576 416 621 z m 315 192 b 211 319 245 228 211 271 b 254 375 211 356 225 375 b 320 351 277 375 298 367 b 376 406 323 387 342 406 b 427 339 410 406 427 383 b 315 192 427 270 390 221 z m 197 696 b 161 733 173 707 161 719 b 176 749 161 744 166 749 b 198 742 184 749 191 747 b 217 758 199 752 205 758 b 234 739 229 758 234 751 b 197 696 234 720 222 705 z m 157 812 b 113 760 127 812 113 795 l 113 697 b 157 644 113 662 127 644 l 235 644 b 279 697 264 644 279 662 l 279 760 b 235 812 279 795 264 812 z m 390 812 b 347 760 361 812 347 795 l 347 697 b 390 644 347 662 361 644 l 469 644 b 512 697 498 644 512 662 l 512 760 b 469 812 512 795 498 812 z m 430 696 b 395 733 406 707 395 719 b 410 749 395 744 399 749 b 431 742 417 749 424 747 b 450 758 433 752 439 758 b 467 739 462 758 467 751 b 430 696 467 720 455 705 z "},"÷":{"ha":456,"x_min":0,"x_max":0,"o":"m 134 382 b 387 385 259 385 343 385 b 449 434 428 385 449 401 l 449 515 b 381 564 449 548 427 564 l 58 570 b 7 518 24 570 7 553 l 7 439 b 64 382 7 401 26 382 z m 227 421 b 171 490 190 441 171 463 b 194 519 171 509 178 519 b 230 507 206 519 218 515 b 260 536 232 526 242 536 b 288 500 279 536 288 524 b 227 421 288 463 267 437 z m 182 363 b 130 300 147 363 130 342 l 130 227 b 182 165 130 186 147 165 l 274 165 b 326 227 309 165 326 186 l 326 300 b 274 363 326 342 309 363 z m 229 227 b 187 269 201 239 187 253 b 204 288 187 282 193 288 b 231 280 213 288 222 286 b 252 298 232 292 239 298 b 273 276 266 298 273 291 b 229 227 273 253 258 237 z m 229 651 b 187 694 201 663 187 677 b 204 713 187 707 193 713 b 231 705 213 713 222 710 b 252 723 232 717 239 723 b 273 701 266 723 273 715 b 229 651 273 677 258 661 z m 182 787 b 130 725 147 787 130 766 l 130 652 b 182 589 130 610 147 589 l 274 589 b 326 652 309 589 326 610 l 326 725 b 274 787 326 766 309 787 z "},"ø":{"ha":626,"x_min":0,"x_max":0,"o":"m 315 192 b 211 319 245 228 211 271 b 254 375 211 356 225 375 b 320 351 277 375 298 367 b 376 406 323 387 342 406 b 427 339 410 406 427 383 b 315 192 427 270 390 221 z m 144 49 b 106 -32 132 22 119 -4 b 100 -56 102 -42 100 -50 b 116 -78 100 -67 105 -75 l 163 -93 b 183 -73 169 -93 176 -86 b 222 5 192 -56 205 -30 b 307 -8 248 -3 276 -8 b 537 109 398 -8 475 31 b 604 304 581 164 604 229 b 551 486 604 371 586 432 b 480 566 530 519 506 545 b 506 624 488 585 497 604 b 520 669 515 645 520 661 b 505 692 520 681 515 688 b 465 703 479 699 467 703 b 448 691 459 703 454 699 b 407 607 446 688 432 661 b 322 621 380 616 353 621 b 96 518 235 621 159 587 b 22 315 47 463 22 395 b 86 113 22 241 43 174 b 144 49 104 87 123 66 z m 220 59 b 174 104 190 72 174 87 b 193 123 174 117 180 123 b 222 115 203 123 213 121 b 247 134 224 128 232 134 b 269 111 262 134 269 127 b 220 59 269 87 253 69 z "},"ù":{"ha":654,"x_min":0,"x_max":0,"o":"m 525 3 b 585 75 562 3 582 27 b 598 570 589 149 593 314 b 536 618 598 602 577 618 l 460 618 b 397 564 418 618 397 600 b 389 442 397 509 395 469 b 300 288 366 339 336 288 b 240 353 276 288 256 309 b 210 559 220 403 210 471 b 175 594 210 583 199 594 l 96 594 b 53 559 67 594 53 583 b 50 460 53 545 52 511 b 47 345 47 408 47 370 b 53 247 47 307 49 274 b 240 19 76 95 138 19 b 406 160 309 19 364 66 b 408 65 408 130 408 98 b 463 3 408 24 427 3 z m 216 88 b 155 163 175 109 155 134 b 180 196 155 185 163 196 b 219 182 193 196 206 191 b 252 214 221 203 233 214 b 282 175 272 214 282 201 b 216 88 282 134 260 105 z m 228 810 b 193 780 204 810 193 800 b 269 661 193 770 218 730 b 296 644 277 650 286 644 l 361 644 b 388 671 379 644 388 653 b 307 799 388 680 361 723 b 279 810 301 806 292 810 z m 262 736 b 235 769 244 745 235 756 b 247 784 235 779 239 784 b 264 778 253 784 258 782 b 279 792 264 787 270 792 b 292 774 288 792 292 786 b 262 736 292 756 282 743 z "},"ú":{"ha":654,"x_min":0,"x_max":0,"o":"m 525 3 b 585 75 562 3 582 27 b 598 570 589 149 593 314 b 536 618 598 602 577 618 l 460 618 b 397 564 418 618 397 600 b 389 442 397 509 395 469 b 300 288 366 339 336 288 b 240 353 276 288 256 309 b 210 559 220 403 210 471 b 175 594 210 583 199 594 l 96 594 b 53 559 67 594 53 583 b 50 460 53 545 52 511 b 47 345 47 408 47 370 b 53 247 47 307 49 274 b 240 19 76 95 138 19 b 406 160 309 19 364 66 b 408 65 408 130 408 98 b 463 3 408 24 427 3 z m 216 88 b 155 163 175 109 155 134 b 180 196 155 185 163 196 b 219 182 193 196 206 191 b 252 214 221 203 233 214 b 282 175 272 214 282 201 b 216 88 282 134 260 105 z m 366 810 b 339 799 353 810 345 806 b 258 671 285 723 258 680 b 285 644 258 653 267 644 l 349 644 b 376 661 359 644 368 650 b 453 780 427 730 453 770 b 418 810 453 800 441 810 z m 385 745 b 360 779 368 752 360 763 b 372 793 360 789 364 793 b 384 781 379 793 383 789 b 399 787 389 785 394 787 b 409 774 406 787 409 783 b 385 745 409 763 401 753 z "},"û":{"ha":654,"x_min":0,"x_max":0,"o":"m 525 3 b 585 75 562 3 582 27 b 598 570 589 149 593 314 b 536 618 598 602 577 618 l 460 618 b 397 564 418 618 397 600 b 389 442 397 509 395 469 b 300 288 366 339 336 288 b 240 353 276 288 256 309 b 210 559 220 403 210 471 b 175 594 210 583 199 594 l 96 594 b 53 559 67 594 53 583 b 50 460 53 545 52 511 b 47 345 47 408 47 370 b 53 247 47 307 49 274 b 240 19 76 95 138 19 b 406 160 309 19 364 66 b 408 65 408 130 408 98 b 463 3 408 24 427 3 z m 216 88 b 155 163 175 109 155 134 b 180 196 155 185 163 196 b 219 182 193 196 206 191 b 252 214 221 203 233 214 b 282 175 272 214 282 201 b 216 88 282 134 260 105 z m 431 644 b 450 671 444 644 450 653 b 379 787 450 681 427 720 b 342 810 369 802 356 810 l 311 810 b 269 785 294 810 280 802 b 195 671 220 719 195 681 b 214 644 195 653 201 644 l 293 644 b 321 671 306 644 315 653 b 355 644 335 653 347 644 z m 328 723 b 299 762 309 730 299 744 b 313 779 299 774 304 779 b 328 765 321 779 327 774 b 345 772 333 770 338 772 b 356 757 352 772 356 767 b 328 723 356 744 347 732 z "},"ü":{"ha":654,"x_min":0,"x_max":0,"o":"m 525 3 b 585 75 562 3 582 27 b 598 570 589 149 593 314 b 536 618 598 602 577 618 l 460 618 b 397 564 418 618 397 600 b 389 442 397 509 395 469 b 300 288 366 339 336 288 b 240 353 276 288 256 309 b 210 559 220 403 210 471 b 175 594 210 583 199 594 l 96 594 b 53 559 67 594 53 583 b 50 460 53 545 52 511 b 47 345 47 408 47 370 b 53 247 47 307 49 274 b 240 19 76 95 138 19 b 406 160 309 19 364 66 b 408 65 408 130 408 98 b 463 3 408 24 427 3 z m 216 88 b 155 163 175 109 155 134 b 180 196 155 185 163 196 b 219 182 193 196 206 191 b 252 214 221 203 233 214 b 282 175 272 214 282 201 b 216 88 282 134 260 105 z m 207 696 b 172 733 183 707 172 719 b 186 749 172 744 176 749 b 208 742 194 749 201 747 b 227 758 210 752 216 758 b 244 739 239 758 244 751 b 207 696 244 720 232 705 z m 167 812 b 123 760 138 812 123 795 l 123 697 b 167 644 123 662 138 644 l 245 644 b 289 697 275 644 289 662 l 289 760 b 245 812 289 795 275 812 z m 400 812 b 357 760 371 812 357 795 l 357 697 b 400 644 357 662 371 644 l 479 644 b 522 697 508 644 522 662 l 522 760 b 479 812 522 795 508 812 z m 440 696 b 405 733 416 707 405 719 b 420 749 405 744 410 749 b 441 742 427 749 434 747 b 460 758 443 752 449 758 b 477 739 472 758 477 751 b 440 696 477 720 465 705 z "},"ý":{"ha":636,"x_min":0,"x_max":0,"o":"m 313 -309 b 435 -279 355 -309 396 -299 b 561 -41 511 -241 553 -161 b 575 568 567 57 572 260 b 511 618 575 602 553 618 l 437 618 b 372 570 394 618 372 602 b 378 393 372 521 378 451 b 296 296 378 328 351 296 b 228 347 262 296 239 313 b 212 545 218 382 212 448 b 177 602 212 583 201 602 l 90 602 b 50 578 63 602 50 594 l 50 347 b 220 27 50 134 106 27 b 383 122 292 27 347 59 l 385 -7 b 334 -133 385 -91 368 -133 b 241 -81 320 -133 289 -115 b 199 -60 221 -66 208 -60 b 134 -95 172 -60 151 -71 b 98 -171 110 -130 98 -155 b 145 -242 98 -196 117 -218 b 313 -309 197 -287 253 -309 z m 469 472 b 417 534 434 490 417 511 b 438 562 417 553 424 562 b 471 550 450 562 460 558 b 498 577 473 568 481 577 b 524 545 515 577 524 566 b 469 472 524 511 505 486 z m 216 88 b 155 163 175 109 155 134 b 180 196 155 185 163 196 b 219 182 193 196 206 191 b 252 214 221 203 233 214 b 282 175 272 214 282 201 b 216 88 282 134 260 105 z m 356 810 b 329 799 343 810 334 806 b 248 671 275 723 248 680 b 275 644 248 653 256 644 l 339 644 b 366 661 349 644 358 650 b 443 780 417 730 443 770 b 408 810 443 800 431 810 z m 375 745 b 350 779 358 752 350 763 b 361 793 350 789 354 793 b 374 781 369 793 373 789 b 389 787 378 785 384 787 b 399 774 395 787 399 783 b 375 745 399 763 391 753 z "},"þ":{"ha":616,"x_min":0,"x_max":0,"o":"m 218 -316 b 264 -273 249 -316 264 -302 b 259 72 264 -212 262 -97 b 338 56 292 61 319 56 b 509 146 403 56 460 85 b 587 380 562 209 587 287 b 571 492 587 423 582 460 b 389 647 537 595 477 647 b 251 552 337 647 291 615 l 251 889 b 197 943 251 925 233 943 l 129 943 b 75 897 93 943 75 928 l 61 -270 b 113 -316 61 -300 78 -316 z m 358 256 b 266 368 296 288 266 326 b 304 418 266 401 279 418 b 362 397 323 418 343 411 b 412 445 366 429 382 445 b 456 387 441 445 456 425 b 358 256 456 326 424 282 z "},"ÿ":{"ha":636,"x_min":0,"x_max":0,"o":"m 313 -309 b 435 -279 355 -309 396 -299 b 561 -41 511 -241 553 -161 b 575 568 567 57 572 260 b 511 618 575 602 553 618 l 437 618 b 372 570 394 618 372 602 b 378 393 372 521 378 451 b 296 296 378 328 351 296 b 228 347 262 296 239 313 b 212 545 218 382 212 448 b 177 602 212 583 201 602 l 90 602 b 50 578 63 602 50 594 l 50 347 b 220 27 50 134 106 27 b 383 122 292 27 347 59 l 385 -7 b 334 -133 385 -91 368 -133 b 241 -81 320 -133 289 -115 b 199 -60 221 -66 208 -60 b 134 -95 172 -60 151 -71 b 98 -171 110 -130 98 -155 b 145 -242 98 -196 117 -218 b 313 -309 197 -287 253 -309 z m 469 472 b 417 534 434 490 417 511 b 438 562 417 553 424 562 b 471 550 450 562 460 558 b 498 577 473 568 481 577 b 524 545 515 577 524 566 b 469 472 524 511 505 486 z m 216 88 b 155 163 175 109 155 134 b 180 196 155 185 163 196 b 219 182 193 196 206 191 b 252 214 221 203 233 214 b 282 175 272 214 282 201 b 216 88 282 134 260 105 z m 197 696 b 161 733 173 707 161 719 b 176 749 161 744 166 749 b 198 742 184 749 191 747 b 217 758 199 752 205 758 b 234 739 229 758 234 751 b 197 696 234 720 222 705 z m 157 812 b 113 760 127 812 113 795 l 113 697 b 157 644 113 662 127 644 l 235 644 b 279 697 264 644 279 662 l 279 760 b 235 812 279 795 264 812 z m 390 812 b 347 760 361 812 347 795 l 347 697 b 390 644 347 662 361 644 l 469 644 b 512 697 498 644 512 662 l 512 760 b 469 812 512 795 498 812 z m 430 696 b 395 733 406 707 395 719 b 410 749 395 744 399 749 b 431 742 417 749 424 747 b 450 758 433 752 439 758 b 467 739 462 758 467 751 b 430 696 467 720 455 705 z "},"ı":{"ha":308,"x_min":0,"x_max":0,"o":"m 202 3 b 253 34 236 3 253 13 l 244 536 b 178 602 243 581 221 602 l 134 602 b 64 553 89 602 65 586 l 52 41 b 104 3 52 16 69 3 z m 161 61 b 104 136 123 76 104 101 b 130 170 104 159 113 170 b 159 142 147 170 157 161 b 193 155 170 151 181 155 b 214 126 207 155 214 145 b 161 61 214 101 197 79 z "},"ˆ":{"ha":323,"x_min":0,"x_max":0,"o":"m 270 644 b 289 671 283 644 289 653 b 218 787 289 681 265 720 b 180 810 208 802 195 810 l 149 810 b 107 785 133 810 119 802 b 34 671 58 719 34 681 b 53 644 34 653 40 644 l 132 644 b 160 671 144 644 154 653 b 194 644 174 653 185 644 z m 167 723 b 138 762 147 730 138 744 b 151 779 138 774 142 779 b 166 765 160 779 165 774 b 183 772 172 770 177 772 b 195 757 191 772 195 767 b 167 723 195 744 185 732 z "},"ˇ":{"ha":323,"x_min":0,"x_max":0,"o":"m 167 683 b 138 722 147 690 138 704 b 151 739 138 734 142 739 b 166 725 160 739 165 734 b 183 732 172 730 177 732 b 195 717 191 732 195 727 b 167 683 195 704 185 692 z m 194 810 b 160 783 185 810 174 801 b 132 810 154 801 144 810 l 53 810 b 34 783 40 810 34 801 b 107 669 34 773 58 735 b 149 644 119 652 133 644 l 180 644 b 218 667 195 644 208 652 b 289 783 265 734 289 773 b 270 810 289 801 283 810 z "},"ˉ":{"ha":368,"x_min":0,"x_max":0,"o":"m 73 688 b 250 691 127 688 186 689 b 334 745 306 693 334 711 l 334 819 b 310 864 334 847 326 862 b 79 878 231 873 153 878 b 34 824 49 878 34 860 l 34 741 b 73 688 34 706 47 688 z m 176 747 b 140 792 152 760 140 775 b 155 812 140 805 144 812 b 178 804 163 812 171 809 b 198 823 179 817 186 823 b 216 800 210 823 216 815 b 176 747 216 775 203 758 z "},"˘":{"ha":301,"x_min":0,"x_max":0,"o":"m 77 812 b 34 783 48 812 34 802 b 159 644 34 690 75 644 b 267 783 231 644 267 690 b 232 812 267 802 256 812 l 197 812 b 164 799 175 812 164 808 b 153 766 164 777 161 766 b 138 798 143 766 138 777 b 107 812 138 808 128 812 z m 216 752 b 191 785 199 759 191 770 b 202 800 191 795 195 800 b 214 788 210 800 214 796 b 230 793 219 791 224 793 b 239 781 236 793 239 789 b 216 752 239 770 231 760 z "},"˙":{"ha":233,"x_min":0,"x_max":0,"o":"m 117 696 b 82 733 94 707 82 719 b 97 749 82 744 87 749 b 119 742 104 749 111 747 b 138 758 120 752 126 758 b 155 739 149 758 155 751 b 117 696 155 720 142 705 z m 77 812 b 34 760 48 812 34 795 l 34 697 b 77 644 34 662 48 644 l 156 644 b 199 697 185 644 199 662 l 199 760 b 156 812 199 795 185 812 z "},"˚":{"ha":265,"x_min":0,"x_max":0,"o":"m 132 624 b 209 656 163 624 188 635 b 241 734 230 678 241 704 b 209 812 241 765 230 791 b 132 844 188 833 163 844 b 56 812 102 844 77 833 b 24 734 35 791 24 765 b 56 656 24 704 35 678 b 132 624 77 635 102 624 z m 134 688 b 86 752 102 701 86 722 b 108 781 86 771 94 781 b 132 757 122 781 130 772 b 161 767 141 764 151 767 b 179 743 173 767 179 759 b 134 688 179 722 164 704 z "},"˛":{"ha":303,"x_min":0,"x_max":0,"o":"m 148 -213 b 243 -179 191 -213 222 -201 b 269 -118 260 -159 269 -139 b 245 -99 269 -105 261 -99 b 189 -113 229 -99 205 -113 b 167 -85 174 -113 167 -104 b 209 1 167 -63 181 -35 b 229 46 222 18 229 33 b 194 64 229 58 217 64 b 142 53 176 64 159 60 b 34 -107 70 19 34 -35 b 64 -178 34 -131 44 -154 b 148 -213 85 -201 113 -213 z m 148 -193 b 115 -149 126 -184 115 -170 b 130 -130 115 -136 120 -130 b 146 -146 140 -130 146 -136 b 166 -139 153 -141 159 -139 b 178 -155 174 -139 178 -144 b 148 -193 178 -170 168 -182 z "},"˜":{"ha":385,"x_min":0,"x_max":0,"o":"m 281 810 b 245 772 257 810 245 797 b 137 807 193 795 157 807 b 68 774 111 807 87 796 b 34 674 45 748 34 715 b 61 644 34 654 43 644 l 121 644 b 140 671 134 644 140 653 l 140 682 b 262 647 206 659 247 647 b 328 683 290 647 312 659 b 351 780 343 705 351 738 b 316 810 351 800 340 810 z m 273 688 b 242 726 252 699 242 711 b 255 742 242 736 246 742 b 274 735 261 742 268 740 b 290 751 275 745 280 751 b 305 732 300 751 305 745 b 273 688 305 711 294 697 z "},"˝":{"ha":458,"x_min":0,"x_max":0,"o":"m 142 810 b 115 799 130 810 121 806 b 34 671 61 723 34 680 b 61 644 34 653 43 644 l 125 644 b 153 661 136 644 144 650 b 229 780 203 730 229 770 b 194 810 229 800 218 810 z m 161 745 b 136 779 144 752 136 763 b 148 793 136 789 140 793 b 160 781 155 793 159 789 b 176 787 165 785 170 787 b 185 774 182 787 185 783 b 161 745 185 763 177 753 z m 338 810 b 311 799 325 810 316 806 b 229 671 256 723 229 680 b 256 644 229 653 238 644 l 321 644 b 348 661 331 644 340 650 b 425 780 399 730 425 770 b 389 810 425 800 413 810 z m 357 745 b 332 779 340 752 332 763 b 343 793 332 789 336 793 b 355 781 351 793 355 789 b 371 787 360 785 366 787 b 380 774 377 787 380 783 b 357 745 380 763 372 753 z "},"–":{"ha":746,"x_min":0,"x_max":0,"o":"m 605 404 b 117 410 543 404 380 406 b 34 339 62 410 34 386 l 34 282 b 127 220 34 241 65 220 b 332 222 157 220 225 220 b 581 225 439 224 522 225 b 712 288 668 225 712 246 l 712 350 b 605 404 712 386 676 404 z m 363 273 b 320 327 334 289 320 307 b 338 350 320 342 326 350 b 366 340 347 350 357 347 b 389 363 368 355 375 363 b 410 335 404 363 410 353 b 363 273 410 306 395 286 z "},"—":{"ha":1085,"x_min":0,"x_max":0,"o":"m 890 404 b 158 410 798 404 553 406 b 34 339 75 410 34 386 l 34 282 b 173 220 34 241 80 220 b 481 222 218 220 321 220 b 854 225 642 224 766 225 b 1051 288 985 225 1051 246 l 1051 350 b 890 404 1051 386 998 404 z m 528 273 b 484 327 498 289 484 307 b 503 350 484 342 490 350 b 530 340 511 350 521 347 b 553 363 532 355 539 363 b 574 335 568 363 574 353 b 528 273 574 306 559 286 z "},"‘":{"ha":266,"x_min":0,"x_max":0,"o":"m 123 949 b 78 919 103 949 88 939 b 34 781 49 859 34 812 l 34 684 b 88 632 34 649 52 632 l 178 632 b 232 684 214 632 232 649 l 232 781 b 197 825 232 799 220 813 b 210 898 205 859 210 883 b 159 949 210 932 193 949 z m 135 768 b 181 720 165 755 181 739 b 162 699 181 706 175 699 b 132 708 152 699 142 702 b 107 688 131 694 123 688 b 85 713 92 688 85 696 b 135 768 85 739 102 758 z "},"’":{"ha":266,"x_min":0,"x_max":0,"o":"m 142 632 b 188 663 163 632 178 642 b 232 800 217 723 232 769 l 232 898 b 178 949 232 932 214 949 l 88 949 b 34 898 52 949 34 932 l 34 800 b 69 757 34 783 45 768 b 56 684 60 723 56 699 b 107 632 56 649 73 632 z m 131 813 b 85 861 100 827 85 843 b 104 882 85 876 91 882 b 134 873 114 882 123 880 b 159 894 135 887 143 894 b 181 869 174 894 181 886 b 131 813 181 842 164 824 z "},"‚":{"ha":266,"x_min":0,"x_max":0,"o":"m 142 -159 b 188 -128 163 -159 178 -149 b 232 9 217 -68 232 -22 l 232 107 b 178 159 232 142 214 159 l 88 159 b 34 107 52 159 34 142 l 34 9 b 69 -34 34 -8 45 -22 b 56 -107 60 -68 56 -92 b 107 -159 56 -142 73 -159 z m 131 22 b 85 71 100 36 85 52 b 104 92 85 85 91 92 b 134 83 114 92 123 89 b 159 103 135 96 143 103 b 181 78 174 103 181 95 b 131 22 181 52 164 33 z "},"“":{"ha":543,"x_min":0,"x_max":0,"o":"m 123 949 b 78 919 103 949 88 939 b 34 781 49 859 34 812 l 34 684 b 88 632 34 649 52 632 l 178 632 b 232 684 214 632 232 649 l 232 781 b 197 825 232 799 220 813 b 210 898 205 859 210 883 b 159 949 210 932 193 949 z m 135 768 b 181 720 165 755 181 739 b 162 699 181 706 175 699 b 132 708 152 699 142 702 b 107 688 131 694 123 688 b 85 713 92 688 85 696 b 135 768 85 739 102 758 z m 401 949 b 355 919 380 949 366 939 b 311 781 326 859 311 812 l 311 684 b 366 632 311 649 330 632 l 455 632 b 509 684 491 632 509 649 l 509 781 b 474 825 509 799 498 813 b 488 898 483 859 488 883 b 436 949 488 932 471 949 z m 412 768 b 458 720 443 755 458 739 b 439 699 458 706 452 699 b 410 708 429 699 420 702 b 385 688 408 694 400 688 b 362 713 370 688 362 696 b 412 768 362 739 379 758 z "},"”":{"ha":543,"x_min":0,"x_max":0,"o":"m 142 632 b 188 663 163 632 178 642 b 232 800 217 723 232 769 l 232 898 b 178 949 232 932 214 949 l 88 949 b 34 898 52 949 34 932 l 34 800 b 69 757 34 783 45 768 b 56 684 60 723 56 699 b 107 632 56 649 73 632 z m 131 813 b 85 861 100 827 85 843 b 104 882 85 876 91 882 b 134 873 114 882 123 880 b 159 894 135 887 143 894 b 181 869 174 894 181 886 b 131 813 181 842 164 824 z m 420 632 b 465 663 440 632 455 642 b 509 800 494 723 509 769 l 509 898 b 455 949 509 932 491 949 l 366 949 b 311 898 330 949 311 932 l 311 800 b 347 757 311 783 323 768 b 333 684 338 723 333 699 b 385 632 333 649 350 632 z m 408 813 b 362 861 378 827 362 843 b 381 882 362 876 368 882 b 411 873 391 882 401 880 b 436 894 412 887 420 894 b 458 869 451 894 458 886 b 408 813 458 842 441 824 z "},"„":{"ha":543,"x_min":0,"x_max":0,"o":"m 142 -159 b 188 -128 163 -159 178 -149 b 232 9 217 -68 232 -22 l 232 107 b 178 159 232 142 214 159 l 88 159 b 34 107 52 159 34 142 l 34 9 b 69 -34 34 -8 45 -22 b 56 -107 60 -68 56 -92 b 107 -159 56 -142 73 -159 z m 131 22 b 85 71 100 36 85 52 b 104 92 85 85 91 92 b 134 83 114 92 123 89 b 159 103 135 96 143 103 b 181 78 174 103 181 95 b 131 22 181 52 164 33 z m 420 -159 b 465 -128 440 -159 455 -149 b 509 9 494 -68 509 -22 l 509 107 b 455 159 509 142 491 159 l 366 159 b 311 107 330 159 311 142 l 311 9 b 347 -34 311 -8 323 -22 b 333 -107 338 -68 333 -92 b 385 -159 333 -142 350 -159 z m 408 22 b 362 71 378 36 362 52 b 381 92 362 85 368 92 b 411 83 391 92 401 89 b 436 103 412 96 420 103 b 458 78 451 103 458 95 b 408 22 458 52 441 33 z "},"†":{"ha":510,"x_min":0,"x_max":0,"o":"m 252 668 b 181 754 205 692 181 721 b 210 791 181 779 191 791 b 255 775 225 791 240 786 b 293 812 257 800 270 812 b 327 768 315 812 327 798 b 252 668 327 721 302 688 z m 414 656 b 476 705 455 656 476 672 l 476 786 b 408 835 476 819 454 835 l 343 836 l 340 895 b 289 960 338 939 321 960 l 210 960 b 166 904 182 960 168 941 l 163 839 l 85 840 b 34 789 51 840 34 823 l 34 710 b 91 653 34 672 53 653 l 154 654 l 123 33 b 175 -14 123 2 140 -14 l 327 -14 b 381 36 363 -14 381 3 l 352 655 z "},"‡":{"ha":510,"x_min":0,"x_max":0,"o":"m 254 163 b 198 231 217 182 198 205 b 221 261 198 251 205 261 b 257 248 233 261 245 257 b 288 277 259 268 269 277 b 315 242 306 277 315 266 b 254 163 315 205 294 178 z m 85 840 b 34 789 51 840 34 823 l 34 710 b 91 653 34 672 53 653 l 154 654 l 137 311 l 85 311 b 34 260 51 311 34 294 l 34 181 b 91 124 34 143 53 124 l 128 124 l 123 33 b 175 -14 123 2 140 -14 l 327 -14 b 381 36 363 -14 381 3 l 377 127 l 414 127 b 476 176 455 127 476 143 l 476 257 b 408 306 476 290 454 306 l 368 307 l 352 655 l 414 656 b 476 705 455 656 476 672 l 476 786 b 408 835 476 819 454 835 l 343 836 l 340 895 b 289 960 338 939 321 960 l 210 960 b 166 904 182 960 168 941 l 163 839 z m 249 668 b 178 754 202 692 178 721 b 208 791 178 779 188 791 b 252 775 222 791 237 786 b 290 812 254 800 267 812 b 324 768 313 812 324 798 b 249 668 324 721 299 688 z "},"•":{"ha":456,"x_min":0,"x_max":0,"o":"m 78 684 b -24 559 9 684 -24 642 l -24 414 b 78 290 -24 331 9 290 l 262 290 b 364 414 330 290 364 331 l 364 559 b 262 684 364 642 330 684 z m 171 412 b 89 497 116 437 89 465 b 123 535 89 522 100 535 b 175 519 141 535 158 530 b 218 555 178 543 192 555 b 259 511 245 555 259 541 b 171 412 259 465 230 432 z "},"…":{"ha":1190,"x_min":0,"x_max":0,"o":"m 56 198 b 5 136 22 198 5 177 l 5 62 b 56 0 5 21 22 0 l 149 0 b 200 62 183 0 200 21 l 200 136 b 149 198 200 177 183 198 z m 103 62 b 62 104 75 74 62 88 b 79 123 62 117 67 123 b 105 115 87 123 96 121 b 127 134 106 127 114 134 b 147 111 140 134 147 126 b 103 62 147 88 132 72 z m 519 198 b 468 136 485 198 468 177 l 468 62 b 519 0 468 21 485 0 l 612 0 b 663 62 646 0 663 21 l 663 136 b 612 198 663 177 646 198 z m 566 62 b 525 104 538 74 525 88 b 542 123 525 117 530 123 b 568 115 551 123 559 121 b 590 134 570 127 577 134 b 610 111 604 134 610 126 b 566 62 610 88 595 72 z m 983 198 b 931 136 948 198 931 177 l 931 62 b 983 0 931 21 948 0 l 1075 0 b 1126 62 1109 0 1126 21 l 1126 136 b 1075 198 1126 177 1109 198 z m 1029 62 b 988 104 1002 74 988 88 b 1005 123 988 117 994 123 b 1031 115 1014 123 1023 121 b 1053 134 1033 127 1040 134 b 1074 111 1067 134 1074 126 b 1029 62 1074 88 1059 72 z "},"‹":{"ha":317,"x_min":0,"x_max":0,"o":"m 172 540 b 123 521 147 540 131 534 b 34 347 64 420 34 362 b 77 243 34 336 48 301 b 159 157 106 186 134 157 l 235 157 b 283 195 267 157 283 170 b 267 257 283 214 278 235 b 218 350 256 279 240 311 b 266 435 239 386 255 414 b 283 491 277 458 283 477 b 229 540 283 524 265 540 z m 183 178 b 139 224 154 191 139 207 b 157 244 139 237 145 244 b 184 235 166 244 176 241 b 208 254 186 248 194 254 b 229 231 222 254 229 247 b 183 178 229 207 214 189 z "},"›":{"ha":317,"x_min":0,"x_max":0,"o":"m 88 540 b 34 491 52 540 34 524 b 52 435 34 477 40 458 b 99 350 62 414 78 386 b 50 257 77 311 61 279 b 34 195 39 235 34 214 b 83 157 34 170 50 157 l 159 157 b 239 243 184 157 210 186 b 283 347 269 301 283 336 b 194 521 283 362 254 420 b 145 540 186 534 170 540 z m 134 182 b 87 235 103 193 87 210 b 109 258 87 250 94 258 b 132 238 123 258 130 251 b 159 248 141 244 151 248 b 178 227 172 248 178 241 b 134 182 178 210 163 195 z "},"⁄":{"ha":173,"x_min":0,"x_max":0,"o":"m -52 0 b -11 19 -32 0 -18 6 b 172 448 -2 33 59 176 b 369 917 293 739 359 895 b 376 944 374 927 376 937 b 323 974 376 964 359 974 l 273 974 b 243 960 258 974 249 969 b -20 431 234 947 146 770 b -201 54 -136 193 -197 68 b -203 35 -203 47 -203 41 b -152 0 -203 12 -186 0 z m -82 49 b -136 116 -118 68 -136 90 b -113 145 -136 136 -128 145 b -80 133 -102 145 -91 141 b -52 161 -78 152 -68 161 b -25 127 -34 161 -25 150 b -82 49 -25 90 -44 64 z "},"∕":{"ha":173,"x_min":0,"x_max":0,"o":"m -52 0 b -11 19 -32 0 -18 6 b 172 448 -2 33 59 176 b 369 917 293 739 359 895 b 376 944 374 927 376 937 b 323 974 376 964 359 974 l 273 974 b 243 960 258 974 249 969 b -20 431 234 947 146 770 b -201 54 -136 193 -197 68 b -203 35 -203 47 -203 41 b -152 0 -203 12 -186 0 z m -82 49 b -136 116 -118 68 -136 90 b -113 145 -136 136 -128 145 b -80 133 -102 145 -91 141 b -52 161 -78 152 -68 161 b -25 127 -34 161 -25 150 b -82 49 -25 90 -44 64 z "},"₣":{"ha":599,"x_min":0,"x_max":0,"o":"m 378 492 b 313 570 335 515 313 541 b 340 605 313 593 322 605 b 380 590 354 605 368 600 b 415 624 382 612 394 624 b 446 583 436 624 446 610 b 378 492 446 541 423 511 z m 331 149 b 359 149 344 149 353 149 b 411 211 394 149 411 170 l 411 268 b 365 338 411 315 395 338 b 322 337 350 338 336 338 b 315 461 320 375 317 416 b 459 448 400 452 448 448 b 484 467 475 448 484 454 l 484 659 b 462 678 484 672 476 678 b 307 665 453 678 401 673 l 299 827 l 519 838 b 565 871 549 839 565 850 l 565 930 b 531 959 565 947 553 957 b 169 974 479 965 359 970 b 117 922 134 974 117 957 l 109 333 l 94 333 b 34 279 54 333 34 315 l 34 216 b 105 154 34 175 58 155 l 104 49 b 158 0 104 16 122 0 l 283 0 b 334 46 317 0 334 16 b 331 149 334 62 333 97 z "},"€":{"ha":691,"x_min":0,"x_max":0,"o":"m 507 640 b 425 740 452 669 425 702 b 458 784 425 769 436 784 b 511 765 476 784 494 778 b 554 808 513 793 528 808 b 594 756 581 808 594 791 b 507 640 594 702 565 663 z m -17 631 b -75 578 -56 631 -75 614 l -75 497 b -22 444 -75 461 -58 444 l 31 444 b 31 411 31 433 31 422 l -17 412 b -75 359 -56 412 -75 394 l -75 277 b -22 224 -75 241 -58 224 l 60 225 b 356 -27 112 57 211 -27 b 606 87 461 -27 544 11 b 665 217 646 139 665 182 b 612 279 665 258 648 279 l 467 279 b 418 244 437 279 421 268 b 367 155 412 184 395 155 b 291 217 340 155 315 176 b 285 229 289 220 287 224 l 300 229 b 375 299 350 229 375 252 l 375 337 b 300 407 375 384 350 407 l 245 408 l 245 448 l 300 448 b 375 519 350 448 375 472 l 375 557 b 300 627 375 604 350 627 l 268 627 b 271 640 269 631 270 635 b 334 719 288 692 309 719 b 386 662 367 719 384 700 b 459 586 389 611 414 586 l 611 586 b 663 632 646 586 663 602 b 641 768 663 690 655 734 b 356 979 579 909 484 979 b 177 901 285 979 225 953 b 47 631 113 827 69 737 z "},"™":{"ha":749,"x_min":0,"x_max":0,"o":"m 178 571 b 202 587 194 571 202 576 b 193 874 202 610 199 705 b 247 876 205 874 222 875 b 279 896 268 878 279 884 l 279 931 b 267 947 279 941 275 947 b 155 954 258 948 220 950 b 41 960 91 958 52 960 b 19 937 26 960 19 952 l 19 887 b 43 865 19 873 27 865 b 111 870 54 865 76 867 l 111 602 b 135 571 111 581 119 571 z m 146 880 b 115 914 125 890 115 901 b 127 929 115 924 119 929 b 148 923 134 929 141 927 b 164 937 149 932 154 937 b 180 920 174 937 180 931 b 146 880 180 901 168 888 z m 693 571 b 703 585 700 571 703 576 b 704 838 704 684 704 768 b 693 893 704 857 701 875 b 614 949 679 930 652 949 b 528 880 580 949 551 926 b 447 949 513 926 486 949 b 387 911 422 949 402 936 l 386 936 b 362 960 385 952 376 960 l 327 960 b 309 949 315 960 309 957 l 300 591 b 323 571 300 578 308 571 l 368 571 b 392 591 384 571 392 578 l 388 800 b 423 841 399 827 411 841 b 456 772 441 841 453 818 b 463 589 459 734 461 673 l 463 585 b 472 571 463 576 466 571 l 525 571 b 533 589 530 571 533 577 b 534 759 533 641 534 698 b 578 800 547 787 562 800 b 632 699 614 800 632 766 l 632 589 b 646 571 632 577 637 571 z m 618 844 b 587 878 597 854 587 865 b 600 893 587 888 591 893 b 621 887 607 893 614 891 b 637 902 621 897 627 902 b 652 884 648 902 652 896 b 618 844 652 865 641 852 z "},"−":{"ha":456,"x_min":0,"x_max":0,"o":"m 134 382 b 387 385 259 385 343 385 b 449 434 428 385 449 401 l 449 515 b 381 564 449 548 427 564 l 58 570 b 7 518 24 570 7 553 l 7 439 b 64 382 7 401 26 382 z m 227 421 b 171 490 190 441 171 463 b 194 519 171 509 178 519 b 230 507 206 519 218 515 b 260 536 232 526 242 536 b 288 500 279 536 288 524 b 227 421 288 463 267 437 z "},"≈":{"ha":525,"x_min":0,"x_max":0,"o":"m 434 627 b 382 605 399 627 382 619 b 350 515 382 545 372 515 b 285 563 344 515 317 539 b 176 616 238 598 202 616 b 92 594 144 616 116 608 b 34 467 54 570 34 528 b 38 374 34 444 35 413 b 84 317 41 336 57 317 l 103 317 b 141 342 123 317 136 326 b 190 418 157 393 173 418 b 257 376 212 418 238 393 b 372 315 301 335 340 315 b 491 485 451 315 491 372 l 491 548 b 434 627 491 600 472 627 z m 382 371 b 347 418 359 380 347 396 b 363 439 347 433 352 439 b 381 422 374 439 380 434 b 402 430 388 427 395 430 b 416 412 411 430 416 424 b 382 371 416 397 405 382 z m 434 315 b 382 293 399 315 382 307 b 350 203 382 233 372 203 b 285 251 344 203 317 227 b 176 304 238 286 202 304 b 92 282 144 304 116 296 b 34 155 54 258 34 216 b 38 62 34 132 35 101 b 84 5 41 24 57 5 l 103 5 b 141 30 123 5 136 14 b 190 106 157 81 173 106 b 257 64 212 106 238 81 b 372 3 301 23 340 3 b 491 173 451 3 491 60 l 491 236 b 434 315 491 288 472 315 z m 382 59 b 347 106 359 68 347 84 b 363 127 347 121 352 127 b 381 111 374 127 380 122 b 402 118 388 115 395 118 b 416 100 411 118 416 112 b 382 59 416 85 405 71 z "},"≤":{"ha":444,"x_min":0,"x_max":0,"o":"m 380 821 b 65 631 360 821 255 758 b -14 549 13 597 -14 570 b 62 473 -14 532 12 507 b 201 384 98 448 144 418 b 381 281 306 315 366 281 b 431 362 414 281 431 308 l 431 395 b 400 465 431 427 421 451 b 260 549 372 486 325 514 l 380 625 b 431 689 414 646 431 668 l 431 769 b 380 821 431 804 414 821 z m 334 648 b 278 717 297 668 278 690 b 301 747 278 736 286 747 b 337 734 313 747 326 743 b 368 763 343 753 353 763 b 395 737 386 763 395 754 b 334 648 395 703 374 673 z m 115 0 b 368 3 240 2 324 3 b 430 52 409 3 430 19 l 430 133 b 362 182 430 165 408 182 l 39 187 b -12 136 5 187 -12 170 l -12 57 b 45 0 -12 19 7 0 z m 208 39 b 152 107 171 58 152 81 b 175 137 152 127 159 137 b 211 124 187 137 199 133 b 241 153 213 144 223 153 b 269 118 260 153 269 142 b 208 39 269 81 248 54 z "},"≥":{"ha":456,"x_min":0,"x_max":0,"o":"m 70 821 b 18 769 35 821 18 804 l 18 689 b 70 625 18 668 35 646 l 189 549 b 50 465 125 514 78 486 b 18 395 28 451 18 427 l 18 362 b 68 281 18 308 35 281 b 249 384 83 281 144 315 b 388 473 305 418 351 448 b 463 549 438 507 463 532 b 385 631 463 570 437 597 b 70 821 195 758 90 821 z m 117 344 b 61 412 80 363 61 386 b 84 442 61 432 68 442 b 120 429 96 442 109 438 b 151 458 126 449 136 458 b 178 433 169 458 178 450 b 117 344 178 398 157 369 z m 147 0 b 399 3 272 2 356 3 b 462 52 441 3 462 19 l 462 133 b 394 182 462 165 439 182 l 71 187 b 20 136 37 187 20 170 l 20 57 b 77 0 20 19 39 0 z m 240 39 b 184 107 203 58 184 81 b 207 137 184 127 191 137 b 243 124 219 137 231 133 b 273 153 245 144 255 153 b 300 118 292 153 300 142 b 240 39 300 81 280 54 z "},"¹":{"ha":343,"x_min":0,"x_max":0,"o":"m 169 974 b 127 950 149 974 136 966 b 54 794 79 859 54 807 b 105 747 54 762 71 747 l 125 747 l 130 410 b 181 362 130 378 147 362 l 227 362 b 280 410 262 362 280 378 l 289 931 b 237 974 289 960 272 974 z m 204 838 b 161 890 175 852 161 870 b 179 913 161 906 167 913 b 206 903 188 913 197 910 b 230 926 208 919 216 926 b 251 899 244 926 251 917 b 204 838 251 869 235 849 z "},"²":{"ha":498,"x_min":0,"x_max":0,"o":"m 115 371 b 378 376 281 374 368 376 b 444 431 422 376 444 395 l 444 447 b 359 504 444 482 416 501 b 257 508 306 507 272 508 b 317 584 264 522 285 547 b 440 825 399 680 440 760 b 399 933 440 869 427 905 b 243 993 361 973 309 993 b 139 970 199 993 164 985 b 54 880 83 937 54 907 b 63 854 54 869 57 861 b 142 796 98 816 124 796 b 197 828 159 796 178 807 b 248 850 211 843 228 850 b 287 815 274 850 287 839 b 218 675 287 772 264 726 b 65 418 116 564 65 478 b 113 371 65 387 81 371 z m 151 852 b 111 905 124 863 111 880 b 129 929 111 921 117 929 b 149 909 141 929 148 922 b 173 918 157 916 165 918 b 189 898 183 918 189 911 b 151 852 189 880 176 865 z "},"³":{"ha":514,"x_min":0,"x_max":0,"o":"m 246 360 b 396 416 298 360 349 379 b 460 551 439 452 460 496 b 368 709 460 622 429 674 b 418 836 401 739 418 782 b 393 916 418 865 410 892 b 227 993 355 967 300 993 b 132 975 188 993 156 987 b 54 899 80 949 54 924 b 77 859 54 888 62 874 b 157 808 110 825 136 808 b 195 824 176 808 189 813 b 252 878 216 860 235 878 b 271 825 264 878 271 860 b 213 749 271 785 252 760 b 137 698 162 737 137 720 l 137 677 b 169 635 137 653 148 639 b 235 621 195 631 217 627 b 312 547 286 608 312 583 b 254 477 312 498 283 477 b 215 496 235 477 222 483 b 155 541 201 526 180 541 b 101 517 142 541 125 532 b 61 465 75 498 61 481 b 83 424 61 454 68 441 b 246 360 119 381 173 360 z m 145 858 b 103 909 117 872 103 889 b 121 931 103 924 109 931 b 147 922 130 931 138 928 b 170 943 149 936 156 943 b 190 917 183 943 190 935 b 145 858 190 889 175 869 z m 146 426 b 108 472 121 439 108 454 b 123 492 108 486 113 492 b 147 484 132 492 140 490 b 168 503 149 496 155 503 b 186 479 180 503 186 495 b 146 426 186 454 172 436 z "},"⁴":{"ha":455,"x_min":0,"x_max":0,"o":"m 342 362 b 395 444 375 362 393 389 b 401 931 396 520 398 683 b 354 974 401 960 385 974 l 285 974 b 249 959 269 974 256 969 b 106 731 235 941 187 865 b 14 563 44 629 14 573 b 64 517 14 532 31 517 l 243 517 l 243 415 b 296 362 243 380 260 362 z m 175 632 l 243 755 l 243 632 z m 304 816 b 254 878 271 833 254 854 b 275 905 254 896 260 905 b 307 893 286 905 296 901 b 334 920 309 911 317 920 b 359 888 351 920 359 909 b 304 816 359 854 340 830 z "}}}
